<svg xmlns="http://www.w3.org/2000/svg" width="210mm" height="64mm" viewBox="0 0 595 182">
  <defs>
    <style>
      .a {
        fill: #231815;
      }
    </style>
  </defs>
  <g>
    <path class="a" d="M0,0Z"/>
    <path class="a" d="M0,0Z"/>
    <path class="a" d="M0,0Z"/>
    <path class="a" d="M0,0Z"/>
    <path class="a" d="M0,0Z"/>
    <path class="a" d="M0,0ZM0,0ZM0,0ZM0,0Z"/>
    <path class="a" d="M0,0Z"/>
    <path class="a" d="M0,0Z"/>
    <path class="a" d="M0,0Z"/>
    <path class="a" d="M0,0Z"/>
    <path class="a" d="M0,0Z"/>
    <path class="a" d="M0,0Z"/>
    <path class="a" d="M0,0Z"/>
    <path class="a" d="M0,0Z"/>
    <path class="a" d="M0,0Z"/>
    <path class="a" d="M0,0Z"/>
    <path class="a" d="M0,0Z"/>
    <path class="a" d="M0,0Z"/>
    <path class="a" d="M0,0Z"/>
    <path class="a" d="M0,0ZM0,0Z"/>
    <path class="a" d="M0,0Z"/>
    <path class="a" d="M0,0ZM0,0Z"/>
    <path class="a" d="M0,0ZM0,0Z"/>
    <rect class="a" x="241" y="51" width="28" height="3.36"/>
    <path class="a" d="M0,0Z"/>
    <path class="a" d="M0,0ZM0,0Z"/>
    <path class="a" d="M0,0Z"/>
    <path class="a" d="M0,0Z"/>
    <path class="a" d="M0,0Z"/>
  </g>
</svg>
