<svg width="596" height="182" viewBox="0 0 596 182" fill="none" xmlns="http://www.w3.org/2000/svg">
<g clip-path="url(#clip0_2820_6931)">
<path d="M21.3 142.7C20.8 142 20 141.8 19.2 142C19.2 141.5 19.1 140.8 19.2 139.9C19.2 138.4 19.4 136.3 19.6 133.7C19.8 131.1 20 128.5 20.2 126.1C20.4 123.8 20.7 123.1 20.8 122.9C21.5 122.2 21.6 121.2 21 120.4C23.6 118.8 25.7 117.5 27.2 116.6L27.3 116.5C27.5 116.6 27.8 116.7 28.1 116.7C28.2 116.7 28.3 116.7 28.5 116.7C29.5 116.6 30.2 115.7 30.2 114.8C31.3 114.2 32.5 113.5 33.7 112.7C36.8 110.9 38.2 110.2 38.7 109.9C39 109.8 39.3 109.6 39.6 109.5C40.4 110.2 41.5 110.1 42.2 109.3C43.3 108 43.1 107 42.8 106.4C42.4 105.8 41.6 105.1 39.9 105.4C39 105.6 38.1 105.9 37.1 106.3C36.2 106.7 34.4 107.7 31.8 109.2C31 109.7 30.2 110.2 29.4 110.6C29.4 110.5 29.3 110.4 29.3 110.3C29.1 109.6 28.6 108.7 27.9 107.7C27.3 106.6 26.4 105.5 25.3 104.2C23.8 102.4 23.2 102 22.8 101.7L22.1 101.3C21.4 100.8 20.4 100.9 19.8 101.4C18.7 102.4 19.3 103.8 19.6 104.2C19.9 104.8 20.5 105.2 21.2 105.2C21.5 105.5 21.9 105.9 22.4 106.6C23.4 107.7 24.1 108.7 24.6 109.6C25.3 110.7 25.5 111.3 25.6 111.6C25.7 111.8 25.8 112.1 25.9 112.6C25.6 112.8 25.4 112.9 25.1 113.1C23.4 114.2 20.9 115.7 17.7 117.7C14.6 119.7 12.3 121.1 10.9 121.8C9.49997 122.6 8.29997 123.2 7.29997 123.8C6.19997 124.3 4.99997 124.9 3.59997 125.6C1.69997 126.5 0.599974 127.4 0.199974 128.4C-0.200026 129.4 0.199974 130.5 1.09997 130.9C1.29997 131 1.49997 131 1.69997 131.1C2.49997 131.2 3.19997 130.8 3.49997 130C3.49997 130 3.79997 129.6 5.09997 129C6.49997 128.3 7.79997 127.7 8.89997 127.2C9.99997 126.6 11.3 126 12.7 125.1C13.7 124.6 15 123.7 16.8 122.7C16.6 123.5 16.5 124.4 16.4 125.5C16.2 128 16 130.5 15.8 133.2C15.6 135.7 15.5 137.7 15.4 139.3C14.2 139 13.5 138.8 13.1 138.6C12.7 138.4 11.8 138 9.99997 137C8.69997 136.3 7.59997 135.4 6.89997 134.5C6.19997 133.7 5.09997 133.6 4.29997 134.2C3.49997 134.9 3.39997 136 3.99997 136.8C4.99997 138.1 6.49997 139.2 8.19997 140.2C9.79997 141.1 10.9 141.7 11.6 142C12.5 142.4 13.9 142.8 15.6 143.1C15.6 143.3 15.7 143.5 15.7 143.6C16 145 16.9 145.6 17.5 145.9C17.7 146 18 146 18.2 146.1C19 146.2 19.9 145.9 20.8 145.2C21.7 144.7 21.9 143.6 21.3 142.7Z" fill="#F7F8F8"/>
<path d="M28.1009 137.2C27.4009 138 27.5009 139.2 28.3009 139.9C28.6009 140.2 29.0009 140.3 29.4009 140.3C30.0009 140.3 30.6009 140.1 31.0009 139.6C32.3009 138 33.1009 135.9 33.3009 133.3C33.4009 131.8 33.5009 130.1 33.5009 128.3C33.5009 126.5 33.5009 124.7 33.4009 123.1C33.3009 120.7 33.3009 118.7 33.5009 117.3C33.6009 116.3 32.9009 115.3 31.9009 115.2C30.9009 115 29.9009 115.8 29.8009 116.8C29.6009 118.4 29.6009 120.5 29.7009 123.2C29.8009 124.8 29.8009 126.5 29.8009 128.2C29.8009 129.9 29.7009 131.5 29.6009 132.9C29.4009 134.8 29.0009 136.2 28.1009 137.2Z" fill="#F7F8F8"/>
<path d="M43.2004 133.5C43.4004 133.6 43.7004 133.7 43.9004 133.7C44.6004 133.8 45.3004 133.4 45.7004 132.7C47.3004 129.6 48.4004 127.2 49.0004 125.4C49.7004 123.2 50.2004 122.4 50.4004 122.2C51.1004 121.4 50.9004 120.2 50.1004 119.6C49.3004 118.9 48.1004 119.1 47.5004 119.9C46.8004 120.8 46.2004 122.2 45.5004 124.3C45.0004 125.9 43.9004 128.2 42.4004 131C42.0004 131.9 42.3004 133.1 43.2004 133.5Z" fill="#F7F8F8"/>
<path d="M70.2002 131.5C69.2002 131.1 68.1002 131.5 67.7002 132.5C65.9002 136.7 64.2002 140.3 62.8002 143.1C61.8002 145 60.8002 147.1 59.7002 149.1C58.6002 151.2 57.4002 153.1 56.3002 155C55.2002 156.9 54.1002 158.7 53.0002 160.4C51.9002 162.1 50.9002 163.6 50.0002 165C49.8002 165.3 49.7002 165.7 49.7002 166.1C44.1002 166.4 41.6002 166.2 40.6002 166.1C39.4002 165.9 38.3002 165.6 37.2002 165.2C36.2002 164.8 35.2002 164.4 34.5002 164C34.2002 163.8 33.9002 163.7 33.6002 163.5C34.2002 162.3 34.9002 160.8 35.8002 159.1C37.5002 155.7 39.1002 152.7 40.6002 149.9C42.9002 145.7 43.1002 144.7 43.1002 144C43.1002 142.8 42.5002 142.2 42.1002 142C41.6002 141.7 40.8002 141.4 39.5002 141.8C38.8002 142 37.5002 142.8 32.6002 146.6C29.2002 149.2 26.5002 151.3 24.5002 152.9C25.2002 151.7 26.1002 150.5 27.0002 149.5C27.7002 148.7 27.6002 147.5 26.9002 146.8C26.1002 146.1 24.9002 146.2 24.2002 146.9C22.8002 148.4 21.6002 150.2 20.7002 152C19.7002 153.9 19.2002 155.3 19.0002 156.2C18.8002 157.6 19.3002 158.4 19.8002 158.8C20.1002 159 21.0002 159.6 22.2002 159.1C22.7002 158.9 23.7002 158.4 26.6002 156.1C28.6002 154.5 31.4002 152.3 35.0002 149.6C36.0002 148.8 36.9002 148.1 37.6002 147.6C37.5002 147.8 37.4002 148 37.3002 148.2C35.8002 151 34.2002 154.1 32.4002 157.5C31.6002 159.1 30.9002 160.4 30.4002 161.5C30.1002 161.3 29.8002 161.1 29.5002 160.8C28.5002 160 28.1002 159.4 27.9002 159.1C27.5002 158.1 26.4002 157.7 25.4002 158.1C24.4002 158.5 24.0002 159.6 24.4002 160.6C24.9002 161.7 25.8002 162.8 27.2002 163.8C27.7002 164.2 28.3002 164.6 28.7002 164.9C28.1002 166.3 27.0002 168.5 25.5002 171.4C23.9002 174.6 22.9002 176.7 22.5002 177.7L21.8002 179.4C21.4002 180.4 21.9002 181.5 22.8002 181.9C23.0002 182 23.2002 182 23.4002 182C24.2002 182.1 25.0002 181.6 25.3002 180.8L26.0002 179C26.4002 178.1 27.3002 176.1 28.9002 173C30.2002 170.3 31.2002 168.3 31.9002 166.8C32.2002 166.9 32.4002 167.1 32.7002 167.2C33.6002 167.7 34.7002 168.2 35.9002 168.6C37.1002 169 38.5002 169.4 39.9002 169.6C40.3002 169.7 40.7002 169.7 41.3002 169.8C43.7002 170 47.5002 169.9 53.0002 169.6C54.0002 169.5 54.8002 168.6 54.8002 167.6C54.8002 166.9 54.4002 166.4 53.8002 166.1C54.6002 165 55.4002 163.7 56.2002 162.4C57.3002 160.7 58.4002 158.8 59.5002 157C60.6002 155.1 61.8002 153.1 63.0002 151C63.1002 150.8 63.2002 150.5 63.4002 150.3C63.6002 150.8 63.7002 151.3 63.7002 151.7C63.8002 152.1 63.8002 153 63.9002 155.1C63.9002 156.9 63.9002 158.7 63.7002 160.6C63.6002 162.6 63.5002 164.4 63.5002 166.2C63.5002 168.8 64.9002 170.6 67.2002 171.1C67.3002 171.1 67.4002 171.1 67.4002 171.1C68.3002 171.2 69.2002 170.5 69.4002 169.6C69.6002 168.6 69.0002 167.6 67.9002 167.4C67.5002 167.3 67.2002 167.2 67.2002 166.2C67.2002 164.5 67.3002 162.7 67.4002 160.8C67.5002 158.8 67.6002 156.9 67.6002 155.1C67.6002 153.2 67.5002 151.9 67.4002 151.1C67.3002 150.3 67.0002 149.4 66.6002 148.2C66.4002 147.6 66.1002 146.9 65.5002 146.4C65.8002 145.9 66.0002 145.4 66.3002 144.9C67.7002 142 69.4002 138.3 71.3002 134.1C71.6002 133 71.2002 131.9 70.2002 131.5Z" fill="#F7F8F8"/>
<path d="M114.901 147.6C113.901 146.2 112.701 144.3 111.501 142C111.001 141.1 109.901 140.7 109.001 141.2C108.101 141.7 107.701 142.8 108.201 143.7C109.601 146.3 110.801 148.3 111.901 149.8C112.501 150.6 112.901 151.5 113.201 152.4C113.301 152.7 113.301 152.8 113.301 152.9C112.801 153.3 112.301 153.7 111.701 154C111.001 154.4 109.901 155.1 108.401 156C106.901 156.9 105.101 157.8 103.201 158.9C101.301 159.9 99.8007 160.7 98.5007 161.3C97.3007 161.9 95.9007 162.4 94.3007 163C92.4007 163.6 91.5007 163.8 91.0007 163.9C89.6007 164 88.4007 163.9 86.2007 163.6C85.2007 163.4 84.3007 163.2 83.7007 163C83.1007 162.7 82.5007 162.4 82.0007 162C81.6007 161.7 81.2007 161.2 80.8007 160.6C80.7007 160.4 80.6007 160.3 80.5007 160.1C82.0007 159.7 83.1007 158.1 83.9007 156.7C84.5007 155.6 85.1007 154.3 85.7007 152.8C86.3007 151.3 87.1007 149.3 88.1007 146.7C89.1007 144.2 90.0007 141.9 90.9007 140.1C91.6007 138.7 91.9007 138.2 92.1007 138C92.8007 137.6 93.3007 136.8 93.1007 135.9C92.9007 134.9 91.9007 134.2 90.9007 134.5C89.7007 134.8 88.9007 135.8 87.6007 138.5C86.7007 140.4 85.7007 142.7 84.7007 145.4C83.7007 148 82.9007 150 82.3007 151.5C81.7007 152.9 81.2007 154.1 80.6007 155.1C80.0007 156.1 79.7007 156.5 79.6007 156.6C79.5007 156.6 79.5007 156.6 79.4007 156.7C79.3007 156.2 79.2007 155.6 79.1007 155.1C78.9007 153.9 78.7007 152.1 78.4007 149.6C78.1007 147.2 78.1007 145.1 78.3007 143.4C78.4007 142.4 77.7007 141.4 76.6007 141.3C75.5007 141.2 74.6007 141.9 74.5007 143C74.3007 144.9 74.3007 147.2 74.6007 149.9C74.9007 152.5 75.1007 154.4 75.3007 155.7C75.5007 157 75.8007 158.2 76.1007 159.4C76.5007 160.6 76.9007 161.7 77.4007 162.7C78.0007 163.7 78.7007 164.5 79.5007 165.2C80.3007 165.8 81.1007 166.3 82.0007 166.7C82.9007 167.1 84.1007 167.4 85.4007 167.6C86.6007 167.8 87.7007 167.9 88.5007 168C89.4007 168.1 90.3007 168.1 91.1007 168C92.0007 167.9 93.4007 167.6 95.2007 167C96.9007 166.4 98.5007 165.8 99.8007 165.2C101.101 164.6 102.701 163.7 104.701 162.7C106.601 161.7 108.401 160.7 109.901 159.8C111.501 158.9 112.601 158.2 113.401 157.7C114.201 157.2 114.901 156.7 115.501 156.2C116.201 155.6 117.201 154.3 116.401 151.8C116.301 150 115.701 148.8 114.901 147.6Z" fill="#F7F8F8"/>
<path d="M203.099 135.4C202.299 134.3 201.299 133.6 200.099 133.4C199.699 133.3 199.399 133.3 198.999 133.2C199.299 132.1 199.699 131 199.999 130.1C200.699 128 200.999 127.3 201.099 127C201.599 126 201.999 124.8 202.299 123.3C202.499 122.3 201.899 121.3 200.899 121.1C199.899 120.9 198.999 121.5 198.799 122.6C198.599 123.8 198.299 124.7 197.899 125.4C197.599 126.1 197.099 127.2 196.499 129C196.099 130.3 195.599 131.9 195.099 133.7C194.599 133.8 193.999 134 193.499 134.2C192.299 134.7 191.099 135.3 189.699 136.2C188.399 137 187.099 138 185.899 139C185.499 139.3 185.099 139.6 184.699 140C184.499 139.3 184.299 138.4 183.999 137.5C183.299 134.8 182.599 132.4 181.999 130.3C183.999 129 186.499 127.5 189.499 125.7C192.299 124.1 194.399 122.8 195.899 121.8C195.999 121.7 196.199 121.7 196.299 121.6C196.899 121.2 197.699 120.7 198.699 120L200.299 118.9C201.099 118.3 201.299 117.2 200.799 116.3C200.299 115.4 199.199 115.2 198.299 115.7L198.199 115.8L197.399 116.4C196.899 116.8 195.899 117.4 194.499 118.3C194.399 118.4 194.299 118.4 194.199 118.5C193.599 118.8 192.399 119.3 189.799 120C188.999 120.2 188.399 121.1 188.499 122C188.299 122.1 187.999 122.3 187.799 122.4C185.199 123.9 182.999 125.3 181.099 126.4C180.899 125.6 180.799 125.1 180.799 124.7C181.399 124.6 181.899 124.1 182.199 123.5C182.499 122.5 182.099 121.4 181.099 121.1C179.899 120.6 178.999 120.9 178.499 121.3C177.999 121.7 177.299 122.4 177.199 123.8C177.099 124.4 177.199 125.6 177.899 128.5C176.699 129.3 175.499 130.2 174.399 131C172.699 132.2 171.399 133.2 170.499 133.8C170.399 133.9 170.199 134 170.099 134C170.099 134 169.999 134 169.999 133.9C169.099 133.4 167.999 133.7 167.499 134.6C166.899 135.7 167.199 136.6 167.399 137C167.599 137.4 168.099 138 169.199 138.1C169.299 138.1 169.299 138.1 169.399 138.1C170.199 138.1 170.999 137.7 172.399 136.8C173.399 136.1 174.799 135.1 176.499 133.8C177.299 133.2 177.999 132.7 178.899 132.1C179.399 133.9 179.899 135.9 180.599 138.2C181.099 139.9 181.499 141.3 181.799 142.5C180.599 143.7 179.399 145.1 178.299 146.6C176.999 148.2 175.899 149.8 174.999 151.4C173.999 153 173.199 154.7 172.499 156.4C171.799 158.1 171.299 159.4 170.999 160.5C170.699 161.6 170.499 163 170.299 164.9C170.199 166.7 170.099 168.1 170.199 169.1C170.299 170.2 170.399 171.1 170.599 171.8C170.999 173 171.699 173.6 172.199 173.9C172.699 174.2 173.199 174.3 173.799 174.4C173.999 174.4 174.099 174.4 174.299 174.4C174.899 174.4 175.499 174.3 176.299 174.1C176.999 173.9 177.799 173.5 178.599 173C179.299 172.5 180.099 171.9 180.899 171.2C181.699 170.5 182.599 169.6 183.499 168.5C184.399 167.4 185.199 166.3 185.999 165C186.799 163.8 187.599 162.4 188.399 161C189.199 159.5 189.999 157.9 190.799 156.2C191.099 155.5 191.499 154.8 191.799 154.1C191.899 154 191.999 154 192.099 153.9C192.699 153.5 193.499 152.6 195.299 149.6C195.799 148.7 195.599 147.6 194.799 147C194.899 146.8 194.999 146.5 195.099 146.3C195.699 144.7 196.199 143.1 196.699 141.6C197.099 140.2 197.599 138.6 198.199 136.6C198.699 136.6 199.199 136.6 199.599 136.7C199.799 136.8 200.099 136.9 200.499 137.4C200.899 137.9 201.199 138.6 201.299 139.4C201.499 140.3 201.599 141.4 201.499 142.7C201.399 144.1 201.299 145.5 201.199 147C200.999 148.4 200.499 150.7 199.599 153.9C198.599 157.2 197.999 159.6 197.599 161C196.999 163.1 196.399 165.3 195.699 167.6C195.399 168.6 195.899 169.6 196.899 170C197.899 170.3 198.899 169.8 199.199 168.8C199.899 166.4 200.599 164.2 201.099 162.1C201.499 160.7 202.199 158.4 203.099 155C204.099 151.5 204.699 149 204.899 147.4C205.099 145.8 205.199 144.3 205.199 142.8C205.299 141.2 205.099 139.7 204.899 138.5C204.199 137.5 203.699 136.4 203.099 135.4ZM187.399 154.8C186.599 156.5 185.799 158 185.099 159.4C184.299 160.8 183.599 162 182.799 163.2C182.099 164.3 181.299 165.4 180.499 166.3C179.699 167.2 178.999 168 178.299 168.6C177.599 169.2 176.999 169.7 176.499 170C175.999 170.3 175.599 170.5 175.199 170.6C174.799 170.7 174.399 170.8 174.099 170.8C173.899 170.8 173.799 170.8 173.899 170.7C173.799 170.5 173.699 170 173.699 169C173.699 168.2 173.699 166.9 173.799 165.3C173.899 163.7 174.099 162.5 174.299 161.7C174.599 160.8 174.999 159.6 175.699 158.1C176.299 156.6 177.099 155 177.999 153.6C178.899 152.1 179.899 150.6 181.099 149.2C181.699 148.4 182.399 147.6 182.999 146.9C183.199 147.5 183.399 148.1 183.599 148.6C183.999 149.6 184.299 150.6 184.699 151.3C185.099 152.1 185.499 152.8 185.999 153.3C186.399 153.8 186.899 154.1 187.599 154.4C187.499 154.6 187.399 154.7 187.399 154.8ZM192.999 140.8C192.499 142.3 191.999 143.8 191.499 145.3C190.899 146.8 190.299 148.4 189.599 149.9C189.399 150.3 189.299 150.6 189.099 151C188.799 150.9 188.699 150.8 188.699 150.8C188.399 150.5 188.199 150.1 187.899 149.6C187.599 149 187.299 148.2 186.999 147.3C186.699 146.3 186.299 145.3 185.999 144.3C185.999 144.2 185.899 144.1 185.899 143.9C186.699 143.2 187.399 142.5 188.199 141.9C189.299 141 190.499 140.1 191.699 139.4C192.499 138.9 193.199 138.5 193.899 138.1C193.499 139.1 193.199 140 192.999 140.8Z" fill="#F7F8F8"/>
<path d="M219 158.9C219.2 156.4 219.4 154.4 219.6 153C219.8 151.5 220.1 149.4 220.4 146.7C220.8 144 221.2 141.5 221.6 139.3C221.8 138.2 222 137.1 222.2 136.2C223.2 135.5 224 134.9 224.7 134.4C225.8 133.7 226.8 133 227.7 132.5C228.6 132 229.7 131.4 231 130.7C232.3 130.1 233.4 129.6 234.4 129.3C235.4 129 235.9 128 235.6 127C235.3 126 234.3 125.4 233.4 125.7C232.2 126.1 230.9 126.6 229.5 127.3C228.1 128 226.9 128.6 226 129.2C225.7 129.4 225.3 129.6 224.9 129.9C225.4 129.4 225.7 129.2 225.8 129.1C226.7 128.8 227.3 127.7 227 126.7C226.7 125.7 225.7 125.2 224.7 125.5C223.4 125.9 222.3 127 221.2 128.7C220.6 129.7 220 131 219.5 132.7C219.4 133 219.3 133.4 219.2 133.8C218.8 134.1 218.5 134.3 218.1 134.6C216 136.1 214.1 137.7 212.4 139.2C209.9 141.4 209.3 142.4 209.1 143.1C208.7 144.1 209.2 145.2 210.1 145.6C210.3 145.7 210.5 145.7 210.6 145.7C211.4 145.8 212.1 145.3 212.4 144.5C212.4 144.4 212.8 143.8 214.7 142.1C215.7 141.2 216.8 140.3 217.9 139.4C217.6 141.4 217.2 143.7 216.9 146.1C216.5 148.9 216.2 151 216.1 152.5C215.9 154 215.7 156 215.5 158.6C215.3 161.2 215.2 162.9 215.1 163.6C215.1 164.6 215.2 165.5 215.5 166.3C215.8 167 216.2 167.6 216.7 168C217.3 168.5 218.1 168.8 219.1 168.9C221.4 169.1 223.1 166.8 223.6 166C224.2 165.2 224 164 223.2 163.4C222.4 162.8 221.3 163 220.7 163.8C219.8 165.1 219.3 165.2 219.3 165.2C219.1 165.2 219 165.1 219 165.2C219 165.1 218.9 165 218.8 164.8C218.8 164.7 218.7 164.4 218.7 163.8C218.6 163.1 218.8 161.4 219 158.9Z" fill="#F7F8F8"/>
<path d="M228.701 149.5C228.701 149.2 229.001 148.9 229.201 148.7C229.901 148.1 230.901 147.3 232.201 146.4C233.601 145.5 234.601 144.9 235.301 144.6C236.001 144.3 236.801 144 237.901 143.6C238.801 143.3 239.601 143.2 240.301 143.3C241.301 143.4 242.201 142.6 242.301 141.6C242.401 140.6 241.701 139.6 240.701 139.6C239.601 139.5 238.301 139.6 237.001 140C235.801 140.4 234.701 140.8 233.901 141.2C233.101 141.6 231.901 142.3 230.401 143.2C228.901 144.2 227.701 145.1 226.901 145.9C225.401 147.3 225.201 148.7 225.301 149.7C225.401 150.7 226.101 151.4 227.001 151.5C227.101 151.5 227.201 151.5 227.201 151.5C228.001 151.4 228.801 150.5 228.701 149.5Z" fill="#F7F8F8"/>
<path d="M241.101 150.9C237.301 154 234.401 156 232.501 157C231.101 157.7 230.601 157.8 230.401 157.8C229.901 157.1 228.801 156.8 228.001 157.3C227.101 157.8 226.901 159 227.401 159.9C227.701 160.5 228.501 161.4 230.101 161.6C230.201 161.6 230.201 161.6 230.301 161.6C230.901 161.6 231.701 161.5 234.001 160.4C236.301 159.3 239.301 157.2 243.401 153.9C244.201 153.3 244.301 152.1 243.701 151.3C243.101 150.4 241.901 150.3 241.101 150.9Z" fill="#F7F8F8"/>
<path d="M268.001 118.1C266.901 118 265.301 118.3 263.101 118.8C261.201 119.3 259.601 119.6 258.401 119.7C257.401 119.8 256.701 120.7 256.801 121.8C256.901 122.7 257.601 123.4 258.501 123.5C258.601 123.5 258.701 123.5 258.801 123.5C260.201 123.4 261.801 123 263.901 122.5C266.101 122 267.301 121.9 267.801 121.9C268.801 121.9 269.601 121.1 269.701 120.1C269.801 119 269.001 118.2 268.001 118.1Z" fill="#F7F8F8"/>
<path d="M283.4 137.7C283 137.1 282.4 136.6 281.7 136.4C281.3 136.2 280.7 136.1 278.8 136.1C277.5 136.1 276.2 136.3 275.2 136.6C274.2 136.9 273.1 137.3 272 137.8C270.9 138.3 269.5 139 267.7 140.1C265.9 141.1 264.4 142.1 263.3 142.9C262.2 143.7 261 144.6 259.7 145.5C259.1 145.9 258.7 146.1 258.4 146.2C258.4 145.4 258.6 144.3 258.8 142.9C259.1 141.2 259.4 139.3 259.8 137.2C260.1 135.2 260.6 133.5 261.1 132C261.5 131 261 129.9 260.1 129.6C259.2 129.2 258.1 129.7 257.8 130.7C257.1 132.4 256.6 134.4 256.3 136.6C255.9 138.7 255.6 140.6 255.3 142.3C255 144.1 254.8 145.5 254.8 146.6C254.7 148.8 256 149.9 257.3 150.1C258.5 150.4 259.9 149.9 261.7 148.7C263 147.8 264.3 146.9 265.4 146.1C266.5 145.3 267.9 144.4 269.5 143.5C271.2 142.5 272.5 141.8 273.5 141.4C274.5 141 275.4 140.6 276.3 140.4C277.1 140.2 278 140.1 279 140.1C280.3 140.1 280.7 140.2 280.6 140.2C280.6 140.3 280.8 140.5 280.9 141C281 141.4 281.1 141.9 281 142.5C281 143.2 280.9 144.1 280.7 145.1C280.5 146.1 280.1 147.3 279.5 148.6C278.9 150 276.4 154.4 268 167.5C267.4 168.4 267.7 169.5 268.5 170.1C268.8 170.3 269.1 170.4 269.4 170.4C270 170.4 270.7 170.2 271 169.6C277.9 158.8 281.8 152.4 282.8 150.2C283.5 148.6 284 147.1 284.3 145.8C284.5 144.5 284.7 143.5 284.7 142.5C284.7 141.5 284.6 140.6 284.4 139.8C284.1 138.9 283.8 138.3 283.4 137.7Z" fill="#F7F8F8"/>
<path d="M329.7 135.8C325.7 140 322.5 143.2 320.1 145.4C318.5 146.9 316.8 148.5 315 150.1C313.3 151.7 311.6 153 310.1 154.2C308.7 155.3 307.3 156.1 306.1 156.7C304.8 157.4 304.1 157.4 303.7 157.4C303.3 157.4 303 157.3 302.8 157.2C302.7 157.2 302.6 157 302.5 156.6C302.4 156.2 302.4 155.4 302.5 154.1C302.6 152.9 302.7 151.5 302.9 149.8C303.1 148.1 303.3 146.4 303.5 144.7C303.7 143.1 304 141.6 304.2 140.3C304.5 139 304.7 137.7 305 136.6C305.3 135.5 305.6 134.2 306.1 132.6C306.8 130.2 306.9 129.3 306.8 128.8L306.7 127.9C306.6 126.9 305.9 126.1 304.9 126.1C303.2 126.1 303.1 127.6 302.9 129.1C302.9 129.4 302.9 129.7 303 130C302.9 130.4 302.8 130.8 302.6 131.5C302.1 133.1 301.7 134.5 301.4 135.6C301.1 136.8 300.8 138 300.5 139.4C300.2 140.8 299.9 142.4 299.7 144.1C299.5 145.8 299.3 147.5 299.1 149.3C298.9 151.1 298.8 152.5 298.7 153.7C298.6 155 298.6 156.1 298.7 157C298.9 158.2 299.4 159.2 300.2 159.9C300.9 160.5 301.9 160.9 303 161C303.1 161 303.2 161 303.3 161C304.4 161 305.8 160.7 307.3 159.9C308.7 159.2 310.2 158.3 311.8 157C313.4 155.8 315.1 154.4 316.9 152.7C318.7 151.1 320.4 149.5 322 148C324.4 145.7 327.7 142.5 331.7 138.2C332.4 137.5 332.4 136.3 331.7 135.5C331.6 135 330.4 135 329.7 135.8Z" fill="#F7F8F8"/>
<path d="M344.1 146.9C342.5 147.4 342.1 147.1 342.1 147.1C341.9 146.9 341.6 146.5 341.2 145.7C340.8 144.9 340.5 143.9 340.3 142.9C340 141.8 339.8 140.6 339.5 139.2C339.3 137.9 339.2 136.8 339.3 135.7C339.4 134.7 338.6 133.8 337.6 133.7C336.6 133.6 335.7 134.4 335.7 135.4C335.6 136.8 335.7 138.3 336 139.9C336.3 141.4 336.5 142.7 336.8 143.9C337.1 145.1 337.5 146.3 337.9 147.3C338.4 148.5 339 149.4 339.8 150C340.4 150.5 341.2 150.8 342.1 150.9C343 151 344 150.8 345.2 150.4C346.1 150.1 346.7 149 346.4 148C346 147.2 345 146.6 344.1 146.9Z" fill="#F7F8F8"/>
<path d="M361.601 131.1C360.801 130.5 359.701 130.6 359.101 131.5C358.501 132.3 358.701 133.5 359.501 134.1C360.301 134.7 360.901 135.6 361.301 136.6C361.401 136.9 361.801 138.6 361.101 145.3C361.001 146.3 361.701 147.3 362.701 147.4H362.801C363.801 147.5 364.601 146.7 364.701 145.7C365.501 138.4 365.101 136.2 364.701 135.1C363.901 133.5 362.901 132.1 361.601 131.1Z" fill="#F7F8F8"/>
<path d="M414 159.3C412.6 158.2 410.6 156.8 407.9 154.9C406.2 153.7 404.9 152.9 403.9 152.3C403 151.7 402 151.2 400.9 150.6C399.9 150.1 398.8 149.5 397.7 148.8C396.4 148.1 395.2 147.2 394 146.3C394 144.1 394 141.9 394 139.8C394 135.9 394.1 133 394.2 131.3C394.2 131 394.2 130.7 394.3 130.4C398.6 127.7 401.8 125.6 403.8 124.1C404.6 123.5 404.8 122.3 404.3 121.5C403.7 120.6 402.6 120.4 401.8 121C400.2 122.2 397.8 123.8 394.6 125.8C394.6 125.5 394.6 125.2 394.7 124.8C394.8 123.1 395 121.4 395.1 119.7C395.4 119.5 395.8 119.2 396.1 119C397.6 118 399 117.1 400.2 116.5C400.2 116.5 400.2 116.5 400.3 116.5C401.2 116.9 402.3 116.4 402.6 115.4C403.1 114 402.4 113.2 402.1 112.9C400.9 111.8 399.3 112.6 398.5 113.1C397.6 113.6 396.6 114.2 395.5 114.8C395.7 113.4 395.8 112.3 396 111.4C396.2 110.4 395.6 109.4 394.6 109.2C393.6 109 392.7 109.6 392.5 110.7C392.2 112.2 391.9 114.3 391.7 116.8C391.7 117 391.7 117.3 391.6 117.6C390.5 118.4 389.2 119.4 387.6 120.5L382.6 124.2C381.3 125.2 381.2 126.2 381.4 126.9C381.5 127.3 382 128.4 383.5 128.5C384.5 128.6 385.3 127.8 385.4 126.8L389.7 123.6C390.2 123.2 390.7 122.9 391.2 122.5C391.1 123.2 391.1 123.8 391 124.5C390.9 125.8 390.8 127.1 390.7 128.2C390 128.6 389.3 129.1 388.6 129.5C384.7 131.9 381.7 133.8 379.4 135.2L377 136.6C376.5 136.5 375.9 136.7 375.5 137.2L374.7 138C374.1 138.7 374 139.7 374.6 140.5C374.9 140.8 375.2 141.2 375.8 141.2C376.2 141.2 376.7 141.1 377.3 140.8L381.2 138.5C383.5 137.1 386.6 135.2 390.5 132.8C390.4 134.5 390.4 136.7 390.4 139.4C389.8 139.3 389.2 139.5 388.7 140C388 140.9 387.3 142 386.7 143.6C386.1 145 385.7 146.3 385.4 147.4C385.1 148.4 384.7 149.5 384.3 150.5C383.9 151.6 383.5 152.6 383 153.7C382.5 154.8 382.1 155.8 381.6 156.8C381.2 157.7 380.5 158.9 379.7 160.4C378.8 161.8 378.2 163 377.6 163.7C376.9 164.7 376.6 165.4 376.4 165.9C376.1 166.9 376.6 167.9 377.6 168.2C377.7 168.2 377.9 168.3 378 168.3C378.8 168.4 379.6 167.8 379.9 167C379.9 167 380 166.7 380.6 165.8C381.1 165 381.9 163.8 382.7 162.3C383.6 160.8 384.3 159.5 384.8 158.4C385.3 157.4 385.8 156.3 386.3 155.2C386.8 154.1 387.2 152.9 387.6 151.8C388 150.7 388.4 149.6 388.7 148.5C389 147.5 389.4 146.3 389.9 145C390 144.7 390.1 144.5 390.2 144.3C390.2 144.8 390.2 145.2 390.2 145.7L390.1 145.8C389.6 146.5 389.6 147.6 390.2 148.2C390.2 149.5 390.2 150.9 390.2 152.2C390.2 156.4 390.2 160.2 390.3 163.5C390.3 166.8 390.4 169.1 390.5 170.5C390.6 171.9 390.7 173.4 391 175.2C391.3 177 391.5 178.3 391.8 179.2C392.1 179.9 392.5 180.8 393.4 181.1C393.6 181.2 393.8 181.2 394 181.2C394.3 181.2 394.7 181.2 395 181C396 180.5 396.4 179.4 396.6 178.2C396.8 177.3 397 175.3 396.8 168.9C396.8 167.9 395.9 167 394.9 167.1C394.6 167.1 394.3 167.2 394 167.4C394 166.3 394 165 393.9 163.5C393.9 160.2 393.8 156.5 393.8 152.2C393.8 151.8 393.8 151.4 393.8 150.9C394.4 151.3 395.1 151.7 395.7 152.1C396.9 152.8 398 153.4 399.1 154C400.1 154.5 401 155.1 401.9 155.6C402.8 156.1 404.1 157 405.7 158.1C408.3 159.9 410.3 161.3 411.6 162.4C411.9 162.6 412.2 162.7 412.5 162.8C413.1 162.8 413.7 162.6 414.1 162C414.9 161.1 414.8 159.9 414 159.3Z" fill="#F7F8F8"/>
<path d="M452.101 159C451.201 158.4 450.301 157.9 449.401 157.4C448.501 156.9 447.101 156.2 445.201 155.2C443.401 154.3 442.101 153.6 441.501 153.2C440.901 152.8 440.301 152.4 439.901 152C439.501 151.6 439.101 151.2 438.801 150.8C438.601 150.5 438.501 150.2 438.501 149.8C438.601 148.8 438.001 147.8 437.001 147.7C436.501 147.6 436.001 147.8 435.601 148.1C435.601 148.1 435.601 148.1 435.601 148C436.301 146.6 437.101 145.1 438.001 143.6C438.501 142.7 438.201 141.5 437.401 141C436.801 140.7 436.201 140.7 435.701 140.9C435.701 138.8 435.801 137.1 435.801 135.7C436.801 135.2 437.801 134.8 438.701 134.4C442.101 132.9 444.701 131.7 446.301 130.8C447.201 130.3 447.501 129.2 447.101 128.3C446.601 127.4 445.601 127 444.701 127.5C443.601 128.1 442.001 128.9 439.901 129.8C440.701 128.9 441.401 128 442.101 127.1C443.001 126 443.901 125 444.701 124.1C445.901 122.8 447.501 121.4 449.501 119.7C450.301 119.1 450.401 117.9 449.801 117.1C449.201 116.3 448.001 116.1 447.301 116.8C445.201 118.5 443.501 120.1 442.201 121.5C441.301 122.4 440.401 123.5 439.401 124.8C438.501 126 437.401 127.2 436.301 128.5C436.201 128.6 436.101 128.7 436.001 128.8C436.001 128.6 436.001 128.4 436.001 128.1C436.001 125.1 436.101 122.5 436.101 120.2C436.101 118.7 436.201 117.2 436.301 115.8C437.101 115.4 437.801 115.1 438.201 114.9C439.301 114.4 440.101 114 440.801 113.8C440.901 113.8 441.001 113.7 441.001 113.7C441.801 114 442.701 113.7 443.101 112.9C443.601 112 443.401 110.9 442.501 110.3C441.301 109.5 439.901 110 439.501 110.2C438.801 110.5 437.901 110.9 436.701 111.4C436.701 111.4 436.601 111.4 436.601 111.5C436.701 110.6 436.701 110 436.801 109.6C436.901 109.4 437.001 109.1 437.001 108.8L437.101 107.5C437.201 106.5 436.501 105.7 435.501 105.5C434.601 105.3 433.701 106.1 433.501 107.1L433.301 108.6C433.201 109.4 433.001 111 432.901 113.3V113.4C431.901 113.9 430.801 114.5 429.501 115.2C425.801 117.2 423.501 118.5 422.701 119C421.501 119.8 420.701 120.8 420.401 121.9C420.101 122.9 420.701 123.9 421.601 124.2C421.701 124.2 421.801 124.3 422.001 124.3H422.101C421.501 125.2 421.101 126.2 421.001 127.3C420.901 128.4 421.101 129.4 421.601 130.3C422.101 131.1 422.701 131.9 423.501 132.4C424.201 132.9 425.101 133.2 426.301 133.3C427.201 133.4 428.301 133.3 429.501 133.2C430.501 133.1 431.201 132.1 431.101 131.1C431.001 130.1 430.101 129.3 429.101 129.5C426.301 129.9 425.601 129.4 425.501 129.4C425.201 129.2 424.901 128.9 424.701 128.6C424.601 128.4 424.501 128.1 424.501 127.8C424.601 127.2 424.801 126.6 425.401 126.1C426.101 125.4 426.101 124.2 425.401 123.4C425.001 123 424.401 122.8 423.901 122.9C424.001 122.7 424.201 122.6 424.501 122.4C425.001 122.1 426.601 121.1 431.101 118.7C431.601 118.4 432.101 118.2 432.601 117.9C432.601 118.7 432.501 119.5 432.501 120.3C432.401 122.6 432.401 125.2 432.401 128.3C432.401 129.9 432.401 131.3 432.301 132.5C431.801 132.9 431.301 133.3 430.801 133.7C430.201 134.2 429.401 134.7 428.501 135.4C426.501 136.4 424.501 137.3 422.701 138.3C420.301 139.5 418.201 140.6 416.401 141.6C413.401 143.2 411.401 144.6 410.201 145.7C409.501 146.4 409.401 147.6 410.101 148.4C410.401 148.8 410.801 149 411.301 149C411.801 149 412.301 148.9 412.701 148.5C413.301 147.9 414.801 146.8 418.101 145C419.901 144 421.901 143 424.301 141.8C424.501 141.7 424.801 141.6 425.001 141.4C425.101 141.4 425.301 141.5 425.401 141.5C425.801 141.5 426.101 141.4 426.401 141.2C427.901 140.3 429.201 139.5 430.301 138.8C430.801 138.6 431.201 138.3 431.701 138.1C431.901 138 432.001 138 432.201 137.9C432.201 139.4 432.101 141.1 432.101 143.2C432.101 144.7 432.101 146.1 432.101 147.5C431.401 148.8 430.801 150.1 430.201 151.4C429.301 153.3 428.401 155.2 427.301 157.1C426.301 159 425.501 160.3 425.001 161.2C424.501 162 423.901 162.9 423.101 163.9C422.101 165.3 421.801 165.7 421.601 166.1L421.501 166.3C421.001 167.2 421.301 168.3 422.101 168.9C422.301 169.1 422.601 169.1 422.901 169.2C423.601 169.3 424.201 168.9 424.601 168.3L424.801 167.9C424.901 167.7 425.301 167.1 426.001 166.2C426.801 165.1 427.401 164.2 428.001 163.3C428.601 162.4 429.401 161 430.501 159C431.201 157.8 431.801 156.6 432.401 155.4C432.501 157.4 432.601 159 432.601 160.1C432.701 161.6 432.901 163.4 433.101 165.4C433.401 167.5 433.701 169.5 434.001 171.3C434.401 173.3 434.601 174.9 436.101 175C436.201 175 436.301 175 436.301 175C437.101 175 437.901 174.4 438.101 173.2C438.301 172.1 438.001 170.6 437.401 168.1C437.301 167.8 437.201 167.5 437.001 167.3C436.901 166.5 436.801 165.7 436.701 164.8C436.501 162.8 436.301 161.1 436.201 159.7C436.101 158.3 436.001 156.1 435.901 153.2C436.001 153.4 436.101 153.5 436.201 153.7C436.601 154.3 437.201 154.8 437.701 155.4C438.301 155.9 439.001 156.5 439.801 157C440.601 157.5 441.901 158.2 443.901 159.2C445.801 160.1 447.101 160.8 448.001 161.3C448.901 161.8 449.701 162.3 450.501 162.8C451.201 163.3 452.601 164.4 454.801 167C455.101 167.4 455.601 167.6 456.001 167.6C456.501 167.6 456.901 167.5 457.301 167.1C458.001 166.4 458.101 165.2 457.501 164.4C455.101 161.6 453.501 160 452.101 159Z" fill="#F7F8F8"/>
<path d="M495.6 153.7C490.6 156.2 487 158 485 158.8C483.6 159.4 482.2 159.9 480.8 160.3C479.6 160.7 478.5 160.9 477.6 160.8C476.7 160.8 476 160.7 475.4 160.5C475.3 160.5 475.2 160.4 475.2 160.4C475.2 160.3 475.2 160.1 475.2 159.9C475.2 159.4 475.4 158.8 475.5 158.2C475.7 157.6 475.9 156.9 476.3 156.2C476.6 155.4 477 154.7 477.5 153.9C477.9 153.3 478.2 152.7 478.6 152.2C478.8 152.1 478.9 152 479.1 152C480.4 151.4 481.5 150.7 482.5 150C483.5 149.3 484.3 148.6 484.9 147.8C485.5 147 485.9 146.4 486.2 145.7C486.7 144.4 486.2 143.6 485.9 143.3C485.6 142.9 484.9 142.3 483.6 142.7C482.8 142.9 481.9 143.5 480.6 144.7C479.5 145.7 478.7 146.5 478 147.1C477.4 147.7 476.9 148.4 476.3 149.1C476 149.2 475.9 149.2 475.9 149.2C475.6 149.2 475.2 149.1 474.3 148.8C473.8 148.6 473.5 148.4 473.1 147.9C472.7 147.4 472.5 146.8 472.3 146C472.1 145.2 472.1 144.4 472.1 143.5C472.2 142.6 472.3 141.6 472.5 140.6C472.6 140.1 472.8 139.6 473 139.1C474.8 138.5 476.9 137.7 479.2 136.7C483.1 135.2 484 134.8 484.1 134.8C485.1 134.5 485.6 133.5 485.4 132.5C485.1 131.5 484.2 130.9 483.2 131.2C483 131.3 482.6 131.4 477.9 133.2C477 133.5 476.2 133.9 475.4 134.2C475 133.4 474.1 133 473.2 133.3C472.3 133.6 471.4 134.5 470.4 136.1C470.3 136.1 470.3 136.1 470.2 136.2C467.6 137.1 466.8 137.3 466.5 137.3C465.9 137.4 465.6 137.4 465.6 137.4C464.7 137.5 463.9 138.3 463.9 139.3C463.9 140.3 464.6 141.1 465.6 141.2L466.3 141.3C466.7 141.3 467.1 141.2 467.4 141C467.7 140.9 468.1 140.8 468.6 140.7C468.4 141.6 468.3 142.5 468.2 143.4C468.1 144.6 468.2 145.9 468.5 147.1C468.8 148.4 469.3 149.5 470 150.4C470.8 151.4 471.7 152.1 472.9 152.5C473.2 152.6 473.4 152.7 473.7 152.7C473.3 153.4 473 154.1 472.7 154.7C472.3 155.6 472 156.5 471.7 157.3C471.5 158.1 471.3 158.9 471.3 159.6C471.2 160.6 471.3 161.4 471.7 162.2C472.1 163.1 472.9 163.8 474.1 164.2C474.7 164.4 475.5 164.5 476.3 164.6C476.6 164.6 476.9 164.6 477.2 164.6C478.4 164.6 479.9 164.4 481.5 163.9C483 163.4 484.5 162.9 486 162.3C488.2 161.4 491.8 159.7 496.9 157.1C497.8 156.6 498.2 155.5 497.7 154.6C497.6 153.7 496.5 153.3 495.6 153.7Z" fill="#F7F8F8"/>
<path d="M527.899 138.2C526.999 138.1 526.099 138.2 525.299 138.3C524.599 138.4 523.699 138.6 522.799 138.8C521.899 139 520.999 139.3 519.999 139.7C518.999 140.1 518.099 140.5 517.099 140.9C516.099 141.3 515.099 141.8 514.099 142.4C513.099 142.9 512.099 143.5 511.099 144.1C510.099 144.7 508.799 145.7 507.299 146.9C505.799 148.1 504.299 149.3 503.099 150.6C502.399 151.3 502.299 152.5 502.999 153.3C503.699 154.1 504.799 154.1 505.499 153.4C506.699 152.3 507.999 151.1 509.399 150C510.799 148.9 511.999 148 512.899 147.4C513.799 146.8 514.699 146.3 515.699 145.8C516.599 145.3 517.499 144.9 518.399 144.4C519.299 144 520.199 143.6 521.099 143.3C521.999 143 522.799 142.7 523.599 142.5C524.399 142.3 524.999 142.2 525.699 142.1C526.299 142 526.899 142 527.599 142C527.699 142 527.699 142 527.799 142C527.899 142.2 527.899 142.5 527.899 142.8C527.899 143.4 527.799 143.8 527.699 144.2C527.599 144.6 527.399 145.1 527.099 145.6C526.799 146.2 526.199 146.9 525.499 147.8C524.399 149.1 522.899 150.8 520.899 152.8C520.199 153.5 520.199 154.7 520.899 155.5C521.199 155.8 521.599 156 522.099 156.1C522.599 156.1 523.099 156 523.499 155.6C525.599 153.5 527.199 151.7 528.299 150.3C529.099 149.3 529.799 148.4 530.199 147.6C530.699 146.8 530.999 146 531.199 145.3C531.399 144.6 531.499 143.8 531.499 142.9C531.499 141.9 531.299 140.9 530.899 140.1C530.699 139.4 529.799 138.4 527.899 138.2Z" fill="#F7F8F8"/>
<path d="M553.101 149.7C552.601 149.7 552.201 149.9 552.001 150.3C551.301 149.9 550.301 149.4 549.101 148.8C547.501 148 546.201 147.3 545.101 146.7C544.001 146.1 543.501 145.6 543.201 145.3C543.401 145.1 543.801 144.6 545.301 143.4C546.601 142.3 548.101 140.9 550.001 139.2C552.201 137.2 553.201 136.8 553.501 136.7C554.501 136.5 555.101 135.5 554.901 134.5C554.701 133.5 553.801 132.8 552.801 133C551.401 133.3 549.801 134.3 547.601 136.3C545.801 138 544.201 139.3 543.001 140.4C541.201 141.9 540.701 142.5 540.401 142.8C539.901 143.5 539.501 144.1 539.401 144.8C539.101 146.3 540.201 147.4 540.501 147.8C541.101 148.5 542.001 149.1 543.301 149.9C544.401 150.6 545.801 151.3 547.501 152.1C549.101 152.9 550.201 153.5 550.901 153.9C551.501 154.2 552.001 154.4 552.401 154.4C553.001 154.4 553.501 154.3 553.801 154C554.401 153.6 555.001 152.9 554.901 151.3C555.001 150.3 554.101 149.6 553.101 149.7Z" fill="#F7F8F8"/>
<path d="M595.001 136.2C594.801 135.4 594.501 134.7 594.101 134.1C593.701 133.5 593.301 132.9 592.701 132.5C592.201 132.1 591.601 131.7 590.901 131.5C590.401 131.3 589.601 131.1 587.101 131C585.301 130.9 583.601 131.1 582.101 131.5C580.601 131.9 578.901 132.6 576.901 133.6C576.401 133.9 575.801 134.2 575.401 134.4C575.601 134.1 575.901 133.7 576.101 133.4C577.401 131.7 579.001 129.3 581.001 126.3C583.101 123.2 584.401 121.2 585.101 120C585.901 118.5 586.301 117.4 586.301 116.4C586.301 115.3 585.901 114.7 585.501 114.3C585.101 114 584.501 113.6 583.501 113.7C582.801 113.8 581.901 114 580.801 114.5C579.801 114.9 578.401 115.6 576.601 116.7C574.801 117.7 573.201 118.8 571.701 119.9C569.901 121.2 568.901 122.3 568.501 123.4C568.101 124.4 568.501 125.4 569.401 125.8C570.301 126.2 571.401 125.8 571.801 124.8C571.801 124.8 572.101 124.2 573.801 122.9C575.201 121.9 576.701 120.9 578.401 119.9C579.901 119 581.101 118.4 582.001 118C581.401 119.1 580.101 121.1 578.101 124.1C576.101 127.1 574.501 129.4 573.201 131.1C572.001 132.8 570.601 134.6 569.001 136.6C567.501 138.6 566.401 139.9 565.801 140.6C564.901 141.6 564.701 142 564.501 142.2L564.301 142.5C563.801 143.3 563.901 144.3 564.601 145C565.301 145.6 566.301 145.6 567.001 145C567.101 145 567.401 144.6 568.201 144C568.901 143.4 569.701 142.7 570.701 142C571.701 141.2 572.801 140.5 574.001 139.7C575.201 138.9 576.701 138 578.501 137.1C580.301 136.2 581.701 135.6 582.901 135.3C584.101 135 585.401 134.9 586.901 134.9C589.001 135 589.501 135.1 589.601 135.1C589.901 135.2 590.101 135.4 590.401 135.5C590.601 135.7 590.801 135.9 591.001 136.2C591.201 136.5 591.301 136.8 591.401 137.2C591.401 137.4 591.601 138 591.601 139.9C591.601 141.3 591.601 142.5 591.401 143.3C591.301 144.1 591.101 144.9 590.801 145.7C590.501 146.5 590.201 147.4 589.801 148.3C589.501 148.8 589.301 149.4 589.001 149.9C586.101 150.2 584.001 150.6 582.701 151C581.701 151.3 580.801 151.7 579.801 152.1C578.901 152.5 577.901 153 577.101 153.6C576.201 154.1 575.401 154.8 574.601 155.4C573.801 156.1 573.101 156.7 572.501 157.4C571.801 158.2 571.301 159 570.901 159.9C570.501 160.8 570.301 161.9 570.401 163.2C570.401 164.4 570.601 165.6 571.401 166.3C571.901 166.8 572.601 167 573.301 167.1H573.401C573.901 167.1 574.701 167 575.901 166.8C577.001 166.6 578.001 166.3 578.701 166C579.401 165.7 580.201 165.3 580.901 164.8C581.601 164.3 582.401 163.8 583.101 163.2C583.901 162.6 584.701 161.8 585.401 161.1C586.101 160.4 586.801 159.5 587.601 158.7C588.301 157.8 589.001 156.9 589.701 156C590.301 155.1 590.901 154.2 591.401 153.3C591.701 153 591.901 152.7 592.001 152.3C592.401 151.6 592.801 150.8 593.101 150.1C593.601 149.1 594.001 148.1 594.301 147.1C594.601 146.1 594.901 145 595.001 144C595.101 143 595.201 141.7 595.201 140C595.301 138.2 595.201 137 595.001 136.2ZM585.001 156C584.301 156.8 583.701 157.6 583.001 158.3C582.401 159 581.701 159.6 581.101 160.1C580.401 160.6 579.801 161.1 579.201 161.5C578.601 161.9 578.001 162.2 577.501 162.4C577.001 162.6 576.201 162.8 575.401 163C574.901 163.1 574.501 163.2 574.201 163.2C574.201 163.1 574.201 163 574.201 162.9C574.201 162.2 574.301 161.7 574.401 161.3C574.601 160.8 574.901 160.4 575.301 159.9C575.801 159.3 576.401 158.8 577.001 158.2C577.601 157.7 578.301 157.2 579.001 156.7C579.701 156.2 580.501 155.8 581.301 155.5C582.101 155.1 583.001 154.8 583.801 154.6C584.301 154.4 585.101 154.3 586.501 154C586.001 154.7 585.501 155.4 585.001 156Z" fill="#F7F8F8"/>
<path d="M155.101 167.1C152.001 167.5 146.801 167.8 139.601 168.2C135.101 168.4 131.501 168.6 128.801 168.7L126.001 168.8C125.601 168.5 125.001 168.4 124.401 168.6L123.301 169C122.401 169.3 121.901 170.2 122.001 171.1C122.101 171.5 122.201 172 122.701 172.3C123.001 172.5 123.501 172.7 124.201 172.6L128.701 172.5C131.401 172.4 135.001 172.2 139.601 172C146.901 171.6 152.201 171.2 155.401 170.9C156.401 170.8 157.201 169.9 157.101 168.8C156.901 167.7 156.101 167 155.101 167.1Z" fill="#F7F8F8"/>
<path d="M176 41.5998V46.3998L176.3 46.4998L185.5 43.0998V42.1998C183.3 42.1998 181.9 41.8998 181.3 41.3998C180.7 40.8998 180.4 39.7998 180.4 38.2998V0.399805L180.1 0.299805C177.7 1.1998 174.6 2.0998 170.8 3.0998V3.9998H172.6C174.8 3.9998 175.9 5.1998 175.9 7.4998V18.3998C173.6 16.1998 171 14.9998 168.3 14.9998C164.6 14.9998 161.3 16.5998 158.6 19.8998C155.9 23.1998 154.5 26.9998 154.5 31.4998C154.5 36.2998 155.6 39.9998 157.9 42.5998C160.2 45.1998 163.1 46.4998 166.6 46.4998C170.7 46.4998 173.8 44.7998 176 41.5998ZM169.2 43.4998C166.5 43.4998 164.1 42.1998 162.1 39.5998C160.1 36.9998 159.2 33.5998 159.2 29.1998C159.2 25.3998 160.1 22.2998 162 20.0998C163.9 17.7998 166.1 16.6998 168.6 16.6998C170.3 16.6998 171.9 17.3998 173.4 18.7998C174.9 20.1998 175.8 21.8998 176 24.0998V38.3998C175.7 39.6998 174.9 40.8998 173.5 41.8998C172.2 42.9998 170.7 43.4998 169.2 43.4998Z" fill="#F7F8F8"/>
<path d="M223.399 43.3C225.999 41.2 227.699 38.5 228.699 35.4L227.599 34.9C224.499 40 220.699 42.5 216.199 42.5C212.999 42.5 210.399 41.2 208.499 38.5C206.599 35.8 205.599 32 205.599 27H227.499C227.499 23.2 226.399 20.3 224.299 18.2C222.199 16.1 219.299 15 215.799 15C212.099 15 208.899 16.5 206.199 19.4C203.499 22.3 202.199 26.4 202.199 31.5C202.199 36.2 203.299 39.8 205.599 42.5C207.899 45.2 210.899 46.5 214.599 46.5C217.899 46.5 220.799 45.4 223.399 43.3ZM214.199 17.1C218.399 17.1 220.899 19.9 221.699 25.4H205.699C206.699 19.9 209.499 17.1 214.199 17.1Z" fill="#F7F8F8"/>
<path d="M268.801 50.7998H241.301V54.1998H268.801V50.7998Z" fill="#F7F8F8"/>
<path d="M299.2 45C296.7 45 295 44.6 294 43.9C293 43.2 292.5 41.5 292.5 38.9V17.5H301.2V15.9H292.5V7.9C292.5 3.7 294.1 1.6 297.2 1.6C298.1 1.6 299.1 2.1 300 3.1C302.1 5.4 303.5 6.5 304.1 6.5C305.5 6.5 306.2 5.7 306.2 4.1C306.2 3 305.5 2 304.2 1.2C302.9 0.4 301.3 0 299.5 0C291.8 0 288 4.7 288 14.1V16H282V17.6H288V38.9C288 41.4 287.6 43.1 286.7 43.9C285.8 44.7 284.2 45.1 281.9 45.1V46H299.2V45Z" fill="#F7F8F8"/>
<path d="M341 38.8V25.7C341 21.4 340.2 18.5 338.7 17.1C337.2 15.7 334.8 15 331.6 15C328.4 15 325.8 15.8 323.8 17.3C321.8 18.8 320.8 20.5 320.8 22.5C320.8 24.4 321.7 25.4 323.6 25.4C325.3 25.4 326.1 24.6 326.1 22.9C326.1 22.8 326.1 22.6 326 22.4C325.9 21.5 325.8 20.7 325.8 20C325.8 18.9 326.4 18 327.5 17.3C328.6 16.6 329.8 16.3 331 16.3C334.8 16.3 336.7 18.3 336.7 22.2V26.1C329.4 29 324.7 31.3 322.6 33C320.5 34.8 319.5 37 319.5 39.6C319.5 41.7 320.2 43.4 321.6 44.7C323 46 324.6 46.6 326.5 46.6C329.3 46.6 332.8 44.8 336.8 41.3C336.8 44.8 338.1 46.6 340.6 46.6C342.7 46.6 344.6 45.5 346.5 43.2V41.6C345.2 42.6 344.2 43.2 343.4 43.2C341.8 43.1 341 41.7 341 38.8ZM336.7 37.6C336.7 39.4 335.9 40.7 334.4 41.7C332.9 42.7 331.2 43.2 329.3 43.2C326.2 43.2 324.7 41.3 324.7 37.5C324.7 33.7 328.7 30.4 336.7 27.8V37.6Z" fill="#F7F8F8"/>
<path d="M383.9 40.2001L384 46.4001C385 46.0001 386.4 45.5001 388.2 44.8001C389.5 44.3001 391 43.9001 392.7 43.4001V42.6001C389.6 42.6001 388 41.3001 388 38.6001V15.6001H378V16.6001C381.7 16.6001 383.5 18.1001 383.5 21.0001V36.3001C383.5 38.1001 382.7 39.6001 381.1 40.8001C379.5 42.0001 377.8 42.6001 376.1 42.6001C372.4 42.6001 370.6 40.9001 370.6 37.5001V15.6001H361.4V16.4001C364.6 16.4001 366.2 17.9001 366.2 20.9001V37.8001C366.2 43.6001 368.6 46.5001 373.5 46.5001C376.5 46.5001 380 44.4001 383.9 40.2001Z" fill="#F7F8F8"/>
<path d="M412 3.9C414.3 3.9 415.4 5.3 415.4 8V40C415.4 43.3 413.5 45 409.7 45V45.9H425.4V45C421.7 45 419.9 43.4 419.9 40.2V0.1L419.6 0C414.8 1.5 411.5 2.5 409.6 3V3.9L411.9 3.8H412V3.9Z" fill="#F7F8F8"/>
<path d="M454.8 43.0999C452.2 43.0999 450.8 41.0999 450.8 36.9999V17.4999H458.1V15.8999H450.8V7.7999C450.8 7.1999 450.6 6.8999 450.2 6.8999C449.7 7.8999 449 9.1999 448.1 10.9999C447.1 12.9999 445.2 14.7999 442.6 16.3999C442.2 16.5999 442 16.8999 442 17.0999L442.3 17.4999H446.4V37.9999C446.4 43.6999 448.2 46.4999 451.9 46.4999C455.3 46.4999 457.9 44.7999 459.7 41.3999L458.8 40.6999C457.6 42.2999 456.2 43.0999 454.8 43.0999Z" fill="#F7F8F8"/>
</g>
<defs>
<clipPath id="clip0_2820_6931">
<rect width="595.3" height="181.9" fill="white"/>
</clipPath>
</defs>
</svg>
