<svg width="512" height="336" viewBox="0 0 512 336" fill="none" xmlns="http://www.w3.org/2000/svg">
<g>
<path d="M0 0V52.377C40.301 52.438 77.768 60.179 110.13 72.961C116.192 75.356 122.071 77.926 127.766 80.664C140.72 74.438 154.665 69.067 169.448 64.692C195.965 56.874 225.159 52.377 255.998 52.377C296.483 52.377 334.115 60.133 366.603 72.961C372.665 75.356 378.548 77.926 384.235 80.664C397.193 74.438 411.138 69.067 425.921 64.692C452.304 56.92 481.334 52.422 512.001 52.377V0H0Z" fill="black"/>
<path d="M320.59 198.62C320.598 211.853 324.583 224.001 331.449 234.19C338.314 244.356 348.067 252.45 359.465 257.261C367.073 260.481 375.403 262.256 384.234 262.264C397.476 262.248 409.63 258.271 419.808 251.402C429.975 244.532 438.068 234.787 442.887 223.382C446.1 215.778 447.878 207.448 447.882 198.621C447.882 192.31 446.567 185.617 443.793 178.61C441.028 171.603 436.798 164.29 431.129 157.023C420.332 143.132 404.287 129.447 384.23 117.934C368.855 126.777 355.816 136.859 345.722 147.377C334.971 158.537 327.597 170.135 323.807 180.928C321.63 187.114 320.59 193.005 320.59 198.62Z" fill="black"/>
<path d="M446.535 124.496C459.883 138.403 470.023 153.663 475.787 169.949C479.065 179.243 480.882 188.889 480.882 198.62C480.894 218.57 474.786 237.25 464.367 252.656C453.952 268.078 439.227 280.309 421.859 287.661C410.289 292.557 397.537 295.264 384.235 295.264C364.278 295.264 345.589 289.168 330.183 278.741C314.77 268.322 302.538 253.605 295.191 236.24C290.291 224.666 287.583 211.914 287.587 198.62C287.587 184.017 291.668 169.659 298.671 156.249C305.685 142.809 315.623 130.195 327.862 118.629C334.226 112.631 341.225 106.918 348.786 101.509C343.734 99.658 338.547 97.922 333.219 96.345C309.705 89.415 283.616 85.377 255.997 85.377C222.121 85.361 190.541 91.465 163.198 101.501C173.188 108.631 182.196 116.341 190.066 124.496C203.407 138.403 213.55 153.663 219.314 169.949C222.596 179.243 224.413 188.889 224.413 198.62C224.417 218.57 218.317 237.25 207.894 252.656C197.475 268.078 182.754 280.309 165.39 287.661C153.816 292.557 141.064 295.264 127.766 295.264C107.805 295.264 89.12 289.168 73.714 278.741C58.297 268.322 46.066 253.605 38.718 236.24C33.818 224.666 31.114 211.914 31.118 198.62C31.118 184.017 35.195 169.659 42.194 156.249C49.212 142.809 59.15 130.195 71.393 118.629C77.753 112.631 84.752 106.918 92.314 101.509C87.257 99.658 82.078 97.922 76.747 96.345C53.367 89.461 27.446 85.422 0 85.377V335.936H512V85.377C478.304 85.422 446.888 91.512 419.671 101.501C429.66 108.631 438.668 116.342 446.535 124.496Z" fill="black"/>
<path d="M64.1182 198.62C64.1262 211.853 68.1112 224.001 74.9772 234.19C81.8422 244.356 91.5952 252.45 102.997 257.261C110.601 260.481 118.931 262.256 127.766 262.264C141 262.248 153.158 258.271 163.336 251.402C173.506 244.532 181.596 234.787 186.414 223.382C189.631 215.778 191.409 207.448 191.413 198.621C191.413 192.31 190.09 185.617 187.324 178.61C184.555 171.603 180.325 164.29 174.661 157.023C163.859 143.132 147.811 129.447 127.758 117.934C112.382 126.777 99.3442 136.859 89.2542 147.377C78.5032 158.537 71.1292 170.135 67.3392 180.928C65.1592 187.114 64.1182 193.005 64.1182 198.62Z" fill="black"/>
</g>
</svg>
