<svg width="403" height="587" viewBox="0 0 403 587" fill="none" xmlns="http://www.w3.org/2000/svg">
  <path class="hex-item-left" d="M149.364 322.145L149.364 408.434L74.6821 451.579L-3.61753e-05 408.434L-3.24035e-05 322.145L74.6821 279L149.364 322.145Z" fill="white"/>
  <g class="hex-item-left" clip-path="url(#clip0_2240_8298)">
  <path d="M151.735 418L78.7346 459.924L78.3643 544.424L150.994 587L223.994 545.076L224.364 460.576L151.735 418ZM215.384 536.979C215.384 538.794 212.468 541.446 211.82 541.819C211.171 542.191 154.095 574.949 153.54 575.321C152.984 575.693 150.392 575.833 149.327 575.228C148.263 574.623 91.5107 541.819 90.3072 540.841C89.1036 539.864 88.039 538.654 87.9001 537.165C87.7612 535.676 87.8075 469.37 87.8075 468.207C87.7612 467.044 89.3814 464.903 90.3535 463.786C95.0288 461.088 148.309 430.563 149.605 429.772C150.901 428.981 152.938 429.26 153.679 429.679C154.419 430.098 212.236 463.879 213.717 464.624C215.199 465.415 215.708 467.928 215.708 468.858C215.708 469.789 215.43 535.165 215.384 536.979Z" fill="white" fill-opacity="0.5"/>
  <path d="M206.635 484.26L107.759 541.679L114.147 545.355L206.728 491.565L206.635 484.26Z" fill="" fill-opacity="0.5"/>
  <path d="M206.913 502.267L123.451 550.706L129.839 554.382L207.005 509.573L206.913 502.267Z" fill="white" fill-opacity="0.5"/>
  <path d="M207.144 520.275L139.189 559.733L145.578 563.409L207.283 527.58L207.144 520.275Z" fill="white" fill-opacity="0.5"/>
  </g>
  <path class="hex-item-left" d="M229.729 270.434L229.729 184.145L155.046 141L80.3642 184.145L80.3642 270.434L155.046 313.579L229.729 270.434ZM95.534 261.494L95.534 193.085L155.046 158.685L214.364 193.085L214.364 261.494L155.046 295.699L95.534 261.494Z" fill="white"/>
  <path class="hex-item-left" d="M308.729 129.434L308.729 43.1447L234.046 -3.26446e-06L159.364 43.1447L159.364 129.434L234.046 172.579L308.729 129.434ZM174.534 120.494L174.534 52.0845L234.046 17.6854L293.364 52.0845L293.364 120.494L234.046 154.699L174.534 120.494Z" fill="white"/>
  <path class="hex-item-left" d="M316.796 221.5L316.796 178.5L279.58 157L242.364 178.5L242.364 221.5L279.58 243L316.796 221.5ZM249.924 217.045L249.924 182.955L279.58 165.813L309.14 182.955L309.14 217.045L279.58 234.09L249.924 217.045Z" fill="white"/>
  <path class="hex-item-left" d="M277.796 293.5L277.796 250.5L240.58 229L203.364 250.5L203.364 293.5L240.58 315L277.796 293.5ZM210.924 289.045L210.924 254.955L240.58 237.813L270.14 254.955L270.14 289.045L240.58 306.09L210.924 289.045Z" fill="white" fill-opacity="0.5"/>
  <path class="hex-item-left" d="M234.796 364.5L234.796 321.5L197.58 300L160.364 321.5L160.364 364.5L197.58 386L234.796 364.5ZM167.924 360.045L167.924 325.955L197.58 308.813L227.14 325.955L227.14 360.045L197.58 377.09L167.924 360.045Z" fill="white"/>
  <path class="hex-item-left" d="M401.796 364.5L401.796 321.5L364.58 300L327.364 321.5L327.364 364.5L364.58 386L401.796 364.5ZM334.924 360.045L334.924 325.955L364.58 308.813L394.14 325.955L394.14 360.045L364.58 377.09L334.924 360.045Z" fill="white" fill-opacity="0.5"/>
  <path class="hex-item-left" d="M358.796 292.5L358.796 249.5L321.58 228L284.364 249.5L284.364 292.5L321.58 314L358.796 292.5ZM291.924 288.045L291.924 253.955L321.58 236.813L351.14 253.955L351.14 288.045L321.58 305.09L291.924 288.045Z" fill="white"/>
  <path class="hex-item-left" d="M318.796 364.5L318.796 321.5L281.58 300L244.364 321.5L244.364 364.5L281.58 386L318.796 364.5ZM251.924 360.045L251.924 325.955L281.58 308.813L311.14 325.955L311.14 360.045L281.58 377.09L251.924 360.045Z" fill="white" fill-opacity="0.5"/>
  <path class="hex-item-left" d="M274.796 437.5L274.796 394.5L237.58 373L200.364 394.5L200.364 437.5L237.58 459L274.796 437.5ZM207.924 433.045L207.924 398.955L237.58 381.813L267.14 398.955L267.14 433.045L237.58 450.09L207.924 433.045Z" fill="white" fill-opacity="0.5"/>
  <path class="hex-item-left" d="M402.796 221.5L402.796 178.5L365.58 157L328.364 178.5L328.364 221.5L365.58 243L402.796 221.5ZM335.924 217.045L335.924 182.955L365.58 165.813L395.14 182.955L395.14 217.045L365.58 234.09L335.924 217.045Z" fill="white" fill-opacity="0.5"/>
  <defs>
    <clipPath id="clip0_2240_8298">
      <rect width="146" height="169" fill="white" transform="translate(78.3643 418)"/>
    </clipPath>
  </defs>
</svg>
