<svg width="351" height="581" viewBox="0 0 351 581" fill="none" xmlns="http://www.w3.org/2000/svg">
  <path d="M350.363 320.434L350.363 234.145L275.681 191L200.999 234.145L200.999 320.434L275.681 363.579L350.363 320.434ZM216.169 311.494L216.169 243.085L275.681 208.685L334.999 243.085L334.999 311.494L275.681 345.699L216.169 311.494Z" fill="white"/>
  <path d="M274.363 458.434L274.363 372.145L199.681 329L124.999 372.145L124.999 458.434L199.681 501.579L274.363 458.434ZM140.169 449.494L140.169 381.085L199.681 346.685L258.999 381.085L258.999 449.494L199.681 483.699L140.169 449.494Z" fill="white"/>
  <path d="M192.363 320.434L192.363 234.145L117.681 191L42.9995 234.145L42.9995 320.434L117.681 363.579L192.363 320.434ZM58.1692 311.494L58.1692 243.085L117.681 208.685L176.999 243.085L176.999 311.494L117.681 345.699L58.1692 311.494Z" fill="white"/>
  <path d="M234.431 206.5L234.431 163.5L197.215 142L159.999 163.5L159.999 206.5L197.215 228L234.431 206.5ZM167.559 202.045L167.559 167.955L197.215 150.813L226.774 167.955L226.774 202.045L197.215 219.09L167.559 202.045Z" fill="white" fill-opacity="0.5"/>
  <path d="M194.431 134.5L194.431 91.5L157.215 70L119.999 91.5L119.999 134.5L157.215 156L194.431 134.5ZM127.559 130.045L127.559 95.955L157.215 78.8131L186.774 95.955L186.774 130.045L157.215 147.09L127.559 130.045Z" fill="white"/>
  <path d="M155.432 486.5L155.432 443.5L118.216 422L81.0002 443.5L81.0002 486.5L118.216 508L155.432 486.5ZM88.5596 482.045L88.5596 447.955L118.216 430.813L147.775 447.955L147.775 482.045L118.216 499.09L88.5596 482.045Z" fill="white" fill-opacity="0.5"/>
  <path d="M115.432 559.5L115.432 516.5L78.2159 495L41.0002 516.5L41.0002 559.5L78.2159 581L115.432 559.5ZM48.5596 555.045L48.5596 520.955L78.2159 503.813L107.775 520.955L107.775 555.045L78.2159 572.09L48.5596 555.045Z" fill="white"/>
  <path d="M237.431 64.5L237.431 21.5L200.215 -1.62676e-06L162.999 21.5L162.999 64.5L200.215 86L237.431 64.5ZM170.559 60.045L170.559 25.9549L200.215 8.81306L229.774 25.955L229.774 60.045L200.215 77.0901L170.559 60.045Z" fill="white" fill-opacity="0.5"/>
  <path d="M115.432 414.5L115.432 371.5L78.2159 350L41.0002 371.5L41.0002 414.5L78.2159 436L115.432 414.5ZM48.5596 410.045L48.5596 375.955L78.2159 358.813L107.775 375.955L107.775 410.045L78.2159 427.09L48.5596 410.045Z" fill="white" fill-opacity="0.5"/>
  <path d="M196.999 558.5L196.999 515.5L159.783 494L122.568 515.5L122.568 558.5L159.783 580L196.999 558.5ZM130.127 554.045L130.127 519.955L159.783 502.813L189.343 519.955L189.343 554.045L159.783 571.09L130.127 554.045Z" fill="white" fill-opacity="0.5"/>
  <path d="M74.4316 487.5L74.4316 444.5L37.2159 423L0.000160897 444.5L0.000159018 487.5L37.2159 509L74.4316 487.5ZM7.55961 483.045L7.55961 448.955L37.2159 431.813L66.7753 448.955L66.7753 483.045L37.2159 500.09L7.55961 483.045Z" fill="white" fill-opacity="0.5"/>
</svg>
