<svg width="345" height="164" viewBox="0 0 345 164" fill="none" xmlns="http://www.w3.org/2000/svg">
<path d="M34.9 41.6001L0 61.8001V102L34.9 122.1L69.8 102V61.8001L34.9 41.6001ZM65.8 97.5001C65.8 98.9001 65.1 100.1 63.9 100.8L36.8 116.5C35.6 117.2 34.2 117.2 33 116.5L5.9 100.8C4.7 100.1 4 98.9001 4 97.5001V66.2001C4 64.8001 4.7 63.6001 5.9 62.9001L33 47.3001C34.2 46.6001 35.6 46.6001 36.8 47.3001L63.9 63.0001C65.1 63.7001 65.8 64.9001 65.8 66.3001V97.5001Z" fill="#3E3536"/>
<path d="M61.7 76.5V73H61.6L14 100.5C13.9 100.5 13.9 100.6 13.9 100.6L16.9 102.3L61.7 76.5Z" fill="#3E3536"/>
<path d="M21.7 105C21.6 105 21.6 105.1 21.6 105.1L24.6 106.8L61.7 85.3999V81.8999H61.6L21.7 105Z" fill="#3E3536"/>
<path d="M61.6 90.7L29.3 109.4C29.2 109.4 29.2 109.5 29.2 109.5L32.2 111.2L61.7 94.1L61.6 90.7C61.6 90.6 61.6 90.6 61.6 90.7Z" fill="#3E3536"/>
<path d="M115.7 113.6H93.6V72.7002H101.2V106.3H115.7V113.6Z" fill="#3E3536"/>
<path d="M160 98.3C160 102.8 158.4 106.6 155.2 109.8C152 113 148.1 114.5 143.6 114.5C139.2 114.5 135.4 112.9 132.2 109.7C129 106.5 127.4 102.7 127.4 98.3C127.4 93.7 129 89.8 132.2 86.7C135.4 83.5 139.3 82 143.9 82C148.4 82 152.2 83.6 155.3 86.8C158.4 90 160 93.9 160 98.3ZM152.6 98.3C152.6 95.8 151.7 93.7 150 91.9C148.3 90.1 146.1 89.2 143.6 89.2C141.3 89.2 139.2 90.1 137.4 92C135.6 93.9 134.7 96 134.7 98.4C134.7 100.9 135.6 103 137.3 104.8C139 106.6 141.1 107.5 143.6 107.5C146.2 107.5 148.4 106.6 150.1 104.9C151.8 103 152.6 100.9 152.6 98.3Z" fill="#3E3536"/>
<path d="M207.5 98.3002C207.5 100.1 207.1 102.1 206.4 104.2C205.7 106.3 204.7 108.1 203.4 109.6C202.1 111.1 200.5 112.3 198.5 113.2C196.5 114.1 194.4 114.6 192.2 114.6C190 114.6 188.1 114.2 186.3 113.4C184.5 112.6 183.1 111.3 181.9 109.5L181.8 113.7H175V72.7002H182.4V86.2002C183.4 84.8002 184.8 83.7002 186.5 83.0002C188.2 82.3002 190 82.0002 191.9 82.0002C196.3 82.0002 200 83.6002 202.9 86.8002C206.1 90.0002 207.5 93.8002 207.5 98.3002ZM200.2 98.3002C200.2 95.7002 199.4 93.6002 197.7 91.8002C196 90.0002 193.9 89.2002 191.3 89.2002C188.8 89.2002 186.6 90.0002 184.8 91.7002C183 93.3002 182.1 95.4002 182.1 97.9002C182.1 100.6 183 102.8 184.7 104.6C186.4 106.4 188.6 107.3 191.4 107.3C194 107.3 196.1 106.4 197.8 104.7C199.3 103 200.2 100.9 200.2 98.3002Z" fill="#3E3536"/>
<path d="M255.1 98.3002C255.1 100.1 254.7 102.1 254 104.2C253.3 106.3 252.3 108.1 251 109.6C249.7 111.1 248.1 112.3 246.1 113.2C244.1 114.1 242 114.6 239.8 114.6C237.6 114.6 235.7 114.2 233.9 113.4C232.1 112.6 230.7 111.3 229.5 109.5L229.4 113.7H222.6V72.7002H230V86.2002C231 84.8002 232.4 83.7002 234.1 83.0002C235.8 82.3002 237.6 82.0002 239.5 82.0002C243.9 82.0002 247.6 83.6002 250.5 86.8002C253.6 90.0002 255.1 93.8002 255.1 98.3002ZM247.7 98.3002C247.7 95.7002 246.9 93.6002 245.2 91.8002C243.5 90.0002 241.4 89.2002 238.8 89.2002C236.3 89.2002 234.1 90.0002 232.3 91.7002C230.5 93.3002 229.6 95.4002 229.6 97.9002C229.6 100.6 230.5 102.8 232.2 104.6C233.9 106.4 236.1 107.3 238.9 107.3C241.5 107.3 243.6 106.4 245.3 104.7C246.9 103 247.7 100.9 247.7 98.3002Z" fill="#3E3536"/>
<path d="M298.8 82.9004L281.1 123.8H273.2L278.8 110.7L267.6 82.9004H276L283 102.6L290.4 82.9004H298.8Z" fill="#3E3536"/>
<path d="M118.8 45.8999C117.8 44.8999 116.5 44.3999 115.1 44.3999C113.6 44.3999 112.4 44.8999 111.4 45.8999C110.4 46.8999 109.9 48.0999 109.9 49.4999C109.9 50.9999 110.4 52.2999 111.4 53.2999C112.4 54.2999 113.6 54.7999 115.1 54.7999C116.6 54.7999 117.9 54.2999 118.9 53.2999C119.9 52.2999 120.4 51.0999 120.4 49.5999C120.3 48.1999 119.8 46.8999 118.8 45.8999ZM117.6 52.3999C116.9 53.0999 116.1 53.4999 115 53.4999C113.9 53.4999 113.1 53.0999 112.4 52.3999C111.8 51.6999 111.4 50.7999 111.4 49.5999C111.4 48.4999 111.7 47.5999 112.4 46.8999C113.1 46.1999 113.9 45.7999 115 45.7999C116.1 45.7999 116.9 46.1999 117.6 46.8999C118.2 47.5999 118.6 48.4999 118.6 49.6999C118.6 50.7999 118.3 51.6999 117.6 52.3999Z" fill="#3E3536"/>
<path d="M134.3 50.4002V44.7002H132.7V50.4002C132.7 53.1002 131.1 53.5002 130.2 53.5002C129.3 53.5002 127.7 53.1002 127.7 50.4002V44.7002H126V50.4002C126 51.3002 126.1 52.0002 126.3 52.4002C126.5 52.9002 126.8 53.3002 127.3 53.7002C128 54.3002 129 54.7002 130.2 54.7002C131.4 54.7002 132.3 54.4002 133.1 53.7002C133.5 53.3002 133.9 52.9002 134 52.4002C134.2 51.9002 134.3 51.2002 134.3 50.4002Z" fill="#3E3536"/>
<path d="M168 54.5V48.8C168 47.9 167.9 47.2 167.7 46.8C167.5 46.3 167.2 45.9 166.7 45.5C166 44.9 165 44.5 163.8 44.5C162.6 44.5 161.7 44.8 160.9 45.5C160.5 45.9 160.1 46.3 160 46.8C159.8 47.4 159.7 48.1 159.7 48.9V54.6H161.3V48.9C161.3 46.2 162.9 45.8 163.8 45.8C164.7 45.8 166.3 46.2 166.3 48.9V54.6H168V54.5Z" fill="#3E3536"/>
<path d="M146 49.9998C145.6 49.5998 144.8 49.0998 143.5 48.4998C142.4 47.9998 141.8 47.4998 141.8 46.8998C141.8 46.4998 141.9 46.2998 142.2 45.9998C142.4 45.7998 142.7 45.6998 143.1 45.6998C143.6 45.6998 144.1 45.9998 144.5 46.4998L145.8 45.7998C145.2 44.7998 144.4 44.2998 143.3 44.2998C142.5 44.2998 141.8 44.5998 141.2 45.0998C140.7 45.5998 140.4 46.2998 140.4 47.0998C140.4 47.6998 140.6 48.1998 140.9 48.4998C141.2 48.7998 141.6 49.0998 142.3 49.3998C142.6 49.4998 142.8 49.5998 143 49.7998C143.3 49.8998 143.5 49.9998 143.8 50.1998C144.6 50.6998 145 51.1998 145 51.7998C145 52.7998 144.4 53.3998 143.3 53.3998C142.8 53.3998 142.3 53.1998 141.9 52.8998C141.8 52.7998 141.6 52.4998 141.4 52.1998L140 52.7998C140.7 54.0998 141.7 54.7998 143.2 54.7998C144.1 54.7998 144.9 54.4998 145.6 53.8998C146.3 53.2998 146.6 52.4998 146.6 51.5998C146.5 50.9998 146.4 50.3998 146 49.9998Z" fill="#3E3536"/>
<path d="M153.6 40.3C153.4 40.1 153.1 40 152.8 40C152.5 40 152.2 40.1 152 40.3C151.8 40.5 151.7 40.8 151.7 41.1C151.7 41.4 151.8 41.7 152 41.9C152.2 42.1 152.5 42.2 152.8 42.2C153.1 42.2 153.4 42.1 153.6 41.9C153.8 41.7 153.9 41.4 153.9 41.1C153.9 40.8 153.8 40.6 153.6 40.3Z" fill="#3E3536"/>
<path d="M153.5 44.7002H151.9V54.5002H153.5V44.7002Z" fill="#3E3536"/>
<path d="M184.1 47.8999C183.3 45.4999 181.7 44.7999 180.4 44.4999C180 44.3999 179.7 44.3999 179.4 44.3999H179.3C177.6 44.3999 176.1 44.9999 175.2 45.9999C174.3 46.9999 173.9 48.1999 173.9 49.6999C173.9 51.1999 174.4 52.3999 175.3 53.3999C176.2 54.3999 177.4 54.7999 178.8 54.7999C180.1 54.7999 180.9 54.6999 182.2 53.7999L182.9 53.3999V55.2999C182.9 57.5999 181.7 58.9999 179.6 59.1999C178.4 59.2999 177.4 58.8999 176.7 57.9999C176.5 57.6999 176.2 57.0999 176.1 56.4999H174.6C174.8 57.5999 175.1 58.4999 176.2 59.3999C177 60.0999 178.2 60.3999 179.7 60.3999C180.5 60.3999 181.1 60.2999 181.8 59.9999C182.7 59.5999 183.4 58.8999 183.9 57.8999C184.5 56.6999 184.4 55.3999 184.4 55.2999L184.5 49.4999C184.3 48.9999 184.1 48.0999 184.1 47.8999ZM181.9 52.1999C181.2 52.8999 180.3 53.2999 179.1 53.2999C177.9 53.2999 177 52.8999 176.3 52.1999C175.7 51.4999 175.4 50.6999 175.4 49.5999C175.4 48.4999 175.7 47.6999 176.3 46.9999C177 46.1999 177.9 45.8999 179.1 45.8999C180.2 45.8999 181.1 46.1999 181.8 46.8999C182.5 47.5999 182.9 48.4999 182.9 49.5999C182.8 50.6999 182.5 51.4999 181.9 52.1999Z" fill="#3E3536"/>
<path d="M104.5 54.5V40H103V46.5H95.1V40H93.6V54.5H95.1V48H103V54.5H104.5Z" fill="#3E3536"/>
</svg>
