<svg width="53" height="61" viewBox="0 0 53 61" fill="none" xmlns="http://www.w3.org/2000/svg">
<g clip-path="url(#clip0_2489_3639)" id="logo">
<path d="M26.6344 0L0.134432 15.1324L0 45.6324L26.3656 61L52.8656 45.8676L53 15.3676L26.6344 0ZM49.74 42.9452C49.74 43.6002 48.6814 44.5575 48.4461 44.6919C48.2108 44.8263 27.4914 56.6501 27.2898 56.7844C27.0881 56.9188 26.1471 56.9692 25.7606 56.7508C25.3741 56.5325 4.77235 44.6919 4.33545 44.3392C3.89854 43.9865 3.51205 43.5498 3.46164 43.0124C3.41122 42.4749 3.42803 18.5419 3.42803 18.122C3.41122 17.7021 3.99937 16.9295 4.35225 16.5264C6.04946 15.5523 25.3909 4.53469 25.8614 4.24917C26.332 3.96366 27.0713 4.06443 27.3402 4.21558C27.6091 4.36674 48.5973 16.56 49.1351 16.8287C49.6728 17.1143 49.8576 18.0212 49.8576 18.3571C49.8576 18.693 49.7568 42.2902 49.74 42.9452Z" fill="#BCBBB1"/>
<path d="M46.564 23.9163L10.6705 44.6415L12.9895 45.9683L46.5976 26.5531L46.564 23.9163Z" fill="#BCBBB1"/>
<path d="M46.6649 30.416L16.3672 47.8998L18.6861 49.2266L46.6985 33.0529L46.6649 30.416Z" fill="#BCBBB1"/>
<path d="M46.7489 36.9158L22.0806 51.1581L24.3995 52.4849L46.7993 39.5526L46.7489 36.9158Z" fill="#BCBBB1"/>
</g>
<defs>
<clipPath id="clip0_2489_3639">
<rect width="53" height="61" fill="white"/>
</clipPath>
</defs>
</svg>
