<svg width="81" height="93" viewBox="0 0 81 93" fill="none" xmlns="http://www.w3.org/2000/svg">
<g id="logo" clip-path="url(#clip0_2191_7875)">
<path fill-rule="evenodd" clip-rule="evenodd" d="M17 0V75H28V11H34V75H45V0H17Z" fill="white"/>
<path fill-rule="evenodd" clip-rule="evenodd" d="M51 0V75H62V11H68V75H79V0H51Z" fill="white"/>
<path d="M11 0H0V75H11V0Z" fill="white"/>
<path d="M7.1 87.7C6.8 87.4 6.6 87.1 6.4 86.7C6.2 86.4 6 86.1 5.8 85.8C5.6 85.5 5.4 85.3 5.3 85.1C5.4 85 5.6 84.8 5.7 84.7C5.9 84.5 6 84.4 6.2 84.2C6.4 84 6.6 83.8 6.7 83.6C6.8 83.4 7 83.2 7.1 83C7.3 83 7.5 82.9 7.6 82.8C7.8 82.7 7.9 82.7 8.1 82.6V82H4.7V82.6C4.8 82.7 4.9 82.8 5 82.8C5.1 82.9 5.2 83 5.4 83C5.2 83.4 4.9 83.7 4.6 84.2C4.3 84.6 4 85 3.7 85.3H3.3V78.3H2.8C2.6 78.3 2.4 78.3 2.1 78.4C1.8 78.4 1.6 78.5 1.3 78.5C1 78.5 0.8 78.6 0.5 78.7C0.2 78.8 0.1 78.8 0 78.8V79.4L1.1 79.5V88.6C0.8 88.7 0.4 88.8 0.1 89V89.6H4.2V89C4 88.9 3.9 88.8 3.7 88.8C3.6 88.7 3.4 88.7 3.2 88.7V86L3.7 86.2C3.8 86.4 4 86.7 4.1 86.9C4.2 87.1 4.4 87.4 4.5 87.6C4.6 87.8 4.8 88.1 5 88.4C5.2 88.7 5.4 89 5.6 89.3L6 89.7H8.5V89L7.7 88.6C7.6 88.3 7.3 88 7.1 87.7ZM11.1 80.7C11.5 80.7 11.8 80.6 12 80.4C12.2 80.2 12.4 79.9 12.4 79.6C12.4 79.3 12.3 79 12 78.8C11.8 78.6 11.5 78.5 11.1 78.5C10.7 78.5 10.4 78.6 10.2 78.8C10 79 9.8 79.3 9.8 79.6C9.8 79.9 9.9 80.2 10.2 80.4C10.4 80.6 10.7 80.7 11.1 80.7ZM12.2 88.6V81.9H11.7C11.5 81.9 11.3 81.9 11.1 82C10.9 82 10.6 82.1 10.4 82.1C10.2 82.1 9.9 82.2 9.7 82.3C9.5 82.4 9.3 82.4 9.1 82.5V83L10.1 83.1V88.6C9.9 88.7 9.7 88.7 9.6 88.8C9.4 88.9 9.3 88.9 9.1 89V89.6H13.2V89C13.1 88.9 12.9 88.9 12.7 88.8C12.6 88.7 12.4 88.7 12.2 88.6ZM22.1 85C22.1 84.4 22 83.9 21.9 83.5C21.8 83.1 21.6 82.8 21.4 82.5C21.2 82.3 20.9 82.1 20.6 82C20.3 81.9 19.9 81.9 19.6 81.9C19 81.9 18.5 82.1 18.1 82.4C17.7 82.7 17.4 83.1 17.2 83.5V82H16.7C16.5 82 16.3 82 16 82.1C15.7 82.1 15.5 82.2 15.2 82.2C15 82.3 14.7 82.3 14.5 82.4C14.3 82.5 14.1 82.5 14 82.6V83L15 83.1V88.6C14.6 88.7 14.3 88.8 14 89V89.6H18V89C17.9 88.9 17.7 88.8 17.6 88.8C17.5 88.7 17.3 88.7 17.2 88.7V84.5C17.3 84.1 17.5 83.7 17.8 83.5C18.1 83.3 18.4 83.1 18.8 83.1C19.3 83.1 19.6 83.3 19.8 83.6C20 84 20.1 84.4 20.1 85.1V88.6C19.9 88.7 19.8 88.7 19.7 88.8C19.6 88.9 19.4 88.9 19.3 89V89.6H23.3V89C23 88.8 22.7 88.7 22.3 88.6V85H22.1ZM30.8 83C30.5 82.7 30.1 82.4 29.6 82.2C29.1 82 28.5 81.9 27.8 81.9C27.2 81.9 26.6 82 26.1 82.2C25.6 82.4 25.2 82.6 24.8 83C24.5 83.3 24.2 83.8 24 84.2C23.8 84.7 23.7 85.2 23.7 85.8C23.7 86.4 23.8 86.9 23.9 87.4C24.1 87.9 24.3 88.3 24.6 88.6C24.9 88.9 25.3 89.2 25.8 89.4C26.3 89.6 26.9 89.7 27.6 89.7C28.2 89.7 28.8 89.6 29.3 89.4C29.8 89.2 30.2 89 30.6 88.6C30.9 88.3 31.2 87.8 31.4 87.4C31.6 86.9 31.7 86.4 31.7 85.8C31.7 85.2 31.6 84.7 31.5 84.2C31.3 83.8 31.1 83.3 30.8 83ZM29.3 87.2C29.2 87.6 29.1 87.9 29 88.1C28.9 88.3 28.7 88.5 28.5 88.6C28.3 88.7 28.1 88.8 27.9 88.8C27.5 88.8 27.2 88.7 27 88.6C26.8 88.5 26.6 88.3 26.4 88C26.3 87.7 26.2 87.4 26.1 87C26 86.6 26 86.2 26 85.8C26 85.2 26 84.8 26.1 84.4C26.2 84 26.3 83.7 26.4 83.5C26.5 83.3 26.7 83.1 26.9 83C27.1 82.9 27.3 82.8 27.6 82.8C27.9 82.8 28.2 82.9 28.5 83C28.7 83.1 28.9 83.3 29 83.6C29.1 83.9 29.2 84.2 29.3 84.5C29.4 84.9 29.4 85.3 29.4 85.7C29.4 86.4 29.3 86.9 29.3 87.2ZM39.4 87.7C39.1 87.4 38.9 87.1 38.7 86.7C38.5 86.4 38.3 86.1 38.1 85.8C37.9 85.5 37.7 85.3 37.6 85.1C37.7 85 37.9 84.8 38 84.7C38.2 84.5 38.3 84.4 38.5 84.2C38.7 84 38.8 83.8 39 83.6C39.2 83.4 39.3 83.2 39.5 83C39.7 83 39.9 82.9 40 82.8C40.2 82.7 40.3 82.7 40.5 82.6V82H37V82.6C37.1 82.7 37.2 82.8 37.3 82.8C37.4 82.9 37.5 82.9 37.7 83C37.5 83.4 37.2 83.7 36.9 84.2C36.6 84.6 36.3 85 36 85.4H35.6V78.4H35.1C34.9 78.4 34.7 78.4 34.4 78.5C34.1 78.5 33.9 78.6 33.6 78.6C33.3 78.6 33.1 78.7 32.8 78.8C32.5 78.9 32.4 78.9 32.2 79V79.6L33.3 79.7V88.8C33 88.9 32.6 89 32.3 89.2V89.8H36.4V89C36.2 88.9 36.1 88.8 35.9 88.8C35.8 88.7 35.6 88.7 35.4 88.7V86L35.9 86.2C36 86.4 36.2 86.7 36.3 86.9C36.4 87.1 36.6 87.4 36.7 87.6C36.8 87.8 37 88.1 37.2 88.4C37.4 88.7 37.6 89 37.8 89.3L38.2 89.7H40.7V89L39.9 88.6C39.9 88.3 39.6 88 39.4 87.7ZM49 81.9H48.5C48.3 81.9 48.1 81.9 47.9 82C47.7 82 47.4 82.1 47.2 82.1C47 82.1 46.7 82.2 46.5 82.3C46.3 82.4 46.1 82.4 45.9 82.5V83L46.9 83.1V87C46.7 87.5 46.5 87.9 46.2 88.1C45.9 88.3 45.6 88.5 45.3 88.5C44.8 88.5 44.5 88.3 44.4 88C44.3 87.7 44.2 87 44.2 86.2C44.2 85.5 44.2 84.8 44.2 84.1C44.2 83.4 44.2 82.6 44.2 81.9H43.7C43.5 81.9 43.3 81.9 43.1 82C42.9 82 42.6 82.1 42.4 82.1C42.1 82.1 41.9 82.2 41.7 82.3C41.5 82.4 41.3 82.4 41.1 82.5V83L42.1 83.1C42.1 83.7 42.1 84.3 42.1 84.8C42.1 85.3 42.1 85.9 42.1 86.6C42.1 87.2 42.2 87.7 42.3 88.1C42.4 88.5 42.6 88.8 42.8 89.1C43 89.3 43.3 89.5 43.6 89.6C43.9 89.7 44.2 89.7 44.6 89.7C44.9 89.7 45.2 89.6 45.5 89.5C45.8 89.4 46 89.2 46.2 89.1C46.4 88.9 46.6 88.7 46.7 88.5C46.8 88.3 46.9 88.1 47 87.9H47.1L47.2 89.7H47.7C47.9 89.7 48.1 89.7 48.3 89.6C48.5 89.6 48.8 89.5 49 89.5C49.2 89.4 49.4 89.4 49.7 89.3C50 89.2 50.1 89.2 50.2 89.1V88.6L49.2 88.5V81.9H49ZM58.7 85C58.7 84.4 58.6 83.9 58.5 83.5C58.4 83.1 58.2 82.8 58 82.5C57.8 82.3 57.5 82.1 57.2 82C56.9 81.9 56.5 81.9 56.2 81.9C55.6 81.9 55.1 82.1 54.7 82.4C54.3 82.7 54 83.1 53.8 83.5V82H53.3C53.1 82 52.9 82 52.6 82.1C52.3 82.1 52.1 82.2 51.8 82.2C51.6 82.3 51.3 82.3 51.1 82.4C50.9 82.5 50.7 82.5 50.6 82.6V83L51.6 83.1V88.6C51.2 88.7 50.9 88.8 50.6 89V89.6H54.6V89C54.5 88.9 54.3 88.8 54.2 88.8C54.1 88.7 53.9 88.7 53.8 88.7V84.5C53.9 84.1 54.1 83.7 54.4 83.5C54.7 83.3 55 83.1 55.4 83.1C55.9 83.1 56.2 83.3 56.4 83.6C56.6 84 56.7 84.4 56.7 85.1V88.6C56.5 88.7 56.4 88.7 56.3 88.8C56.2 88.9 56 88.9 55.9 89V89.6H59.9V89C59.6 88.8 59.3 88.7 58.9 88.6V85H58.7ZM62.4 80.7C62.8 80.7 63.1 80.6 63.3 80.4C63.5 80.2 63.7 79.9 63.7 79.6C63.7 79.3 63.6 79 63.3 78.8C63.1 78.6 62.8 78.5 62.4 78.5C62 78.5 61.7 78.6 61.5 78.8C61.3 79 61.1 79.3 61.1 79.6C61.1 79.9 61.2 80.2 61.5 80.4C61.7 80.6 62 80.7 62.4 80.7ZM63.5 88.6V81.9H63C62.8 81.9 62.6 81.9 62.4 82C62.2 82 61.9 82.1 61.7 82.1C61.5 82.1 61.2 82.2 61 82.3C60.8 82.4 60.6 82.4 60.4 82.5V83L61.4 83.1V88.6C61.2 88.7 61 88.7 60.9 88.8C60.7 88.9 60.6 88.9 60.4 89V89.6H64.5V89C64.4 88.9 64.2 88.9 64 88.8C63.9 88.7 63.7 88.7 63.5 88.6ZM70.1 82.6C70.3 82.8 70.6 82.9 70.9 83L69.7 86.8L69.5 87.8L69.2 86.8L67.7 83C68.1 82.9 68.3 82.8 68.6 82.6V82H64.7V82.6C64.8 82.7 65 82.8 65.1 82.8C65.2 82.9 65.4 82.9 65.5 83L68.7 89.6C68.6 89.9 68.5 90.2 68.5 90.3C68.4 90.5 68.4 90.6 68.3 90.8H66.5L66.3 91.2C66.3 91.3 66.3 91.5 66.4 91.7C66.4 91.9 66.5 92 66.6 92.2C66.7 92.4 66.7 92.5 66.8 92.6C66.9 92.7 67 92.8 67.1 92.9C67.3 92.9 67.6 92.8 67.8 92.7C68 92.6 68.3 92.4 68.5 92.2C68.7 92 69 91.6 69.2 91.2C69.4 90.8 69.7 90.3 69.9 89.6L72.3 83C72.7 82.9 72.9 82.8 73.2 82.6V82H70.3V82.6H70.1ZM79.9 88.5C79.9 88.3 79.9 88.2 79.9 88C79.9 87.8 79.9 87.6 79.9 87.4C79.9 86.9 79.9 86.4 79.9 85.9C79.9 85.4 79.9 84.9 79.9 84.3C79.9 84 79.9 83.7 79.8 83.4C79.7 83.1 79.6 82.9 79.4 82.6C79.2 82.4 78.9 82.2 78.6 82.1C78.2 82 77.8 81.9 77.2 81.9C76.5 81.9 75.9 82 75.3 82.1C74.7 82.3 74.2 82.5 73.8 82.7C73.8 82.9 73.9 83 73.9 83.2C73.9 83.4 74 83.6 74.1 83.7C74.2 83.9 74.2 84 74.3 84.2C74.4 84.4 74.5 84.5 74.5 84.6H75.2L75.9 82.8C76.2 82.7 76.4 82.6 76.8 82.6C77.3 82.6 77.6 82.8 77.8 83.2C78 83.6 78 84.2 77.9 85.1C77.1 85.1 76.4 85.2 75.8 85.3C75.2 85.4 74.8 85.5 74.4 85.7C74 85.9 73.8 86.1 73.6 86.4C73.4 86.7 73.3 87.1 73.3 87.5C73.3 87.8 73.4 88.1 73.5 88.4C73.6 88.7 73.8 88.9 74 89.1C74.2 89.3 74.5 89.4 74.7 89.5C75 89.6 75.3 89.7 75.6 89.7C75.9 89.7 76.2 89.7 76.4 89.6C76.6 89.5 76.9 89.4 77.1 89.2C77.3 89.1 77.4 88.9 77.6 88.7C77.7 88.5 77.8 88.3 77.9 88.1H78C78 88.4 78 88.7 78 88.9C78 89.1 78.1 89.4 78.2 89.6H78.7C78.9 89.6 79.1 89.6 79.3 89.5C79.5 89.5 79.7 89.4 80 89.4C80.2 89.3 80.4 89.3 80.6 89.2C80.8 89.1 81 89.1 81.1 89V88.5H79.9ZM77.8 87.4C77.8 87.5 77.7 87.6 77.7 87.7C77.6 87.8 77.6 87.9 77.5 88.1C77.4 88.2 77.3 88.3 77.1 88.4C77 88.5 76.8 88.5 76.6 88.5C76.3 88.5 76 88.4 75.8 88.2C75.6 88 75.5 87.7 75.5 87.3C75.5 87.1 75.5 86.8 75.6 86.7C75.7 86.5 75.8 86.4 76 86.3C76.2 86.2 76.4 86.1 76.7 86.1C77 86.1 77.4 86 77.9 86V87.4H77.8Z" fill="white"/>
</g>
<defs>
<clipPath id="clip0_2191_7875">
<rect width="80.9" height="92.8" fill="white"/>
</clipPath>
</defs>
</svg>
