<svg width="246" height="31" viewBox="0 0 246 31" fill="none" xmlns="http://www.w3.org/2000/svg">
<g id="logolong" clip-path="url(#clip0_2157_3652)">
<path d="M12.7837 0L0 7.33401V22.002L12.7837 29.3361L25.5674 22.002V7.33401L12.7837 0ZM24.0702 20.3977C24.0702 20.8561 23.8399 21.3145 23.3792 21.6583L13.4747 27.388C13.014 27.6171 12.5534 27.6171 12.0927 27.388L2.1882 21.6583C1.72753 21.4291 1.49719 20.9707 1.49719 20.3977V8.93833C1.49719 8.47995 1.72753 8.02158 2.1882 7.6778L12.0927 1.9481C12.5534 1.71891 13.014 1.71891 13.4747 1.9481L23.3792 7.6778C23.8399 7.90698 24.0702 8.36536 24.0702 8.93833V20.3977Z"/>
<path d="M22.573 12.7199V11.4594L5.06738 21.4291L6.21907 22.1167L22.573 12.7199Z"/>
<path d="M7.94653 23.0334L8.98305 23.721L22.5729 15.9286V14.668L7.94653 23.0334Z"/>
<path d="M22.5731 17.8766L10.7107 24.6377L11.8624 25.3253L22.6882 19.1372L22.5731 17.8766Z"/>
<path d="M170.334 22.9188H161.236V6.07349H164.345V19.8248H170.334V22.9188Z"/>
<path d="M188.531 16.3869C188.531 18.2204 187.84 19.8247 186.573 21.0853C185.306 22.3458 183.694 23.0334 181.736 23.0334C179.893 23.0334 178.396 22.3458 177.014 21.0853C175.747 19.8247 175.056 18.2204 175.056 16.3869C175.056 14.5534 175.747 12.9491 177.014 11.574C178.281 10.3134 179.893 9.62589 181.851 9.62589C183.694 9.62589 185.306 10.3134 186.573 11.574C187.955 12.9491 188.531 14.5534 188.531 16.3869ZM185.536 16.3869C185.536 15.3556 185.191 14.4388 184.5 13.7513C183.809 13.0637 182.888 12.6053 181.851 12.6053C180.93 12.6053 180.008 12.9491 179.317 13.7513C178.626 14.5534 178.166 15.3556 178.166 16.3869C178.166 17.4183 178.511 18.2204 179.202 19.0226C179.893 19.7102 180.815 20.1685 181.851 20.1685C182.888 20.1685 183.809 19.8247 184.5 19.1372C185.191 18.2204 185.536 17.4183 185.536 16.3869Z"/>
<path d="M208.11 16.1578C208.11 16.9599 207.994 17.7621 207.649 18.5642C207.303 19.481 206.958 20.1685 206.382 20.7415C205.921 21.3145 205.23 21.8875 204.424 22.2312C203.618 22.575 202.697 22.8042 201.775 22.8042C200.854 22.8042 200.048 22.6896 199.357 22.3458C198.666 22.002 197.975 21.4291 197.514 20.7415V22.9188H194.75V5.72971H197.744V11.2302C198.205 10.6572 198.781 10.1989 199.472 9.96968C200.163 9.74049 200.969 9.51131 201.66 9.51131C203.503 9.51131 205 10.1989 206.152 11.4594C207.534 12.8345 208.11 14.4388 208.11 16.1578ZM205.115 16.2723C205.115 15.241 204.77 14.3243 204.079 13.6367C203.388 12.9491 202.466 12.6053 201.43 12.6053C200.393 12.6053 199.472 12.9491 198.781 13.6367C198.09 14.3243 197.629 15.1264 197.629 16.1578C197.629 17.3037 197.975 18.2204 198.666 18.908C199.357 19.5956 200.278 20.054 201.43 20.054C202.466 20.054 203.388 19.7102 204.079 19.0226C204.77 18.2204 205.115 17.3037 205.115 16.2723Z"/>
<path d="M227.803 16.1578C227.803 16.9599 227.688 17.7621 227.343 18.5642C226.997 19.481 226.652 20.1685 226.076 20.7415C225.615 21.3145 224.924 21.8875 224.118 22.2312C223.312 22.575 222.39 22.8042 221.469 22.8042C220.548 22.8042 219.742 22.6896 219.051 22.3458C218.36 22.002 217.669 21.4291 217.208 20.7415V22.9188H214.444V5.72971H217.438V11.2302C217.899 10.6572 218.475 10.1989 219.166 9.96968C219.857 9.74049 220.663 9.51131 221.354 9.51131C223.197 9.51131 224.694 10.1989 225.846 11.4594C227.112 12.8345 227.803 14.4388 227.803 16.1578ZM224.694 16.2723C224.694 15.241 224.348 14.3243 223.657 13.6367C222.966 12.9491 222.045 12.6053 221.008 12.6053C219.972 12.6053 219.051 12.9491 218.36 13.6367C217.669 14.3243 217.208 15.1264 217.208 16.1578C217.208 17.3037 217.553 18.2204 218.244 18.908C218.935 19.5956 219.857 20.054 221.008 20.054C222.045 20.054 222.966 19.7102 223.657 19.0226C224.348 18.2204 224.694 17.3037 224.694 16.2723Z"/>
<path d="M246 9.51129L238.744 26.242H235.404L237.708 20.8561L233.101 9.51129H236.556L239.435 17.5329L242.545 9.51129H246Z"/>
<path d="M69.2162 12.8345C67.9494 11.6886 66.4522 11.001 64.7247 11.001C62.9971 11.001 61.4999 11.574 60.2331 12.8345C58.9662 13.9804 58.3904 15.4702 58.3904 17.1891C58.3904 19.0226 58.9662 20.5123 60.2331 21.6582C61.3848 22.8042 62.882 23.4917 64.7247 23.4917C66.5673 23.4917 68.0645 22.9188 69.2162 21.6582C70.4831 20.5123 71.0589 19.0226 71.0589 17.1891C71.0589 15.4702 70.3679 13.9804 69.2162 12.8345ZM67.8342 20.5123C67.028 21.3145 65.9915 21.7728 64.7247 21.7728C63.4578 21.7728 62.4213 21.3145 61.6151 20.5123C60.8089 19.7101 60.4634 18.5642 60.4634 17.1891C60.4634 15.9285 60.8089 14.7826 61.6151 13.9804C62.4213 13.1783 63.4578 12.7199 64.7247 12.7199C65.9915 12.7199 67.028 13.1783 67.8342 13.9804C68.6404 14.7826 68.9859 15.9285 68.9859 17.3037C68.9859 18.5642 68.6404 19.7101 67.8342 20.5123Z"/>
<path d="M87.8735 18.2204V11.3448H85.9156V18.1058C85.9156 21.3145 84.0729 21.7728 82.9212 21.7728C81.7696 21.7728 79.9269 21.3145 79.9269 18.1058V11.3448H77.969V18.2204C77.969 19.3664 78.0842 20.1685 78.3145 20.6269C78.5448 21.1999 78.8903 21.7728 79.4662 22.2312C80.3875 23.0334 81.5392 23.3772 82.9212 23.3772C84.3033 23.3772 85.455 23.0334 86.3763 22.2312C86.9521 21.7728 87.2976 21.1999 87.528 20.6269C87.7583 19.9393 87.8735 19.1372 87.8735 18.2204Z"/>
<path d="M128.413 23.0334V16.1577C128.413 15.0118 128.298 14.2096 128.068 13.7513C127.837 13.1783 127.492 12.6053 126.916 12.1469C125.994 11.3448 124.843 11.001 123.461 11.001C122.079 11.001 120.927 11.3448 120.006 12.1469C119.43 12.6053 119.084 13.1783 118.854 13.7513C118.624 14.4388 118.509 15.241 118.509 16.2723V23.148H120.466V16.3869C120.466 13.1783 122.309 12.7199 123.461 12.7199C124.612 12.7199 126.455 13.1783 126.455 16.3869V23.148H128.413V23.0334Z"/>
<path d="M101.924 17.7621C101.463 17.3037 100.427 16.6161 98.9297 16.0431C97.5477 15.4702 96.9718 14.8972 96.9718 14.095C96.9718 13.6367 97.087 13.2929 97.4325 13.0637C97.6628 12.8345 98.1235 12.6053 98.469 12.6053C99.16 12.6053 99.6207 12.9491 100.081 13.6367L101.694 12.8345C101.003 11.574 99.9662 11.001 98.6994 11.001C97.6628 11.001 96.8567 11.3448 96.1657 11.9178C95.4746 12.4907 95.1291 13.2929 95.1291 14.3242C95.1291 15.0118 95.3595 15.5848 95.705 16.0431C96.0505 16.3869 96.5112 16.7307 97.3173 17.1891C97.6628 17.3037 97.8932 17.5329 98.2387 17.6475C98.5842 17.7621 98.8145 17.9912 99.16 18.1058C100.081 18.6788 100.542 19.2518 100.542 20.0539C100.542 21.1999 99.851 21.8874 98.5842 21.8874C98.0083 21.8874 97.4325 21.6582 96.9718 21.3145C96.7415 21.1999 96.6263 20.8561 96.2808 20.3977L94.6685 21.1999C95.4746 22.8042 96.7415 23.6063 98.5842 23.6063C99.7359 23.6063 100.657 23.2626 101.463 22.575C102.27 21.8874 102.615 20.9707 102.615 19.8247C102.615 18.7934 102.385 18.2204 101.924 17.7621Z"/>
<path d="M111.023 6.07349C110.792 5.8443 110.447 5.72971 110.101 5.72971C109.756 5.72971 109.41 5.8443 109.065 6.18808C108.834 6.41727 108.604 6.76105 108.604 7.21943C108.604 7.6778 108.719 7.90699 109.065 8.25077C109.295 8.47996 109.641 8.70915 110.101 8.70915C110.447 8.70915 110.792 8.59455 111.138 8.25077C111.368 8.02159 111.598 7.6778 111.598 7.21943C111.483 6.76105 111.368 6.41727 111.023 6.07349Z"/>
<path d="M111.023 11.3448H109.065V23.0334H111.023V11.3448Z"/>
<path d="M147.761 15.1264C146.725 12.2615 144.882 11.4594 143.385 11.1156C142.924 11.001 142.579 11.001 142.233 11.001H142.118C140.045 11.001 138.202 11.6886 137.166 12.9491C136.129 14.095 135.668 15.5848 135.668 17.3037C135.668 19.0226 136.244 20.5123 137.281 21.7728C138.317 22.9188 139.815 23.4917 141.542 23.4917C143.154 23.4917 144.076 23.2626 145.573 22.3458L146.379 21.7728V23.9501C146.379 26.7004 144.882 28.4193 142.463 28.5339C141.081 28.6485 139.815 28.1901 138.893 27.0442C138.548 26.7004 138.317 25.8982 138.087 25.3253H136.244C136.475 26.5858 136.82 27.6171 138.202 28.7631C139.239 29.5652 140.506 30.0236 142.348 30.0236C143.27 30.0236 144.076 29.909 144.882 29.5652C145.918 29.1069 146.84 28.1901 147.416 27.0442C148.107 25.5544 148.107 23.9501 148.107 23.9501L148.222 16.9599C147.991 16.5015 147.761 15.4702 147.761 15.1264ZM145.112 20.2831C144.306 21.1999 143.154 21.6582 141.772 21.6582C140.39 21.6582 139.239 21.1999 138.432 20.2831C137.741 19.481 137.281 18.4496 137.281 17.1891C137.281 15.9285 137.626 14.8972 138.432 14.095C139.239 13.1783 140.39 12.7199 141.772 12.7199C143.039 12.7199 144.191 13.1783 144.997 13.9804C145.803 14.7826 146.264 15.9285 146.264 17.1891C146.264 18.4496 145.918 19.481 145.112 20.2831Z"/>
<path d="M52.0562 23.0334V5.72971H50.2135V13.5221H40.7697V5.72971H38.927V23.0334H40.7697V15.241H50.2135V23.0334H52.0562Z"/>
</g>
<defs>
<clipPath id="clip0_2157_3652">
<rect width="246" height="30.0236" fill="white"/>
</clipPath>
</defs>
</svg>
