<!-- Generator: Adobe Illustrator 25.0.1, SVG Export Plug-In  -->
<svg version="1.1" xmlns="http://www.w3.org/2000/svg" xmlns:xlink="http://www.w3.org/1999/xlink" viewBox="0 0 283.8 94.6">
<g id="logo">
	<g>
		<path class="st0" d="M41,0L0,23.7V71l41,23.7l41-23.7V23.7L41,0z M77.3,65.7c0,1.6-0.9,3.1-2.2,3.9L43.2,88
			c-1.4,0.8-3.1,0.8-4.5,0L6.8,69.6c-1.4-0.8-2.2-2.3-2.2-3.9V28.9c0-1.6,0.9-3.1,2.2-3.9L38.7,6.6c1.4-0.8,3.1-0.8,4.5,0L75.1,25
			c1.4,0.8,2.2,2.3,2.2,3.9V65.7z"/>
		<g>
			<path class="st0" d="M72.4,41v-4.1c0,0-0.1,0-0.1,0L16.4,69.2c-0.1,0-0.1,0.1-0.2,0.1l3.5,2L72.4,41z"/>
			<path class="st0" d="M25.4,74.4c-0.1,0-0.1,0.1-0.2,0.1l3.5,2l43.6-25.2v-4.1c0,0-0.1,0-0.1,0L25.4,74.4z"/>
			<path class="st0" d="M72.3,57.6l-38,21.9c-0.1,0-0.1,0.1-0.2,0.1l3.5,2l34.7-20v-4.1C72.4,57.6,72.4,57.6,72.3,57.6z"/>
		</g>
	</g>
	<g>
		<g>
			<path class="st0" d="M126.9,85.2H108V50.2h6.5v28.8h12.4V85.2z"/>
			<path class="st0" d="M164.9,72.2c0,3.8-1.4,7.1-4.1,9.8c-2.8,2.7-6.1,4.1-10,4.1c-3.8,0-7.1-1.4-9.8-4.1c-2.7-2.7-4.1-6-4.1-9.8
				c0-3.9,1.4-7.3,4.1-10c2.8-2.7,6.1-4.1,10.1-4.1c3.9,0,7.1,1.4,9.8,4.1C163.6,65,164.9,68.3,164.9,72.2z M158.6,72.2
				c0-2.1-0.7-4-2.2-5.5c-1.5-1.5-3.3-2.3-5.5-2.3c-2,0-3.8,0.8-5.3,2.4c-1.5,1.6-2.3,3.4-2.3,5.4c0,2.1,0.7,3.9,2.2,5.4
				c1.5,1.5,3.3,2.3,5.4,2.3c2.3,0,4.1-0.7,5.6-2.2C157.9,76.2,158.6,74.4,158.6,72.2z"/>
			<path class="st0" d="M205.6,72.1c0,1.6-0.3,3.3-0.9,5.1c-0.6,1.8-1.5,3.3-2.5,4.6c-1.1,1.3-2.5,2.3-4.2,3.1
				c-1.7,0.8-3.5,1.2-5.4,1.2c-1.9,0-3.6-0.4-5.1-1.1c-1.5-0.7-2.8-1.8-3.7-3.3l-0.1,3.6h-5.8V50.2h6.3v11.6
				c0.9-1.2,2.1-2.1,3.6-2.7c1.5-0.6,3-0.9,4.6-0.9c3.8,0,6.9,1.4,9.5,4.1C204.4,65,205.6,68.3,205.6,72.1z M199.3,72.2
				c0-2.2-0.7-4.1-2.1-5.6c-1.4-1.5-3.2-2.3-5.5-2.3c-2.2,0-4,0.7-5.6,2.1c-1.5,1.4-2.3,3.2-2.3,5.3c0,2.3,0.7,4.2,2.2,5.8
				c1.5,1.6,3.4,2.3,5.7,2.3c2.2,0,4-0.7,5.5-2.2C198.6,76.2,199.3,74.4,199.3,72.2z"/>
			<path class="st0" d="M246.4,72.1c0,1.6-0.3,3.3-0.9,5.1c-0.6,1.8-1.5,3.3-2.5,4.6c-1.1,1.3-2.5,2.3-4.2,3.1
				c-1.7,0.8-3.5,1.2-5.4,1.2c-1.9,0-3.6-0.4-5.1-1.1c-1.5-0.7-2.8-1.8-3.7-3.3l-0.1,3.6h-5.8V50.2h6.3v11.6
				c0.9-1.2,2.1-2.1,3.6-2.7c1.5-0.6,3-0.9,4.6-0.9c3.8,0,6.9,1.4,9.5,4.1C245.1,65,246.4,68.3,246.4,72.1z M240.1,72.2
				c0-2.2-0.7-4.1-2.1-5.6c-1.4-1.5-3.2-2.3-5.5-2.3c-2.2,0-4,0.7-5.6,2.1c-1.5,1.4-2.3,3.2-2.3,5.3c0,2.3,0.7,4.2,2.2,5.8
				c1.5,1.6,3.4,2.3,5.7,2.3c2.2,0,4-0.7,5.5-2.2C239.4,76.2,240.1,74.4,240.1,72.2z"/>
			<path class="st0" d="M283.8,58.9l-15.1,35h-6.8l4.8-11.2l-9.6-23.8h7.2l6,16.9l6.3-16.9H283.8z"/>
		</g>
	</g>
	<g>
		<path class="st0" d="M154.7,18.5c-1.9-1.9-4.3-2.8-7-2.8c-2.7,0-5.1,0.9-7,2.8c-1.9,1.9-2.9,4.1-2.9,6.8c0,2.8,0.9,5.2,2.8,7
			c1.9,1.9,4.2,2.8,6.9,2.8c2.8,0,5.2-0.9,7.1-2.8c1.9-1.9,2.8-4.2,2.8-6.9C157.5,22.7,156.6,20.4,154.7,18.5z M152.6,30.6
			L152.6,30.6c-1.2,1.3-2.9,2-4.9,2c-2,0-3.6-0.7-4.9-2c-1.2-1.3-1.8-3.1-1.8-5.3c0-2,0.6-3.8,1.8-5.1c1.2-1.3,2.9-2,4.8-2
			c2,0,3.6,0.7,4.9,2c1.2,1.3,1.8,3,1.8,5.2S153.8,29.3,152.6,30.6z"/>
		<path class="st0" d="M183.1,26.8V15.7H180v11c0,5.1-3,5.9-4.8,5.9s-4.8-0.8-4.8-5.9v-11h-3.1v11.1c0,1.8,0.2,3.1,0.5,3.9
			c0.4,1,1,1.8,1.9,2.6c1.4,1.3,3.3,1.9,5.6,1.9c2.3,0,4.1-0.6,5.6-1.9c0.9-0.8,1.5-1.6,1.8-2.6C182.9,29.6,183.1,28.3,183.1,26.8z"
			/>
		<path class="st0" d="M247.4,35.1v-11c0-1.8-0.2-3.1-0.5-3.9c-0.4-0.9-1-1.8-1.9-2.6c-1.4-1.2-3.3-1.9-5.6-1.9
			c-2.3,0-4.1,0.6-5.6,1.9c-0.9,0.8-1.5,1.6-1.8,2.5c-0.4,1.1-0.6,2.4-0.6,4v11h3.1V24.2c0-5.1,3-5.9,4.8-5.9c1.8,0,4.8,0.8,4.8,5.9
			v10.9H247.4z"/>
		<path class="st0" d="M204.9,26.2c-0.8-0.8-2.4-1.7-4.8-2.7c-2.2-0.9-3.2-1.9-3.2-3c0-0.7,0.2-1.2,0.7-1.6c0.5-0.4,1-0.6,1.7-0.6
			c1,0,1.9,0.5,2.6,1.6l2.5-1.3c-1.1-1.9-2.7-2.8-4.8-2.8c-1.6,0-2.9,0.5-4,1.5c-1.1,1-1.6,2.2-1.6,3.7c0,1.1,0.3,2,0.9,2.7
			c0.5,0.6,1.4,1.2,2.6,1.8c0.5,0.2,1,0.5,1.4,0.7c0.5,0.2,1,0.4,1.4,0.7c1.5,0.9,2.3,1.9,2.3,3c0,1.8-1.2,2.9-3.2,2.9
			c-1,0-1.9-0.3-2.6-1c-0.3-0.2-0.6-0.7-1.1-1.4l-2.6,1.2c1.3,2.5,3.4,3.7,6.2,3.7c1.8,0,3.3-0.5,4.6-1.6c1.3-1.1,1.9-2.5,1.9-4.2
			C206,28,205.6,27,204.9,26.2z"/>
		<g>
			<path class="st0" d="M219.5,7.8c-0.5-0.5-1-0.7-1.6-0.7c-0.6,0-1.1,0.2-1.6,0.7c-0.5,0.5-0.7,1-0.7,1.6c0,0.7,0.2,1.2,0.7,1.6
				c0.5,0.5,1,0.7,1.6,0.7c0.6,0,1.2-0.2,1.6-0.7c0.5-0.5,0.7-1,0.7-1.6C220.2,8.8,220,8.3,219.5,7.8z"/>
			<rect x="216.3" y="15.7" class="st0" width="3.2" height="19.5"/>
		</g>
		<path class="st0" d="M276.4,22.2c-1.5-4.5-4.5-5.7-6.9-6.3c-0.7-0.2-1.3-0.3-1.9-0.3c-0.1,0-0.2,0-0.2,0c-3.2,0-6,1.1-7.7,3
			c-1.6,1.9-2.4,4.2-2.4,6.9c0,2.8,0.9,5.1,2.6,6.9c1.7,1.8,3.9,2.7,6.6,2.7c2.4,0,4-0.3,6.3-1.9l1.2-0.8v3.5c0,4.2-2.3,6.9-6.1,7.2
			c-2.2,0.2-4.1-0.6-5.5-2.2c-0.5-0.6-0.9-1.8-1.2-2.8h-2.9c0.3,2,1,3.6,3,5.4c1.5,1.3,3.7,2,6.5,2c1.4,0,2.7-0.3,3.9-0.8
			c1.7-0.8,3.1-2.1,3.9-3.9c1.1-2.3,1-4.8,1-4.8l0.2-10.9C276.9,24.3,276.5,22.6,276.4,22.2z M272.4,30.3c-1.3,1.4-3.1,2.1-5.2,2.1
			c-2.2,0-3.9-0.7-5.2-2.1c-1.2-1.3-1.7-2.9-1.7-4.8c0-2,0.6-3.6,1.7-4.9c1.3-1.4,3-2.1,5.2-2.1c2,0,3.7,0.7,5.1,1.9
			c1.3,1.3,2,3,2,5C274.1,27.4,273.5,29,272.4,30.3z"/>
		<polygon class="st0" points="129.1,35.1 129.1,7.2 126.2,7.2 126.2,19.8 110.9,19.8 110.9,7.2 108,7.2 108,35.1 110.9,35.1 
			110.9,22.5 126.2,22.5 126.2,35.1 		"/>
	</g>
</g>
</svg>
