<?xml version="1.0" encoding="utf-8"?>
<!-- Generator: Adobe Illustrator 25.0.1, SVG Export Plug-In . SVG Version: 6.00 Build 0)  -->
<svg version="1.1" id="レイヤー_1" xmlns="http://www.w3.org/2000/svg" xmlns:xlink="http://www.w3.org/1999/xlink" x="0px"
	 y="0px" viewBox="0 0 327 185" style="enable-background:new 0 0 327 185;" xml:space="preserve">
<style type="text/css">
	.st0{fill:#ffffff;}
</style>
<g>
	<path class="st0" d="M236.9,141.4c0-0.1,0.2-0.2,0.3-0.4v-0.5c0.1-0.1,0.2-0.2,0.3-0.3V139c0.1-0.1,0.2-0.2,0.3-0.3v-0.3
		c0.1-0.1,0.2-0.2,0.3-0.3c0.1-0.3-0.2-0.4-0.3-0.6c0.2-0.2,0.4-0.4,0.6-0.5v-0.6c0.1-0.1,0.2-0.2,0.3-0.3v-1.7
		c0.1-0.1,0.2-0.2,0.3-0.3v-0.6c-0.1-0.1-0.2-0.2-0.3-0.3c0.2-0.1,0.3-0.3,0.4-0.4c0.1,0,0.3,0.1,0.5-0.2c0-0.3,0-0.6,0-0.9
		c0.1-0.1,0.2-0.2,0.3-0.3v-1.2c0.1-0.1,0.2-0.2,0.3-0.3v-0.6c0.1-0.1,0.2-0.2,0.3-0.3v-0.3c-0.1-0.1-0.2-0.2-0.3-0.3
		c0-0.1,0-0.2,0-0.3c0.2-0.2,0.4-0.3,0.5-0.5c0-0.2,0.1-0.5,0.3-0.6v-2.6c0.1-0.1,0.2-0.2,0.3-0.3v-0.6c-0.1-0.1-0.2-0.2-0.3-0.3
		v-0.6c0.2-0.2,0.5-0.4,0.6-0.6c0-0.6,0-1.3,0-1.9c0,0,0-0.1,0-0.1c0.1-0.1,0.2-0.2,0.3-0.3c0-0.3-0.1-0.6,0.3-0.8v-7.1
		c-0.1-0.1-0.2-0.2-0.3-0.3v-1.4c-0.1-0.1-0.2-0.2-0.3-0.3v-0.3c-0.1-0.1-0.2-0.2-0.3-0.3c-0.1-0.3,0.2-0.4,0.2-0.6
		c-0.1-0.1-0.1-0.1-0.2-0.2c-0.1-0.4,0-0.9-0.1-1.3c-0.1-0.1-0.3-0.2-0.2-0.3c0-0.2-0.2-0.3-0.3-0.5v-0.6c-0.2-0.2-0.4-0.4-0.6-0.6
		c0.1-0.3-0.2-0.4-0.3-0.6c-0.1-0.3,0-0.6-0.1-0.9c-0.1-0.1-0.1-0.1-0.2-0.2c-0.2-0.2-0.4-0.3-0.6-0.5c-0.2,0-0.4-0.1-0.5-0.2
		c-0.3,0-0.5-0.2-0.7-0.4c-0.1-0.1-0.1-0.2-0.2-0.2c-0.2-0.1-0.1-0.3-0.2-0.4c-0.2-0.3-0.3-0.4-0.5-0.5h-0.9
		c-0.2-0.2-0.4-0.5-0.7-0.6c-0.2,0-0.4,0-0.6,0c-0.2-0.1-0.2-0.3-0.4-0.3c-0.2,0-0.3-0.2-0.5-0.3h-0.9c-0.1-0.1-0.2-0.2-0.3-0.3
		h-0.9c-0.1-0.1-0.2-0.2-0.3-0.3c-0.1,0-0.2,0-0.3,0c-0.1,0.1-0.2,0.2-0.3,0.3c-1.1,0-1.1,0-1.3-0.1v-0.3c-0.1-0.2-0.3-0.2-0.5-0.1
		c-0.2,0.1-0.3,0.3-0.6,0.2c-0.1-0.2-0.3-0.4-0.5-0.6h-0.7c-0.1-0.1-0.2-0.2-0.3-0.3h-1.8c-0.1-0.1-0.2-0.2-0.3-0.3
		c-0.7,0-1.4,0-2,0c0,0-0.1,0-0.1,0c-0.2,0.2-0.4,0.3-0.5,0.5c-0.3-0.1-0.1-0.4-0.3-0.6h-2.7c-0.1,0.1-0.2,0.2-0.3,0.3
		c-0.1-0.1-0.2-0.2-0.3-0.3h-0.9c-0.1,0-0.1,0.1-0.1,0.1c0,0,0,0.1,0,0.1c-0.1,0.4-0.2,0.4-0.6,0.2c0-0.1,0.1-0.3-0.1-0.4
		c-0.3-0.1-0.7-0.1-1,0c-0.2,0.2-0.4,0.4-0.5,0.5h-1.2c-0.1-0.1-0.2-0.2-0.3-0.3h-0.3c-0.1,0.1-0.2,0.2-0.3,0.3h-0.6
		c-0.1,0.1-0.2,0.2-0.3,0.3c-0.7,0-1.4,0-2,0c0,0-0.1,0-0.1,0c-0.1,0.1-0.1,0.1-0.2,0.2c-0.5,0.1-1.1-0.1-1.6,0.1
		c-0.2,0.2-0.4,0.4-0.6,0.5h-0.9c-0.3,0.3-0.7,0.6-1,0.9c-0.5,0-0.9,0-1.2,0c-0.1,0.1-0.2,0.3-0.4,0.3c-0.2,0-0.4,0.1-0.5,0.3
		c-0.1,0-0.2,0-0.3,0c-0.1-0.1-0.2-0.2-0.3-0.3c-0.3,0.1,0,0.5-0.3,0.6h-0.3c-0.1,0.1-0.2,0.2-0.4,0.3h-0.9
		c-0.2,0.2-0.4,0.4-0.6,0.6h-0.5c-0.1,0.1-0.2,0.1-0.3,0.2c-0.1,0.1-0.3,0.1-0.4,0.1c-0.2,0.2-0.4,0.4-0.7,0.6h-0.6
		c-0.1,0.1-0.2,0.1-0.2,0.2c-0.1,0.1-0.3,0-0.4,0.1c-0.2,0.1-0.3,0.3-0.5,0.3c-0.2,0-0.3,0.4-0.6,0.3c-0.1,0.1-0.2,0.2-0.4,0.3H195
		c-0.1,0.1-0.2,0.2-0.3,0.3h-0.6c-0.1,0.1-0.2,0.2-0.3,0.3c-0.1,0-0.2,0-0.3,0c-0.1,0.2-0.4,0.3-0.6,0.3c-0.2,0.1-0.3,0.2-0.5,0.3
		c-0.2,0-0.3,0.4-0.6,0.3c-0.1,0.1-0.2,0.2-0.4,0.3h-1.2c-0.2,0.2-0.5,0.5-0.7,0.8v0.5c0.1,0.1,0.2,0.2,0.3,0.3v0.6
		c0.1,0.1,0.2,0.2,0.3,0.3v0.3c0.1,0,0.3,0.1,0.5,0.2c0.2,0.2,0.4,0.4,0.7,0.6c0.1,0.1,0,0.2,0.1,0.3c0,0,0,0.1,0.1,0.1
		c0.3,0.3,0.6,0.6,1,1h0.9c0.1,0.1,0.2,0.2,0.4,0.3h0.6c0.2,0.2,0.4,0.4,0.7,0.6h0.9c0.2,0.2,0.4,0.4,0.6,0.6c0.5,0,1.1,0,1.6,0
		c0.1,0,0.2,0,0.3-0.1c0.1-0.1,0.2-0.3,0.4-0.2c0.2,0,0.3,0,0.3-0.2c0-0.2,0.1-0.4,0.3-0.5c0-0.4,0.3-0.6,0.5-0.8c0.1,0,0.1,0,0.2,0
		c0.1,0,0.2,0,0.3-0.1c0.2-0.2,0.6-0.1,0.8-0.4c0-0.1,0.2,0,0.3-0.1c0.1,0,0.1-0.1,0.2-0.2c0-0.1,0-0.2,0-0.3
		c0.1-0.1,0.3-0.3,0.4-0.4h0.3c0.2-0.2,0.4-0.4,0.6-0.6c0.1,0,0.2,0,0.3,0c0.2-0.2,0.4-0.4,0.7-0.6h0.5c0.2-0.1,0.3-0.4,0.7-0.3
		c0.1-0.1,0.2-0.2,0.3-0.3h0.6c0.1-0.1,0.2-0.2,0.3-0.3h0.6c0.2-0.2,0.4-0.3,0.6-0.3c0.1,0,0.2-0.2,0.3-0.2c0.3,0,0.5,0,0.6-0.1
		c0.1,0,0.2-0.2,0.3-0.2h0.5c0.1-0.1,0.2-0.1,0.2-0.2c0.1-0.1,0.3-0.1,0.4-0.1c0.1-0.1,0.2-0.2,0.3-0.3h0.3c0.1,0.1,0.2,0.2,0.3,0.3
		h0.9c0.1-0.1,0.2-0.2,0.3-0.3c0.4,0,0.7,0,1.1,0c0,0,0.1,0,0.1,0c0.3,0.3,0.3,0.3,0.6,0h0.6c0.1-0.1,0.2-0.2,0.4-0.3h4.6
		c0.1,0.1,0.2,0.2,0.3,0.3h1.8c0.1,0.1,0.2,0.2,0.3,0.3c0.1,0,0.2,0,0.3,0c0.1-0.1,0.2-0.2,0.3-0.3c0.1,0.1,0.2,0.2,0.3,0.2
		c0.4,0.1,0.7,0,1,0.1c0.2,0.2,0.4,0.3,0.5,0.5c0.1,0,0.2,0,0.3,0c0.1-0.1,0.2-0.2,0.3-0.3h0.3c0.1,0.1,0.2,0.2,0.3,0.3h0.9
		c0.1,0.1,0.2,0.2,0.4,0.3h0.9c0.1,0.1,0.3,0.2,0.3,0.3c0.3,0.1,0.6-0.1,0.7,0.2c0,0.1-0.1,0.3,0.1,0.4h0.9c0.1,0.1,0.2,0.2,0.4,0.3
		c0.1,0,0.2,0,0.3,0c0.1,0.1,0.2,0.2,0.3,0.3h0.2c0.5,0.5,1,0.9,1.5,1.4c0,0.1,0,0.1,0,0.2c0.2,0.2,0.4,0.3,0.6,0.6
		c-0.1,0.2,0.1,0.4,0.3,0.6v0.6c0.2,0.2,0.4,0.4,0.6,0.6v0.6c0.1,0.1,0.2,0.2,0.3,0.3v0.8c0.1,0.1,0.2,0.2,0.3,0.3
		c0,0.3,0,0.5,0,0.8c0,0.1,0.1,0.2,0.2,0.2h0.7c0,0.3,0.1,0.6,0.4,0.7c-0.1,0.1-0.3,0.3-0.4,0.4c-0.1,0.1-0.4,0-0.5,0.2
		c0.1,0.1,0.2,0.2,0.3,0.3c-0.1,0.3,0.2,0.4,0.3,0.6c0,0.3,0,0.3-0.3,0.8c-0.1,0.2-0.1,0.5-0.4,0.6c0.3,0.3,0.6,0.6,0.9,0.9
		c-0.1,0.3,0.1,0.5-0.1,0.7c-0.1-0.1-0.2-0.2-0.3-0.3c-0.2,0.2-0.1,0.6-0.4,0.7c0.1,0.1,0.2,0.2,0.3,0.3c-0.1,0.1-0.2,0.2-0.3,0.3
		c0,0.1,0,0.2,0,0.3c0.1,0.1,0.2,0.1,0.2,0.1c0.3,0.1,0.3,0.1,0.3,0.3c0,0.1,0,0.3,0,0.4c-0.1,0.1-0.3,0.2-0.2,0.3
		c0.2,0.2,0.4,0.3,0.6,0.5c-0.2,0.2-0.4,0.4-0.6,0.6v0.6c0.1,0.1,0.2,0.2,0.3,0.3c0,0.1,0,0.2,0,0.3c-0.1,0.2-0.3,0.3-0.3,0.4
		c-0.3,0.1-0.6-0.1-0.8,0.1c0,0.1,0,0.2,0,0.3c0,0.4,0,0.8,0,1.2c0,0.1,0.1,0.2,0.2,0.2c0.1,0,0.1-0.1,0.1-0.2c0,0,0-0.1,0-0.2
		c0.1-0.1,0.3-0.2,0.4-0.4c0.1,0,0.2-0.1,0.3,0c0.2,0,0.2,0.1,0.2,0.3c0,0,0,0.1,0,0.1c0.1,0.1,0.1,0.1,0.2,0.2
		c0.1,0.1,0.1,0.3,0,0.4c-0.1,0.1-0.3,0.3-0.4,0.4c-0.1-0.1-0.2-0.2-0.4-0.3c-0.1,0-0.3,0.1-0.4,0.1c0.1,0.1,0.2,0.2,0.3,0.3
		c-0.1,0.1-0.3,0.3-0.4,0.4c-0.2,0.1-0.4-0.1-0.4,0.2c0.2,0.2,0.4,0.4,0.6,0.6c0,0.4,0,0.8,0,1.1c0,0-0.1,0.1-0.1,0.2
		c-0.2,0.1-0.6-0.1-0.8,0.2c0,0.1-0.1,0.3,0.1,0.4c0.2,0.1,0.4,0,0.6,0c0.1,0,0.2,0.1,0.2,0.1v0.9c-0.2,0.1-0.4,0.1-0.5,0.2
		c-0.2,0.1-0.3,0.2-0.4,0.4c0,0.3,0,0.7,0,1c0,0.1,0.1,0.2,0.1,0.2h0.3c0.1,0.1,0.3,0.3,0.5,0.4c-0.1,0.1-0.3,0.3-0.4,0.4
		c-0.1,0.1-0.3,0.1-0.4,0.1c-0.1,0-0.2,0.1-0.2,0.2c-0.1-0.1-0.2-0.2-0.3-0.3c-0.1,0-0.2,0-0.3,0c-0.3,0.3-0.3,0.3,0,0.6
		c0.1,0.1,0.1,0.1,0.1,0.2c-0.1,0.1-0.1,0.1-0.2,0.2c0.1,0.3,0.5,0.1,0.6,0.3c-0.1,0.1-0.2,0.2-0.3,0.3c0.1,0.1,0.2,0.2,0.3,0.3
		c0,0.1,0,0.2,0,0.3c-0.1,0.2-0.3,0.3-0.4,0.4c-0.2,0-0.3-0.1-0.5,0.1c0,0.1,0,0.2,0,0.4c0,0.2,0.1,0.4-0.1,0.6
		c-0.1,0.1-0.2,0.1-0.2,0.2v1.2c-0.1,0.1-0.2,0.2-0.3,0.3v0.9c0.1,0.1,0.2,0.2,0.3,0.3c0,0.1,0,0.2,0,0.3c-0.1,0.1-0.1,0.1-0.2,0.1
		c-0.4,0.1-0.3,0.1-0.4,0.3v0.7c0.2,0.2,0.4,0.4,0.6,0.6c-0.3,0.3-0.6,0.6-0.9,0.9v0.6c-0.1,0.1-0.2,0.2-0.3,0.3v0.7
		c-0.2,0-0.5,0-0.7,0c-0.1,0.2-0.3,0.3-0.4,0.5c-0.2,0-0.5,0-0.7,0c-0.1,0.1-0.2,0.2-0.2,0.4c0,0.2,0,0.3,0.1,0.4
		c0.1,0.1,0.4,0.2,0.5,0.1c0.2-0.5,0.8-0.2,1-0.8c0,0,0.1,0,0.1-0.1c0,0.1-0.1,0.1-0.1,0.2c0,0.1,0,0.3,0,0.4
		c-0.1,0.1-0.2,0.2-0.3,0.3c0,0.4,0,0.8,0,1.3c0,0.1,0,0.2-0.1,0.3c-0.1,0.1-0.1,0.1-0.2,0.2v0.9c-0.1,0.1-0.2,0.2-0.3,0.3v0.6
		c-0.1,0.1-0.2,0.2-0.3,0.3c0,0.1,0,0.2,0,0.3c-0.2,0.2-0.4,0.3-0.5,0.5c0,0.4-0.3,0.6-0.6,0.8c-0.1,0-0.2,0-0.3,0
		c-0.2,0.2-0.4,0.5-0.7,0.6c-0.8,0-0.8,0-1,0.2c0.1,0.1,0.2,0.2,0.2,0.3c-0.1,0.2-0.3,0.3-0.4,0.5c-0.1-0.1-0.2-0.2-0.2-0.3
		c0-0.1,0-0.3,0-0.4c0-0.1-0.1-0.2-0.2-0.2c-0.2,0-0.5-0.1-0.7,0.1c0.1,0.1,0.2,0.2,0.3,0.3c-0.3,0.2-0.5,0.5-0.8,0.7h-0.6
		c-0.1,0.1-0.1,0.2-0.2,0.2c0,0.1,0,0.2-0.1,0.3c-0.1,0.1-0.1,0.1-0.2,0.2c0,0,0,0.1,0,0.1c0.1,0.1,0.1,0.1,0.2,0.2v0.3
		c0.1,0.1,0.2,0.1,0.2,0.2c0.1,0,0.2,0,0.3,0c0.2-0.2,0.4-0.3,0.5-0.5c0.1,0.1,0.1,0.1,0.2,0.2c0,0.1,0,0.2,0,0.3
		c-0.1,0.1-0.2,0.2-0.3,0.3c0,0.1,0,0.2,0,0.3c0,0.3,0.1,0.4,0.3,0.4h0.7c0.1,0.1,0.3,0.2,0.4,0.3h0.9c0.1,0.1,0.3,0.2,0.3,0.3
		c0.4,0,0.8-0.1,1.2,0c0.2,0.2,0.4,0.4,0.6,0.5c0.1,0,0.2,0,0.3,0c0.1-0.1,0.2-0.2,0.3-0.3h0.4c0.1-0.2,0.3-0.4,0.5-0.6
		c0.2,0,0.3,0,0.4-0.1c0.4-0.4,0.8-0.8,1.2-1.2c0.1-0.1,0.1-0.2,0.2-0.2v-0.4c0.1-0.1,0.1-0.2,0.2-0.2c0.1-0.1,0.1-0.3,0.1-0.4
		c0.1-0.1,0.2-0.2,0.3-0.3v-0.9c0.1-0.1,0.2-0.2,0.3-0.3c0-0.1,0-0.2,0-0.3c0.2-0.1,0.3-0.4,0.3-0.6c0-0.1,0.2-0.2,0.3-0.3
		c0-0.3,0-0.6,0.1-0.9c0.1-0.1,0.2-0.1,0.2-0.2c0,0,0-0.1,0-0.1c0-0.2,0.2-0.3,0.3-0.5v-0.9c0.1-0.1,0.2-0.2,0.3-0.3v-0.3
		c0.1-0.1,0.2-0.2,0.3-0.3c-0.1-0.1-0.2-0.2-0.3-0.3c0-0.1,0-0.2,0-0.3c0.2-0.2,0.4-0.4,0.6-0.6c0-0.4,0-0.8,0-1.3
		c0-0.1,0-0.2,0.1-0.3c0.1-0.1,0.1-0.1,0.2-0.2c0-0.1,0-0.2,0-0.3c0.1-0.1,0.2-0.2,0.3-0.3v-1.2c0.1-0.1,0.2-0.2,0.3-0.3
		c0-0.1,0-0.2,0-0.3c0.1-0.1,0.2-0.2,0.3-0.3v-1.8C236.7,141.8,236.9,141.6,236.9,141.4z M232.8,140.6h-0.3c0-0.1-0.1-0.1-0.2-0.2
		c0-0.1,0-0.3,0.1-0.4c0.1-0.1,0.2-0.2,0.3-0.3c0.1,0.1,0.3,0.3,0.4,0.5C233.1,140.4,232.8,140.4,232.8,140.6z"/>
	<path class="st0" d="M221.1,115.4c-0.2-0.1-0.4,0-0.5-0.2c-0.4-0.5-0.9-0.9-1.4-1.4h-1.8c-0.1-0.1-0.2-0.2-0.3-0.3
		c-0.7,0-1.4,0-2.1,0c0,0-0.1,0-0.1-0.1c-0.1-0.1-0.1-0.1-0.2-0.2c-0.1,0.1-0.2,0.2-0.3,0.3h-0.6c-0.1-0.1-0.2-0.2-0.3-0.3
		c-0.1,0.1-0.2,0.2-0.3,0.3c-0.1-0.1-0.2-0.2-0.2-0.2c-0.4-0.2-0.5,0.2-0.8,0.2c-0.3,0-0.6,0-0.9,0.1c-0.1,0.1-0.1,0.1-0.3,0.2
		c-0.3,0-0.7,0-1,0c-0.4,0-0.8-0.1-1.2,0c-0.1,0.1-0.2,0.2-0.3,0.2h-0.6c-0.2,0.2-0.4,0.4-0.7,0.6c-0.1,0-0.2,0-0.3,0
		c-0.1,0.1-0.2,0.2-0.4,0.3h-0.9c-0.1,0.1-0.1,0.2-0.2,0.2c-0.1,0.1-0.3,0.1-0.4,0.1c-0.2,0.2-0.4,0.4-0.5,0.5c-0.1,0-0.2,0-0.3,0
		c-0.1,0.1-0.2,0.2-0.3,0.3h-0.3c-0.1-0.1-0.2-0.2-0.3-0.3h-0.9c-0.2,0.2-0.4,0.5-0.5,0.5c-0.5,0.2-0.8,0-1.1,0.2
		c-0.2,0.3-0.5,0.5-0.7,0.8c0,0.5,0,0.9,0,1.4c0,0,0,0.1,0,0.1c0.1,0.1,0.2,0.1,0.2,0.2c0,0.1,0,0.2,0.1,0.3
		c0.2,0.2,0.4,0.4,0.6,0.7v0.3c0.1,0.1,0.2,0.2,0.3,0.3v0.3c0.1,0,0.3,0.1,0.5,0.2c0.2,0.2,0.5,0.5,0.9,0.8c0.1,0,0.2,0,0.3,0
		c0.1,0.1,0.2,0.2,0.4,0.3h0.6c0.2,0.4,0.7,0.2,0.9,0.6c0,0,0.1,0,0.1,0c0,0,0.1,0,0.2,0c0.1-0.1,0.2-0.2,0.3-0.3h0.9
		c0.2,0.2,0.4,0.4,0.6,0.6c0.1,0,0.2,0,0.3,0c0.1,0.1,0.2,0.2,0.3,0.3h1.2c0.1-0.1,0.2-0.2,0.2-0.2c0.1,0,0.2,0,0.3-0.1
		c0.1-0.1,0.2-0.2,0.4-0.3c0.1,0,0.2,0,0.3,0c0.2,0.1,0.4,0.3,0.5,0.5c0,0.3,0,0.6,0,0.9c0.1,0.1,0.1,0.1,0.2,0.2c0,0.1,0,0.2,0,0.3
		c0,0.3,0.1,0.5,0.3,0.6c0,0.1,0,0.2,0,0.3c-0.1,0.1-0.2,0.2-0.3,0.3c0.1,0.1,0.2,0.2,0.3,0.3c0,0-0.1,0.1-0.1,0.1
		c-0.4,0-0.8,0-1.2,0.1c-0.1,0.1-0.2,0.2-0.3,0.3c-0.1,0-0.2,0-0.3,0c-0.1,0.1-0.2,0.2-0.3,0.3h-0.9c-0.1,0.1-0.2,0.2-0.4,0.3
		c-0.3-0.2-0.4,0.2-0.6,0.2c-0.1-0.1-0.2-0.2-0.3-0.3c-0.3,0-0.7-0.1-0.8,0.3c0,0-0.1,0-0.1,0c-0.2,0-0.4,0.1-0.4,0.3
		c0,0.4,0,0.9,0,1.3c0.2,0.2,0.4,0.4,0.6,0.6c0.1,0.3,0,0.7,0.1,1c0.1,0.1,0.3,0.3,0.4,0.4c0.3,0,0.6,0,0.9,0
		c0.2,0.2,0.4,0.4,0.5,0.5c0.1,0.1,0.2,0,0.3,0c0.3,0.3,0.6,0.6,0.9,0.9h1.3c0,0.5,0.5,0.1,0.7,0.4v0.5c-0.5,0.5-1,0.9-1.4,1.4
		c-0.1,0-0.2,0-0.3,0c-0.2,0.2-0.4,0.4-0.6,0.5c-0.2,0.1-0.4,0-0.5,0.2c-0.3,0.4-0.7,0.7-1,1c-0.4,0-0.4,0-0.5,0.5
		c-0.4,0.3-0.7,0.7-1.1,1h-0.3c-0.2,0.2-0.5,0.5-0.7,0.8c0,0.1,0,0.2,0,0.3c0,0-0.1,0.1-0.1,0.1c-0.1,0.1-0.1,0.1-0.2,0.2v0.3
		c-0.1,0-0.2,0.1-0.2,0.1c-0.2,0-0.3,0-0.4,0.2v0.6c-0.1,0.1-0.2,0.2-0.3,0.3c-0.1,0.3,0.2,0.4,0.3,0.7c0,0.4-0.1,0.8,0.1,1.2
		c0.4,0.4,0.8,0.7,1.2,1.1c0,0.1,0,0.2,0,0.3c0,0,0.1,0.1,0.1,0.1h0.9c0.2,0.2,0.4,0.4,0.7,0.6h0.6c0.1,0.1,0.2,0.2,0.4,0.3h2.1
		c0.1,0.1,0.2,0.2,0.3,0.3c1.8,0,3.6,0,5.4,0c0,0,0.1,0,0.1,0c0.1-0.1,0.1-0.1,0.2-0.2c0.4-0.1,0.9,0,1.3-0.1
		c0.1-0.1,0.1-0.1,0.2-0.2h0.9c0.1-0.1,0.2-0.2,0.4-0.3h0.6c0.1-0.1,0.2-0.2,0.3-0.3h0.6c0.1-0.1,0.2-0.2,0.3-0.3c0.1,0,0.2,0,0.3,0
		c0.2-0.2,0.4-0.4,0.5-0.5c0.2-0.1,0.4,0,0.5-0.2c0.4-0.4,0.8-0.8,1.2-1.2c0-0.1,0-0.2,0-0.3c0.1-0.1,0.2-0.2,0.3-0.3
		c-0.1-0.1-0.2-0.2-0.3-0.3V141c-0.2-0.2-0.5-0.4-0.6-0.7c-0.1-0.2,0.1-0.4,0.3-0.5c-0.1-0.1-0.2-0.2-0.3-0.3v-1.2
		c-0.1-0.1-0.3-0.2-0.4-0.4c-0.1-0.1-0.3-0.1-0.4,0c-0.1,0.1-0.3,0.3-0.5,0.2c-0.1,0-0.2,0.1-0.2,0.2c0.1,0.3-0.3,0.4-0.3,0.6
		c0,0.4,0.1,0.8,0,1.2c-0.2,0.2-0.4,0.4-0.6,0.6v0.6c-0.1,0.1-0.2,0.2-0.3,0.3c-0.1,0.1-0.2,0.1-0.2,0.1H219
		c-0.3,0.2-0.4,0.4-0.7,0.6h-0.9c-0.1,0.1-0.2,0.2-0.3,0.3h-1.8c-0.1,0.1-0.2,0.2-0.3,0.3c-0.1-0.1-0.2-0.2-0.3-0.3
		c-0.3,0-0.6,0-0.9,0c-0.1,0.1-0.1,0.1-0.2,0.2c-0.2,0.1-0.5,0.1-0.7,0c-0.1-0.1-0.1-0.1-0.2-0.2h-2.1c-0.2-0.2-0.4-0.4-0.7-0.6
		h-1.2c-0.1-0.1-0.2-0.1-0.2-0.2c-0.1-0.1-0.3,0-0.4-0.1c-0.1-0.1-0.2-0.2-0.3-0.3c-0.4,0.1-0.5-0.3-0.7-0.5
		c0.1-0.1,0.2-0.2,0.3-0.4c-0.1-0.3,0.4-0.4,0.3-0.8c0.1-0.2,0.3-0.4,0.5-0.6c0.2-0.3,0.5-0.5,0.7-0.7c0-0.4,0-0.4,0.5-0.5
		c0.1-0.1,0.3-0.2,0.4-0.4c0.1-0.1,0-0.4,0.3-0.5h0.3c0.1-0.1,0.2-0.2,0.4-0.3c0.1,0,0.3,0.1,0.4,0.1v0.9c-0.1,0.1-0.2,0.2-0.3,0.3
		v0.3c-0.2,0.3-0.6,0-0.8,0.2c-0.1,0.1-0.2,0.2-0.3,0.3c-0.1,0.1-0.1,0.3-0.1,0.4c-0.3,0.2-0.3,0.5-0.3,0.8c0,0,0,0.1,0.1,0.1
		c0.3,0.3,0.6,0.6,1,1c0.5,0,1,0,1.5,0c0,0,0.1,0,0.1-0.1c0.1-0.1,0.1-0.1,0.2-0.2h0.6c0.1-0.1,0.2-0.2,0.3-0.3h0.9
		c0.2-0.2,0.5-0.5,0.7-0.8c-0.1-0.1-0.2-0.2-0.3-0.3c0.1-0.1,0.2-0.2,0.3-0.3v-0.6c0.1-0.2,0.3-0.3,0.3-0.5c0-0.2,0.2-0.3,0.3-0.5
		c0-0.2,0-0.4,0-0.6c0-0.2-0.1-0.3-0.3-0.5V135c-0.1-0.1-0.2-0.2-0.3-0.3v-1.2c0.4-0.4,0.4-0.4,0.8-0.5c0.3-0.3,0.6-0.6,0.9-0.9
		c0.1,0,0.2,0,0.3,0c0.9-0.8,0.9-0.8,1.2-0.9c0.3-0.3,0.6-0.6,0.9-0.9c0.1,0,0.2,0,0.4,0c-0.1-0.3,0.1-0.5,0.3-0.7V129
		c0.1-0.1,0.2-0.2,0.3-0.3v-0.6c-0.1-0.1-0.1-0.1-0.2-0.2c-0.1-0.1,0-0.3-0.1-0.4c-0.1-0.1-0.2-0.2-0.3-0.3c0.1-0.4-0.3-0.5-0.5-0.7
		h-1.2c-0.1-0.1-0.2-0.2-0.4-0.3h-1.2c-0.1-0.1-0.2-0.2-0.2-0.2c-0.4-0.1-0.8,0-1.2,0c-0.1,0-0.2-0.1-0.2-0.2v-1.2
		c0.1-0.1,0.2-0.2,0.3-0.3c0.1-0.3-0.2-0.4-0.3-0.7c0-0.3,0-0.6,0-0.9c-0.1-0.1-0.1-0.1-0.2-0.2c-0.1-0.3,0-0.6,0-0.9
		c0-0.1,0.1-0.1,0.2-0.2c0.1,0.1,0.2,0.2,0.3,0.3c0.2-0.2,0.3-0.3,0.5-0.3c0.1,0,0.3,0,0.4,0c0.1-0.1,0.2-0.2,0.2-0.2
		c0.4-0.1,0.9,0.1,1.3-0.1c0.2-0.2,0.4-0.4,0.6-0.5h1.5c0.1-0.1,0.2-0.2,0.3-0.3h1.2c0.2-0.1,0.3-0.3,0.4-0.4c0-0.1,0-0.2,0-0.2
		c0.1-0.4,0.4-0.2,0.5-0.3c0.2-0.3,0.5-0.5,0.7-0.8c0-0.4,0-0.8,0-1.1c-0.1-0.1-0.2-0.3-0.3-0.3v-0.5c-0.1-0.3-0.4-0.4-0.6-0.7v-0.3
		C221.2,115.4,221.2,115.4,221.1,115.4z"/>
	<path class="st0" d="M195.1,142.2c-0.2-0.2-0.4-0.3-0.6-0.5c0-0.2,0-0.4,0-0.6c-0.1-0.1-0.2-0.2-0.3-0.3c0-0.1,0-0.2,0-0.3
		c-0.1-0.1-0.2-0.2-0.3-0.3c0-0.1,0-0.2,0-0.3c-0.1-0.1-0.2-0.2-0.3-0.3c-0.1-0.8-0.1-1.6-0.1-2.3c-0.2-0.3-0.5-0.4-0.6-0.7
		c-0.1-0.4,0-0.8-0.1-1.2c-0.1-0.1-0.3-0.2-0.3-0.4c0-0.2-0.2-0.3-0.3-0.5c0-0.1,0-0.2,0-0.3c-0.1-0.1-0.2-0.2-0.3-0.3
		c0-0.1,0-0.2,0-0.3c0.2-0.2,0.4-0.4,0.5-0.7c-0.2-0.2-0.4-0.3-0.6-0.5c-0.1-0.3,0-0.7-0.2-1c-0.1-0.1-0.2-0.1-0.2-0.2
		c0.1-0.1,0.2-0.2,0.3-0.3c0-0.5-0.1-1-0.1-1.5c-0.1-0.1-0.2-0.2-0.3-0.3c0-0.1,0-0.2,0-0.3c0.1-0.1,0.2-0.2,0.2-0.3
		c-0.1-0.1-0.2-0.2-0.3-0.3c0-0.5-0.1-0.9-0.1-1.4c0,0,0-0.1,0-0.1c0.1-0.1,0.1-0.2,0.2-0.2c-0.1-0.1-0.2-0.2-0.3-0.3
		c-0.1-1.2-0.2-2.4-0.2-3.6c-0.1-0.1-0.2-0.2-0.3-0.3c0-0.3,0-0.6-0.1-0.9c-0.1-0.1-0.2-0.1-0.2-0.1c-0.2,0-0.3,0-0.4-0.2
		c0-0.1,0-0.2,0-0.2c-0.4-0.4-0.8-0.8-1.1-1.1c-0.1,0-0.3,0-0.3,0c-0.2-0.2-0.4-0.3-0.7-0.3c-0.2-0.3-0.5-0.2-0.9-0.2
		c-0.3-0.2-0.6-0.6-1-0.8c-0.4,0-0.8,0-1.2,0.1c0,0-0.1,0.1-0.1,0.1c0,0.1,0,0.3,0,0.4c0.1,1,0.1,2,0.2,3c0,0.1,0,0.2,0,0.3
		c-0.1,0.1-0.1,0.2-0.2,0.2c0,0.3,0,0.6,0.1,0.9c-0.1,0.1-0.2,0.2-0.3,0.4c0,0.1,0,0.2,0,0.3c0.1,0.1,0.2,0.2,0.3,0.3
		c0,0.1,0,0.2,0,0.3c-0.1,0.1-0.2,0.3-0.3,0.4c0.1,0.3-0.2,0.4-0.2,0.6c0,0.3,0,0.5,0,0.6c0.1,0.1,0.2,0.2,0.3,0.2
		c0.1,0.2,0.1,0.4,0.1,0.6c0,0,0,0.1,0,0.1c-0.1,0.1-0.1,0.1-0.2,0.2c0,0.4,0.1,0.8,0.1,1.2c-0.1,0.1-0.2,0.2-0.3,0.4
		c0,0.1,0,0.2,0,0.3c0.1,0.1,0.2,0.2,0.3,0.3c0,0.2,0,0.4,0,0.6c-0.1,0.1-0.2,0.2-0.3,0.3c0,0.3,0,0.6,0.1,0.9
		c0.1,0.1,0.2,0.2,0.3,0.3c0.1,1,0.1,1.9,0.2,2.9c0,0,0,0.1,0,0.1c0.1,0.1,0.2,0.1,0.2,0.2c0.1,0.2,0.1,0.5,0.1,0.7
		c0,0.3,0,0.6,0.1,0.9c0.1,0.1,0.2,0.1,0.3,0.2c0,0.6,0.1,1.2,0.1,1.8c0.1,0.1,0.2,0.2,0.3,0.3c0,0.3,0,0.6,0.1,0.9
		c0.1,0.1,0.2,0.2,0.3,0.3c0,0.6,0.1,1.2,0.1,1.8c0.2,0.1,0.3,0.3,0.5,0.4c0.3,0.1,0.1,0.5,0.4,0.6c0.2,0.1,0.2,0.3,0.2,0.5
		c0,0.1,0,0.2,0.1,0.3c0.1,0.1,0.3,0.2,0.3,0.3c0,0.2,0.2,0.3,0.3,0.5c0,0.1,0,0.2,0,0.3c0.1,0.2,0.4,0.1,0.6,0.2
		c0.2,0.2,0.5,0.4,0.7,0.7c0,0.1,0,0.2,0,0.2c0.3,0.3,0.6,0.6,0.8,0.8c0.4-0.2,0.5,0.2,0.7,0.2c0.2,0,0.4,0,0.6,0
		c0.1,0.1,0.2,0.2,0.3,0.2c0.1-0.1,0.2-0.1,0.2-0.2c0.1-0.1,0.3-0.1,0.4-0.2c0.1,0.1,0.2,0.2,0.3,0.3c0.2,0,0.4,0,0.6,0
		c0.1-0.1,0.2-0.2,0.3-0.3c0.3,0,0.6,0,0.9-0.1c0.1-0.1,0.2-0.2,0.3-0.3c0.2,0.2,0.4,0.3,0.6,0.5c0.3,0,0.6,0.2,0.8-0.2
		c-0.1-0.1-0.2-0.2-0.3-0.3C195.2,144.9,195.1,143.5,195.1,142.2z"/>
	<path class="st0" d="M222.8,131.6c0.1,0.1,0.2,0.2,0.2,0.2v0.9c0.1,0.1,0.2,0.2,0.3,0.3v1.5c0.1,0.1,0.2,0.2,0.3,0.3v0.6
		c0.1,0.1,0.2,0.2,0.3,0.3c0,0.1,0,0.2,0,0.3c0.3,0.3,0.5,0.5,0.7,0.8h0.9c0.3-0.3,0.5-0.6,1-0.6c0.4-0.4,0.9-0.8,1.3-1.3
		c0.1-0.1,0-0.2,0-0.3c0.3-0.3,0.6-0.6,0.9-0.9c0-0.1,0-0.2,0-0.3c-0.2-0.2-0.4-0.3-0.5-0.5c0,0,0-0.1-0.1-0.1c0-0.1,0-0.2,0-0.3
		c-0.2-0.2-0.4-0.4-0.5-0.5c0-0.1,0-0.2,0-0.3c-0.2-0.2-0.4-0.4-0.6-0.6c0-0.1,0-0.2,0-0.3c-0.3-0.1-0.2-0.5-0.4-0.7
		c-0.1,0-0.2,0-0.3,0c-0.2-0.2-0.4-0.4-0.6-0.6c-0.1,0-0.2,0-0.3,0c-0.1-0.1-0.2-0.2-0.3-0.3c-0.4-0.1-0.4,0.2-0.6,0.3
		c-0.3,0-0.5,0-0.6,0c-0.3,0.3-0.6,0.6-0.9,0.9c-0.1,0.1-0.1,0.2-0.2,0.2C222.8,130.8,222.7,131.2,222.8,131.6z"/>
	<path class="st0" d="M223.8,150.3c0.2,0,0.5,0,0.7,0c0.1-0.2,0.3-0.3,0.4-0.5c0.1,0,0.2,0,0.4,0c0.1-0.2,0.3-0.3,0.4-0.5
		c0.4,0,0.7,0,1.1,0c0.2-0.3,0.4-0.5,0.7-0.5c0.2-0.2,0.3-0.4,0.5-0.6c0-0.5,0-0.9-0.1-1.4c0-0.1-0.1-0.1-0.1-0.2
		c-0.2,0.1-0.4,0.3-0.5,0.5c-0.1,0.2-0.1,0.5-0.2,0.8c-0.3,0-0.5,0-0.8,0c-0.1-0.1-0.3-0.3-0.4-0.4c-0.1,0.2-0.3,0.3-0.4,0.4
		c-0.9,0-1.7,0-2.6,0c-0.2,0.2-0.3,0.4-0.5,0.6c-0.1,0.1-0.2,0.1-0.3,0.2c-0.4,0-0.7-0.1-1.1,0.1c-0.1,0.1-0.2,0.2-0.3,0.3
		c-0.1-0.1-0.3-0.3-0.4-0.4c-0.4,0-0.7,0-1.1,0c-0.1,0.1-0.3,0.3-0.4,0.4c-0.1,0-0.2,0-0.3,0c-0.1,0.2-0.3,0.3-0.4,0.5
		c-0.6,0-1.2,0-1.8,0c-0.2,0.2-0.3,0.3-0.4,0.4c-0.4,0-0.8-0.1-1.1,0.1c-0.1,0.1-0.2,0.2-0.3,0.3c-0.6,0.2-1.3-0.1-2,0.1
		c-0.1,0.1-0.2,0.2-0.3,0.4c-0.5,0-1,0-1.5,0c-0.1,0.2-0.3,0.3-0.4,0.5c-1,0-2,0-3,0c-0.1,0.2-0.3,0.3-0.4,0.4
		c-0.1-0.1-0.3-0.3-0.4-0.4c-1.8,0-3.5,0-5.2,0c-0.2,0.2-0.3,0.3-0.4,0.4c-0.8,0-1.5,0-2.3,0.1c0,0-0.1,0.1-0.2,0.2
		c0.3,0.4,0.7,0.7,1,1.1c0.2,0.2,0.2,0.5,0.3,0.8c0.2,0.3,0.5,0.5,0.7,0.8c0.1,0.6,0.1,0.6,0.7,0.8c0.2,0.3,0.5,0.5,0.7,0.8
		c0.3,0,0.6,0.2,0.8,0.5c0.1,0,0.2,0,0.4,0c0.1,0.1,0.3,0.3,0.4,0.4c0.6,0,1.2,0,1.9,0c0.1-0.1,0.3-0.3,0.4-0.5c0.7,0,1.5,0,2.2,0
		c0.1-0.2,0.3-0.3,0.4-0.5c0.5,0,1,0,1.4,0c0.2-0.2,0.3-0.3,0.3-0.3c0.5-0.2,0.9,0,1.2-0.2c0.2-0.3,0.4-0.5,0.6-0.8
		c0.4,0,0.7,0,1.1,0c0.1-0.2,0.3-0.3,0.4-0.5c0.5,0,1,0,1.6,0c0.1-0.2,0.3-0.6,0.5-0.9c0.5,0,0.8,0,1.2,0c0.2-0.3,0.4-0.5,0.6-0.8
		c0.1-0.1,0.4-0.1,0.5,0c0.1,0.1,0.2,0.2,0.3,0.3c0.2-0.3,0.5-0.6,0.7-0.9c0.1,0,0.2,0,0.4,0c0.1-0.1,0.2-0.2,0.3-0.3
		c0.1-0.2,0.3,0,0.5-0.2c0.1-0.1,0.3-0.3,0.4-0.4c0.5,0.1,0.6-0.4,0.8-0.7c0-0.1,0-0.3,0-0.4c0-0.1,0.1-0.1,0.1-0.2
		c0.3,0.3,0.5,0.6,0.8,0.9c0.2-0.3,0.4-0.5,0.6-0.8c0,0,0.1,0,0.1,0c0.1,0.1,0.2,0.2,0.3,0.3C223.6,150.6,223.7,150.5,223.8,150.3z"
		/>
	<path class="st0" d="M234.6,117.2c-0.2,0.2-0.2,0.4,0,0.6C234.8,117.6,234.8,117.4,234.6,117.2z"/>
	<path class="st0" d="M118.5,113.6c0-0.2,0-0.5,0-0.7c-0.1-0.1-0.3-0.3-0.4-0.4c0.1-0.1,0.2-0.3,0.3-0.4c-0.2-0.2-0.4-0.3-0.4-0.6
		c0-0.3-0.5-0.4-0.4-0.8c0-0.1-0.1-0.2-0.2-0.3c-0.1-0.1-0.3-0.3-0.4-0.4c-0.1,0-0.3,0-0.4,0c-0.4-0.4-0.8-0.7-1.1-1.1
		c-0.1,0-0.2,0-0.4,0c-0.3-0.2-0.5-0.5-0.8-0.7c-0.1,0.1-0.3,0.2-0.4,0.4c-0.3-0.5-0.8-0.4-1.2-0.3c-0.1,0.1-0.2,0.2-0.3,0.3
		c-0.4,0.1-0.9,0-1.3,0.1c-0.1,0-0.2,0.1-0.3,0.1c-0.1,0.1-0.2,0.2-0.3,0.3c-0.3,0-0.6,0-0.6,0.5c0,0.2-0.2,0.3-0.3,0.5
		c0,0.5,0.1,1.1,0.1,1.7c0,0.1,0.1,0.2,0.1,0.3c0.1,0.1,0.2,0.2,0.3,0.3c-0.1,0.1-0.2,0.3-0.3,0.4c0,0.4,0,0.7,0.1,1.1
		c-0.2,0.3-0.5,0.6-0.7,0.9c0,0.3,0,0.5,0,0.7c-0.1,0.2-0.2,0.3-0.3,0.4c0,0.3,0,0.6,0,0.8c-0.4,0.2-0.2,0.8-0.6,1.1
		c-0.3,0.2-0.5,0.5-0.8,0.8c0,0.3,0,0.6,0,0.8c-0.1,0.2-0.3,0.3-0.3,0.5c0,0.1,0,0.2,0,0.4c-0.5,0.5-0.9,1-1.4,1.5
		c-0.1,0.1-0.2,0.2-0.3,0.2c-0.5,0-0.6,0.4-0.8,0.7c0,0.2,0,0.5,0,0.6c-0.3,0.4-0.6,0.8-0.8,1.1c-0.3,0-0.6,0-0.8,0
		c-0.2,0.1-0.3,0.3-0.4,0.4c-0.2,0-0.5,0-0.6,0c-0.2,0.2-0.4,0.4-0.6,0.6c0,0.3,0,0.6,0,0.8c-0.1,0.2-0.2,0.3-0.3,0.4
		c0.1,1.1,0.1,2.1,0.2,3.1c0.2,0.2,0.3,0.3,0.4,0.5c0.1,0.2,0,0.5,0.1,0.7c0.2,0.2,0.3,0.4,0.4,0.6c0,0.2,0.2,0.3,0.4,0.5
		c0,0.1,0,0.3,0,0.5c0,0.3,0,0.3,0.5,0.4c0.1,0,0.1,0,0.2,0.1c0.2,0.2,0.5,0.5,0.7,0.7c0.1-0.1,0.3-0.2,0.4-0.4c0.2,0,0.5,0,0.7,0
		c0.3-0.1,0.1-0.5,0.3-0.7c0.2-0.2,0.3-0.3,0.5-0.5c0.4,0.2,0.5-0.3,0.7-0.3c0.2,0.1,0.3,0.2,0.4,0.3c0.2,0,0.4,0,0.7,0
		c0.1-0.1,0.2-0.2,0.4-0.4c0.5,0,1,0,1.5,0c0.4,0.4,0.9,0.9,1.4,1.4c0,0,0,0.2,0,0.3c0.1,0.1,0.3,0.3,0.4,0.4c0,0.1,0,0.3,0,0.4
		c0.1,0.1,0.3,0.3,0.4,0.4c0,0.4,0,0.8,0.1,1.1c0.1,0.2,0.3,0.3,0.4,0.4c0,0.3,0,0.6,0,0.8c-0.1,0.1-0.2,0.2-0.3,0.3
		c0.1,0.3,0.5,0.4,0.4,0.8c-0.1,0.1-0.2,0.3-0.3,0.4c0.3,0.3,0.5,0.5,0.8,0.8c-0.2,0.2-0.4,0.3-0.3,0.7c0,0.2,0,0.4,0,0.5
		c-0.1,0.1-0.2,0.2-0.2,0.3c-0.2,0.6,0,1-0.1,1.4c-0.2,0.2-0.3,0.4-0.2,0.7c-0.2,0.2-0.3,0.5-0.6,0.6c-0.1,0-0.3,0-0.4,0
		c-0.2,0-0.4,0-0.5,0.2c0,0.4,0,0.8,0.1,1.1c-0.3,0.4-0.8,0.7-0.7,1.2c-0.4,0.2-0.3,0.7-0.3,1.1c-0.1,0.1-0.2,0.3-0.3,0.4
		c0,0.6,0.1,1.3,0.1,1.9c0.1,0.1,0.2,0.3,0.4,0.4c0,0.1,0,0.2,0,0.4c0.3,0.3,0.7,0.6,1,0.9c0.2,0,0.5,0,0.7,0c0.4-0.5,0.9-1,1.3-1.5
		c0.3-0.2,0.6,0,0.7-0.4c0-0.4,0-0.7-0.1-1.1c0.4-0.2,0.2-0.7,0.5-1c0.1,0,0.2,0,0.3,0c0.2-0.1,0.2-0.3,0.2-0.5
		c0-0.2,0.2-0.3,0.3-0.5c0-0.6-0.1-1.2-0.1-1.9c0.2-0.2,0.5-0.5,0.7-0.6c0-0.4,0-0.6,0-0.9c0.1-0.1,0.2-0.3,0.4-0.4
		c0-0.4,0-0.8-0.1-1.1c0.1-0.2,0.3-0.3,0.4-0.4c0,0,0.1-0.1,0.1-0.1c0.3-0.3,0.3-0.4,0-0.8c-0.3-0.3-0.3-0.4,0-0.8
		c0,0,0.1-0.1,0.1-0.1c0-0.2,0-0.5,0-0.8c0.1-0.1,0.2-0.3,0.4-0.4c0-0.3,0-0.5,0-0.8c-0.1-0.1-0.3-0.3-0.4-0.4c0-0.1,0-0.3,0-0.4
		c0.1-0.2,0.2-0.3,0.4-0.5c0-0.3,0-0.5,0-0.7c0.1-0.2,0.3-0.2,0.3-0.5c-0.2-0.2-0.4-0.3-0.3-0.7c0.1-0.1,0.2-0.3,0.3-0.4
		c-0.1-0.1-0.3-0.3-0.4-0.4c0.1-0.1,0.2-0.3,0.3-0.4c-0.1-0.2-0.3-0.3-0.4-0.4c0-0.6-0.1-1.2-0.1-1.8c0-0.1,0-0.1-0.1-0.2
		c0,0-0.1-0.1-0.1-0.1c-0.1-0.1-0.1-0.2-0.2-0.3c0-0.6,0-0.6-0.4-1c0-0.2,0-0.5,0-0.8c-0.3-0.3-0.6-0.5-0.8-0.8c0-0.1,0-0.3,0-0.2
		c-0.7-0.7-1.3-1.2-2-1.9c-0.3-0.1-0.8,0.2-1.2-0.2c0-0.4,0-0.8-0.1-1.2c0.3-0.3,0.6-0.6,0.9-1c0.5,0,0.5,0,0.5-0.5
		c0-0.1,0-0.1,0.1-0.4c0.5-0.5,1.1-1.2,1.7-1.9c0-0.1,0-0.2,0-0.3c0.3-0.3,0.6-0.7,0.8-0.9c0.2,0,0.3,0,0.4,0
		c0.2-0.2,0.3-0.4,0.5-0.6c0-0.4,0-0.4,0.2-0.6c0.3,0,0.7,0,1.1,0c0.1,0,0.2-0.1,0.3-0.2c0-0.2,0-0.5,0-0.8c0.3-0.1,0.4-0.5,0.4-0.7
		c0.2-0.2,0.3-0.4,0.5-0.6c0.2,0,0.4,0.1,0.6-0.2c0-0.2,0-0.5,0-0.8C118.7,113.9,118.6,113.8,118.5,113.6z"/>
	<path class="st0" d="M175.9,117.9c0-0.2,0-0.4-0.2-0.5c-0.1,0-0.2,0-0.4,0c-0.4-0.4-0.8-0.7-1.1-1.1c0,0-0.1,0-0.2-0.1
		c-0.5,0-1,0.1-1.5,0c-0.1-0.1-0.2-0.2-0.3-0.3c-0.3,0-0.6,0-0.9,0l0,0c-0.2,0-0.4,0-0.6,0c-0.1,0.1-0.2,0.2-0.4,0.4
		c-0.1-0.1-0.3-0.2-0.4-0.4c-0.1,0-0.2,0-0.4,0c-0.1,0.1-0.2,0.2-0.2,0.3c0,0,0,0.1,0,0.1c-0.3,0-0.7,0-1,0c0,0,0,0,0,0
		c-0.2,0-0.4,0-0.6,0h-0.1c0,0,0,0-0.1,0.1c-0.1,0.1-0.2,0.1-0.3,0.3c-0.4,0-0.9,0-1.3,0c-0.5,0-1-0.1-1.4,0.1
		c-0.1,0.1-0.2,0.2-0.3,0.3c-0.5,0-1,0-1.5,0c-0.1,0.1-0.3,0.3-0.4,0.4c-0.2,0-0.5,0-0.7,0c-0.1-0.1-0.3-0.3-0.4-0.4
		c-0.1,0-0.3,0-0.4,0c-0.1,0.1-0.2,0.2-0.3,0.3c0,0-0.1,0.1-0.1,0c-0.4-0.3-0.4-0.3-0.7,0c-0.1-0.1-0.3-0.2-0.4-0.3
		c-0.1,0.1-0.2,0.2-0.4,0.4c-0.2,0-0.5,0-0.7,0c-0.1,0.1-0.3,0.3-0.4,0.4c-0.5,0-1,0-1.5,0c-0.1,0.1-0.3,0.2-0.4,0.4
		c-0.1-0.1-0.2-0.2-0.4-0.3c-0.4,0-0.8,0-1.2,0c-0.1-0.1-0.2-0.1-0.2-0.2c-0.2-2.8-0.3-5.7-0.5-8.5c-0.3-0.3-0.6-0.5-0.8-0.9
		c0-0.4,0.1-0.8-0.4-1c0,0-0.1-0.1-0.1-0.2c0-0.5-0.3-0.4-0.6-0.5c-0.4-0.4-0.8-0.7-1.1-1.1c-0.1,0-0.2,0-0.4,0
		c-0.1-0.1-0.3-0.2-0.4-0.4c-0.2,0-0.5,0-0.7,0c-0.2-0.1-0.3-0.3-0.4-0.4c-0.1,0-0.2,0-0.4,0c-0.1-0.1-0.3-0.2-0.4-0.3
		c-0.1,0.1-0.3,0.2-0.4,0.3c-0.2-0.1-0.3-0.3-0.5-0.3c-0.4,0-0.8-0.1-1.1,0.1c-0.1,0.1-0.2,0.2-0.3,0.3c-1.1,0-2.2,0-3.4,0.1
		c-0.1,0.1-0.3,0.3-0.4,0.4c-0.2,0-0.5,0-0.7,0c-0.1,0.1-0.3,0.3-0.4,0.4c-0.1,0-0.2,0-0.4,0c-0.1,0.1-0.3,0.3-0.4,0.4
		c-0.2,0-0.5,0-0.7,0c-0.2,0.3-0.4,0.4-0.8,0.4c-0.1,0-0.2,0-0.4,0.1c-0.2,0.2-0.4,0.5-0.6,0.7c-0.5,0-1,0-1.5,0
		c-0.1,0.1-0.3,0.3-0.4,0.4c-0.1,0-0.2,0-0.4,0c-0.1,0.1-0.3,0.3-0.4,0.4c-0.4,0-0.8,0-1.1,0c-0.1,0.1-0.3,0.3-0.4,0.4
		c-0.3,0-0.5,0-0.8,0c-0.4-0.4-0.4-0.4-1.2-0.3c-0.1,0.1-0.3,0.3-0.4,0.4c0,0-0.1,0.1-0.1,0.1c0.1,1.2,0.1,2.3,0.2,3.5
		c0.7,0.7,1.4,1.4,2.2,2.1c0.2,0,0.5,0,0.8,0c0.4,0.4,0.8,0.8,1.2,1.2c0.2,0,0.3,0,0.4,0c0.2,0.2,0.4,0.4,0.6,0.5c0,0.1,0,0.2,0,0.5
		c-0.2,0.2-0.5,0.4-0.8,0.7c0.3,0.4-0.1,0.9,0.3,1.3c0.1,0,0.2,0,0.4,0c0.1,0.1,0.3,0.3,0.4,0.4c0.1,0,0.2,0,0.4,0
		c0.3,0.2,0.1,0.8,0.7,1c-0.3,0.3-0.6,0.6-1,1c-0.2,0-0.6,0-1,0c-0.1,0.1-0.3,0.3-0.4,0.4c-0.7,0-1.5,0-2.2,0
		c-0.1,0.1-0.3,0.3-0.4,0.4c-0.1-0.1-0.3-0.2-0.4-0.4c-0.1,0-0.3,0-0.4,0c-0.1,0.1-0.3,0.3-0.4,0.4c-0.6,0-1.2,0-1.7,0
		c-0.1,0-0.1,0-0.2,0.1c-0.1,0.1-0.2,0.2-0.3,0.4c-0.2-0.2-0.4-0.5-0.7-0.4c-0.1,0.1-0.2,0.2-0.4,0.4c-0.9,0-1.7,0-2.6,0.1
		c-0.1,0.1-0.3,0.3-0.4,0.4c-0.5,0-1,0-1.5,0c-0.3,0.3-0.5,0.6-0.8,0.8c-0.4,0-0.7,0.1-1.1,0c-0.5-0.5-0.6-0.5-1.1,0.1
		c-0.1-0.1-0.3-0.2-0.4-0.4c0,0-0.1,0.1-0.1,0.1c-0.1,0.6,0,1.1,0.1,1.7c0.1,0.1,0.2,0.2,0.3,0.3c0,0.4,0.2,0.6,0.5,0.8
		c0,0.1,0,0.2,0,0.3c0.6,0.6,1.3,1.2,1.9,1.8c0.1,0,0.2,0,0.3,0c0.2,0.1,0.3,0.3,0.4,0.3c0.9,0,1.8,0,2.6-0.1
		c0.2-0.2,0.3-0.4,0.5-0.4c0.3,0,0.4-0.2,0.6-0.4c0.2,0,0.5,0,0.7,0c0.1-0.1,0.3-0.3,0.4-0.4c0.5,0,1,0,1.5,0
		c0.1-0.1,0.3-0.3,0.4-0.4c0.5,0,1,0,1.5,0c0.1-0.1,0.3-0.3,0.4-0.4c0.7,0,1.3,0,1.9,0c0.2,0.1,0.3,0.2,0.4,0.3
		c0.2-0.3,0.4-0.5,0.7-0.7c0.8-0.1,1.6,0,2.4-0.1c0.1-0.1,0.2-0.2,0.3-0.3c0.2,0,0.5,0,0.8,0c0.2,0.1,0.2,0.3,0.2,0.5
		c0.1,0.2,0.3,0.4,0.4,0.6c0,0.3,0.1,0.5,0,0.8c-0.1,0.1-0.2,0.2-0.3,0.3c0,0.8,0.1,1.5,0.1,2.3c0,0.1-0.1,0.1-0.2,0.2
		c-0.4,0-0.8,0-1.2,0c-0.4,0-0.8,0-1.1,0c-0.4,0-0.9,0-1.3,0c-0.4,0-0.9,0-1.3,0.1c-0.1,0.1-0.2,0.2-0.3,0.3c-0.2,0-0.3,0-0.5,0
		c-0.2,0-0.4,0-0.4,0.2c0,0.4,0,0.8,0.1,1.1c0.1,0.2,0.3,0.3,0.4,0.4c0,0.4,0,0.8,0.1,1.1c0.2,0.2,0.3,0.3,0.4,0.5
		c0.1,0.2,0.1,0.4,0.3,0.5c0.1,0,0.2,0,0.3,0c0.2,0.1,0.3,0.3,0.5,0.4c0.4,0,0.8,0,1.1,0c0.2,0.1,0.3,0.3,0.4,0.3
		c0.5,0.1,0.8,0,1.2,0.1c0.2,0.1,0.3,0.3,0.4,0.3c0.4,0,0.7,0,1,0c0.1,0,0.2,0.1,0.3,0.2c0,0.4,0,0.8,0.1,1.1
		c-0.1,0.2-0.2,0.3-0.3,0.4c0.1,0.2,0.3,0.3,0.4,0.4c0,0.3,0,0.5,0,0.7c-0.1,0.1-0.2,0.2-0.3,0.3c0,0.2,0,0.4,0,0.5
		c0,0.2,0.1,0.5,0,0.7c-0.1,0.1-0.2,0.2-0.3,0.3c0,0.5,0.1,1,0.1,1.6c0.1,0.1,0.3,0.3,0.4,0.4c-0.1,0.1-0.2,0.3-0.3,0.4
		c0,0.1,0,0.3,0,0.4c-0.1,0.2-0.2,0.3-0.3,0.4c0,0.4,0,0.8,0.1,1.2c0.1,0.1,0.2,0.2,0.3,0.3c0,0.3-0.3,0.4-0.3,0.7
		c0.1,0.1,0.1,0.8,0,0.7c-0.3-0.1-0.5,0.3-0.7,0.6c0,0.1,0,0.3,0,0.4c-0.1,0.2-0.2,0.3-0.3,0.4c0,0.1,0,0.3,0,0.4
		c0.1,0.1,0.3,0.3,0.3,0.4c0,0.3,0,0.6,0,0.8c-0.5,0.2-0.1,0.9-0.6,1.1c0,0.4,0,0.8,0.1,1.1c-0.1,0.2-0.2,0.3-0.4,0.5
		c0,0.4,0,0.8,0.1,1.1c-0.1,0.1-0.2,0.3-0.4,0.4c0,0.3,0,0.5,0,0.8c0.1,0.1,0.3,0.3,0.4,0.4c-0.1,0.3-0.3,0.2-0.6,0.2
		c-0.1,0.1-0.2,0.3-0.4,0.5c-0.1,0.1-0.1,0.4,0.1,0.5c0.1,0.1,0.2,0.2,0.3,0.3c-0.2,0.3-0.5,0.6-0.7,0.8c0,0.1,0,0.2,0,0.4
		c-0.1,0.2-0.2,0.3-0.4,0.5c0,0.5,0.1,1,0.2,1.5c0,0,0.1,0.1,0.1,0.1c0.3-0.1,0-0.6,0.4-0.8c0.2,0,0.4,0.1,0.5-0.2
		c0.1-0.4,0-0.8,0-1.1c0-0.1,0.1-0.2,0.2-0.3c0.2,0,0.5,0,0.7,0c0.1-0.1,0.1-0.1,0.1-0.2c0-0.1,0-0.2,0-0.4c0.2-0.3,0.5-0.5,0.7-0.8
		c-0.1-0.1-0.3-0.3-0.4-0.4c0-0.6-0.1-1.1-0.1-1.6c0.4-0.4,0.7-0.8,1-1.1v-0.4c0.1-0.1,0.2-0.3,0.4-0.4c0-0.1,0-0.3,0-0.4
		c-0.1-0.1-0.2-0.2-0.3-0.2c-0.2,0-0.4,0-0.6,0c-0.1,0-0.2-0.1-0.3-0.2c0.4-0.1,0.4-0.5,0.4-0.8c0.5-0.5,0.9-1,1.4-1.5
		c0-0.4,0-0.8-0.1-1.2c0.1-0.1,0.2-0.3,0.4-0.4c0-0.5-0.1-1-0.1-1.5c0.2-0.2,0.5-0.4,0.3-0.8c-0.1-0.1-0.2-0.2-0.3-0.3
		c0,0,0-0.1,0-0.1c0.2-0.2,0.4-0.5,0.6-0.7c0-0.8-0.1-1.5-0.1-2.3c0.1-0.2,0.2-0.3,0.4-0.4c0-0.6-0.1-1.3-0.1-1.9
		c0.1-0.2,0.2-0.3,0.4-0.4c0-0.5-0.1-1-0.1-1.5c0.2-0.2,0.4-0.3,0.3-0.7c0-0.2,0-0.4,0-0.5c0.1-0.1,0.2-0.2,0.3-0.3
		c0-0.1,0-0.2,0-0.4c0-0.3,0-0.7-0.1-1c0-0.2,0-0.4,0.2-0.5c0.1-0.1,0.2,0,0.3,0c0.2-0.1,0.3-0.3,0.4-0.4c0.2-0.1,0.4,0.2,0.5,0
		c0.1-0.3,0.3-0.1,0.5-0.2c0.1-0.1,0.4-0.1,0.5-0.2c0.2,0,0.6,0,0.8-0.1c0.1,0,0.2,0,0.4,0c0.1-0.1,0.3-0.3,0.4-0.4
		c0.1,0,0.2,0,0.4,0c0.1-0.1,0.3-0.3,0.4-0.4c0.1,0,0.3,0,0.4,0c0.1-0.1,0.2-0.2,0.3-0.3c0.2-0.2,0.4-0.1,0.6,0.1
		c0.1,0.2,0.2-0.3,0.4-0.1c0.5,0.1,1,0,1.5,0c0.1,0,0.2-0.1,0.3-0.2c0-0.1,0-0.2,0-0.4c0.3-0.4,0.7-0.8,1-1.2
		c-0.1-0.1-0.2-0.3-0.4-0.4c0.1-0.2,0.3-0.4,0.5-0.6c0.2,0,0.5,0,0.6-0.3c0.1-0.2,0.3-0.4,0.5-0.6c0.2-0.2,0.1-0.5,0.2-0.7
		c0.2-0.2,0.4-0.5,0.6-0.7c0.1-0.3-0.1-0.6,0.1-0.9c0.1,0,0.2,0,0.3-0.1c0.1,0,0.2-0.1,0.3-0.2c0-0.4,0-0.8-0.1-1.2
		c0.2-0.2,0.3-0.4,0.5-0.6c0.5,0,1,0,1.5,0c0.1-0.1,0.3-0.3,0.4-0.4c0.5,0,1,0,1.5,0c0.1-0.1,0.3-0.3,0.4-0.4c0.3,0,0.5,0,0.7,0
		c0.2,0.1,0.3,0.3,0.4,0.4c0.5,0,0.5-0.1,0.5-0.4c0-0.3,0.1-0.4,0.3-0.4c0.6,0,1.1,0,1.7,0c0.1,0,0.1,0,0.2,0.1
		c0.1,0.1,0.2,0.2,0.3,0.3c0.1-0.1,0.2-0.1,0.2-0.2c0.1-0.2,0.3-0.2,0.5-0.2c0.1-0.1,0.3-0.3,0.4-0.4c0.4,0,0.8,0,1.1,0
		c0.1,0.1,0.3,0.2,0.4,0.4c0.1-0.1,0.3-0.3,0.4-0.4c0.3,0,0.4-0.2,0.6-0.3c0.2-0.2,0.6-0.1,0.8-0.4c0-0.1,0.2,0,0.2,0.2
		c0,0.2,0,0.4,0.2,0.5c0.1,0,0.2,0,0.4,0c0.1-0.1,0.3-0.3,0.4-0.4c0.2,0,0.5,0,0.7,0c0.1,0.1,0.3,0.3,0.4,0.4c0.3,0,0.5,0,0.7,0
		c0.1-0.1,0.3-0.3,0.4-0.4c0.2,0,0.5,0,0.7,0c0.1-0.1,0.1-0.1,0.1-0.2c0.1-0.1,0.1-0.1,0.2-0.2c0.1,0,0.2,0,0.3,0c0,0,0,0,0,0
		c0.1,0,0.1,0.1,0.2,0.2c0.4,0.3,0.5,0.3,0.8-0.1c0,0,0.1-0.1,0.1-0.1l0,0c0,0,0,0,0,0c0.4,0,0.8,0,1.1,0c0.1-0.1,0.3-0.4,0.4-0.4
		c0.5-0.1,0.5-0.1,0.5-0.6c0.2-0.2,0.3-0.5,0.6-0.6c0.2,0,0.4,0,0.6,0c0.3-0.2,0.5-0.4,0.6-0.6c0-0.3,0-0.5,0-0.8
		C176,118.5,175.9,118.2,175.9,117.9z M141.5,118.3c0-0.4-0.3-0.7-0.6-0.9c-0.1-0.1-0.2-0.2-0.3-0.3c0-0.1,0-0.2,0-0.4
		c0-0.1-0.1-0.1-0.1-0.1c-0.3-0.2-0.6,0-0.9-0.1c-0.2-0.1-0.1-0.4-0.2-0.5c0.3-0.3,0.6-0.7,0.9-1c0.1,0,0.2,0,0.4,0
		c0.1-0.1,0.3-0.3,0.4-0.4c0.8,0,1.5,0,2.3,0c0.1,0.1,0.3,0.3,0.4,0.4c0.5,0,1,0,1.5,0c0.1,0.2,0.1,0.3,0.3,0.7
		c0.3,0.3,0.7,0.7,1.1,1.1c0,0.1,0,0.3,0,0.4c0.3,0.3,0.5,0.6,0.8,0.9c0,0.3,0.2,0.5,0.4,0.6c0,0.3-0.3,0.4-0.4,0.6
		c-0.5,0.2-1.1,0-1.6,0.1c-0.1,0.1-0.2,0.2-0.3,0.3c-0.7,0.1-1.6,0-2.3,0.1c-0.1,0.1-0.2,0.2-0.3,0.3c-0.4-0.2-0.6-0.6-1-0.8
		c0,0-0.1-0.1-0.1-0.2C141.9,118.7,141.7,118.5,141.5,118.3z M148.4,127.5c0,0.1,0,0.2,0,0.4c-0.3,0.3-0.7,0.4-1,0.8
		c-0.1,0-0.3,0-0.4,0c-0.1,0.1-0.2,0.3-0.4,0.5c-0.4,0-0.6,0.2-1,0.2c-0.1,0.1-0.3,0.3-0.4,0.4c-0.4,0-0.7,0-1.1,0
		c-0.1,0.1-0.2,0.2-0.3,0.3c-0.1,0-0.1,0.1-0.2,0.1c-0.5,0-1,0.1-1.4,0c-0.3-0.2-0.5-0.4-0.6-0.5c0-0.3,0-0.6,0-0.8
		c0.1-0.2,0.2-0.3,0.4-0.5c0-0.5-0.1-1-0.1-1.5c0.1-0.1,0.2-0.2,0.3-0.3c0.1-0.2,0-0.4,0.1-0.5c0.1-0.2,0.3-0.4,0.4-0.5
		c0.6,0,1.1,0,1.6,0c0.2,0.1,0.3,0.3,0.4,0.4c0.3,0.1,0.5-0.1,0.6-0.3c0.1,0,0.1-0.1,0.2-0.1c1,0,2,0,2.9-0.1
		c0.1,0.1,0.2,0.1,0.2,0.2c0,0.5,0.1,1,0.1,1.6C148.6,127.2,148.5,127.3,148.4,127.5z"/>
	<path class="st0" d="M289.3,102.9c0.2-0.1,0.3-0.3,0.4-0.4h0.7c0.2-0.1,0.4-0.3,0.5-0.3c0.3,0,0.4-0.2,0.6-0.4h0.8
		c0.2-0.2,0.4-0.5,0.6-0.7h0.5c0.1-0.1,0.3-0.2,0.4-0.4c0.1,0,0.3,0,0.4,0c0.3-0.2,0.5-0.5,0.8-0.7c0.3,0,0.5,0,0.7,0
		c0.3-0.3,0.5-0.5,0.7-0.7h0.4c0.4-0.4,0.8-0.8,1.2-1.1c0.2,0,0.3,0,0.4-0.1c0.2-0.2,0.4-0.4,0.7-0.7h0.7c0.2-0.2,0.4-0.3,0.5-0.5
		c0.1-0.2,0-0.5,0.3-0.6h0.3c0.2-0.2,0.4-0.3,0.5-0.5c0-0.1,0-0.1,0-0.2c0-0.1,0-0.2,0-0.4c0-0.3,0-0.3,0.5-0.4c0.1,0,0.1,0,0.2-0.1
		c0.4-0.4,0.8-0.8,1.2-1.2c0-0.1,0-0.2,0.1-0.3c0.1-0.2,0.2-0.3,0.3-0.4c0.1-0.1,0-0.2,0.1-0.3c0.1-0.2,0.2-0.3,0.4-0.4
		c0.1-0.1,0.2-0.1,0.3-0.2h0.7c0.3-0.3,0.7-0.6,0.9-1v-0.6c0.1-0.1,0.2-0.2,0.3-0.3c0.1-0.2,0-0.4,0.2-0.6c0.8-0.8,1.6-1.5,2.4-2.3
		c0-0.3,0.1-0.6,0.4-0.8V86c0.1-0.1,0.3-0.3,0.4-0.4v-0.3c0.1-0.1,0.3-0.3,0.4-0.4v-0.7c0.5-0.5,0.5-0.5,0-1c0,0,0-0.1-0.1-0.2
		c-0.1-0.3,0.1-0.7-0.1-1.1c-0.1-0.1-0.2-0.2-0.3-0.3c0-0.1,0-0.2,0-0.4c-0.1-0.1-0.2-0.3-0.4-0.4v-0.4c-0.4-0.4-0.9-0.8-1.3-1.3
		h-0.3c-0.1-0.1-0.3-0.3-0.4-0.4c-0.1,0-0.3,0-0.4,0c-0.4-0.3-0.7-0.7-1.1-1H305c-0.1,0.1-0.2,0.2-0.4,0.3c-0.3-0.2-0.5-0.5-0.8-0.7
		h-3.4c-0.2,0.1-0.3,0.3-0.4,0.3c-0.5,0-1,0-1.5,0c-0.1,0.1-0.2,0.2-0.3,0.3c-0.3,0-0.7,0-1,0c-0.4,0-0.9-0.1-1.3,0.1
		c-0.1,0.1-0.2,0.2-0.3,0.3h-2.3c-0.2,0.2-0.4,0.5-0.6,0.8h-1.5c-0.4,0.2-0.5,0.6-0.9,0.7c-0.1,0-0.2,0-0.4,0
		c-0.1,0.1-0.2,0.2-0.3,0.3c-0.4,0-0.8,0-1.2,0c-0.1,0-0.2,0-0.3,0.1c-0.1,0.1-0.2,0.2-0.3,0.3c-0.3-0.1-0.5,0.1-0.7,0.4h-0.4
		c-0.1,0.1-0.3,0.3-0.4,0.4h-0.4c-0.1,0.1-0.3,0.2-0.4,0.3c-0.1-0.1-0.2-0.2-0.3-0.3c-0.1-0.1-0.4-0.1-0.5,0
		c-0.2,0.2-0.4,0.3-0.5,0.4c0,0.2,0,0.3,0,0.5c-0.2,0.2-0.4,0.3-0.5,0.5h-0.8c-0.2,0.2-0.3,0.3-0.5,0.5c0,0.3-0.1,0.5-0.4,0.7
		c0,0.1,0,0.2,0,0.4c-0.1,0.1-0.2,0.3-0.4,0.4V86c-0.1,0.1-0.2,0.3-0.4,0.4c0.1,0.1,0.2,0.3,0.4,0.4v1.8c0.2,0.2,0.5,0.5,0.7,0.7
		c0.1,0.5,0.1,0.5,0.6,0.6c0.2,0.1,0.3,0.2,0.4,0.3c0.3,0,0.6,0.1,0.8,0.1c0.2,0.4,0.8,0.2,1,0.6c0,0,0.2,0,0.4,0
		c0.3,0.2,0.5,0.5,0.8,0.7c0.1,0,0.2,0,0.4,0c0.3,0.2,0.5,0.5,0.7,0.6c0.5,0.1,0.9,0,1.3,0.1c0.1,0.2,0.3,0.3,0.6,0.3
		c0,0,0.1,0,0.1-0.1c0.2-0.2,0.4-0.4,0.7-0.6h1.1c0.1-0.1,0.3-0.2,0.4-0.4c0.7,0,1.5,0,2.2,0c0,0,0.1-0.1,0.2-0.2c0-0.1,0-0.3,0-0.5
		c0-0.3-0.1-0.4-0.4-0.4c-0.3,0-0.6,0-0.9,0c0,0-0.1-0.1-0.1-0.1V90c0.1-0.3,0.4-0.1,0.6-0.3c0.2-0.1,0.3-0.3,0.5-0.5
		c0-0.5,0-0.5,0.5-0.5c0.1-0.1,0.3-0.2,0.4-0.4h0.9c0.1-0.2,0.3-0.5,0.5-0.8c0.5,0.2,0.6-0.3,0.9-0.3c0.4,0,0.7,0.1,1.1-0.1
		c0.1-0.1,0.2-0.2,0.3-0.3h1.1c0.1-0.1,0.3-0.2,0.4-0.4h1.2c0.1,0.1,0.3,0.3,0.5,0.5c0,0.2-0.5,0.3-0.3,0.7
		c-0.2,0.3-0.5,0.5-0.8,0.8v1.4c-0.5,0.5-0.9,0.9-1.3,1.4h-1.1c-0.2,0.2-0.4,0.4-0.5,0.5v0.7c-0.3,0.3-0.6,0.6-0.9,0.9
		c-0.1-0.1-0.2-0.2-0.4-0.3c-0.1,0.1-0.3,0.2-0.3,0.3c-0.2,0.1-0.4,0.1-0.6,0.2v0.8c-0.2,0.2-0.3,0.4-0.5,0.5
		c-0.2,0.1-0.5,0-0.6,0.3v0.7c-0.2,0-0.3,0.1-0.6,0.2c-0.2,0.2-0.4,0.4-0.7,0.7h-0.3c-0.4,0.2-0.5,0.6-0.9,0.7
		c-0.1-0.1-0.3-0.1-0.4-0.2v-0.4c-0.1-0.1-0.2-0.2-0.3-0.2c-0.3-0.1-0.4,0.1-0.4,0.4c0,0.1,0,0.2-0.2,0.3h-0.7
		c-0.3-0.2-0.6-0.5-0.7-1c-0.2-0.2-0.4-0.4-0.7-0.6c0-0.1,0-0.2,0-0.4c-0.2-0.2-0.4-0.5-0.7-0.6h-0.6c-0.4-0.3-0.8-0.7-1.2-1.1h-0.3
		c-0.1-0.1-0.3-0.2-0.4-0.3c-0.2,0.2-0.3,0.4-0.6,0.4c-0.2,0-0.4,0-0.4,0c-0.3,0.2-0.5,0.4-0.7,0.5v1.1c-0.3,0.2-0.4,0.4-0.4,0.7
		c-0.1,0.2-0.2,0.3-0.3,0.4c0,0.4,0.1,0.8-0.1,1.1c-0.1,0.1-0.2,0.2-0.3,0.3c0,0.3-0.1,0.6-0.4,0.8v0.7c-0.1,0.1-0.3,0.3-0.4,0.4
		v1.1c-0.1,0.1-0.3,0.3-0.4,0.4c0,0.1,0,0.3,0,0.4c-0.1,0.1-0.2,0.3-0.4,0.4v0.7c-0.2,0.2-0.5,0.5-0.7,0.7c-0.1,0.5,0.1,1.1-0.1,1.6
		c-0.3,0-0.6,0.1-0.8,0.1c-0.2,0.2-0.4,0.3-0.6,0.5v0.4c0.1,0.1,0.3,0.3,0.4,0.4c0,0.1,0,0.1,0,0.2c0,0.2-0.2,0.3-0.3,0.4
		c-0.1,0.2,0,0.5-0.3,0.6c-0.2,0.1-0.2,0.3-0.2,0.5c0,0.2,0,0.4,0,0.5c-0.1,0.6-0.8,0.3-1.1,0.6v0.7c0.1,0.1,0.2,0.3,0.4,0.4v0.3
		c-0.1,0.2-0.3,0.3-0.4,0.4c-0.1,0.2,0,0.4-0.2,0.5c-0.1,0-0.2,0-0.4,0c-0.1,0.1-0.3,0.2-0.4,0.4h-0.4c-0.2,0.2-0.4,0.3-0.5,0.5
		c0.2,0.2,0.5,0.5,0.7,0.8v0.4c-0.2,0.2-0.4,0.3-0.5,0.5c-0.1,0-0.2,0-0.4,0c-0.3,0.1-0.1,0.6-0.4,0.7h-0.4
		c-0.3,0.4-0.3,0.4,0.2,0.9c-0.1,0.1-0.2,0.2-0.4,0.4v0.3c-0.4,0.4-0.8,0.7-1.1,1.1c-0.1,0.4,0.1,0.5,0.3,0.7
		c-0.1,0.2-0.3,0.4-0.5,0.5c-0.2,0.1-0.4,0.2-0.7,0.2c0.2,0.2,0.3,0.3,0.4,0.4c0,0.5,0,0.5-0.5,0.5c-0.2,0.1-0.3,0.3-0.5,0.5
		c0,0.2-0.1,0.3-0.2,0.7c-0.5,0.5-1.1,1.1-1.7,1.7v0.6c0.1,0.2,0.3,0.3,0.4,0.4c0,0.4,0.1,0.8-0.1,1.1c-0.4,0.4-0.8,0.8-1.2,1.2
		c-0.1-0.1-0.2-0.2-0.4-0.3c-0.1,0.1-0.2,0.2-0.4,0.3h-0.4c-0.3,0.2-0.2,0.5-0.2,0.8c0,0.1,0.1,0.2,0.2,0.2c0.1-0.1,0.2-0.2,0.3-0.3
		c0,0,0.1-0.1,0.1-0.1c0.1-0.1,0.2-0.3,0.4-0.3c0.2,0.1,0.1,0.3,0.1,0.5c0.1,0.1,0.2,0.3,0.3,0.4c-0.1,0.1-0.2,0.3-0.4,0.4v0.6
		c-0.2,0.3-0.4,0.5-0.5,0.6c-0.2-0.1-0.3-0.2-0.4-0.3c-0.1,0.1-0.2,0.2-0.3,0.3c-0.5,0.1-0.8,0.3-1,0.7c0,0.1,0,0.2,0,0.4
		c0.2,0.2,0.4,0.3,0.5,0.5c0.1,0,0.1,0,0.2,0c0.1,0,0.3,0,0.3,0.1c0,0,0,0.1,0,0.1c-0.3,0.3-0.5,0.5-0.8,0.8c-0.2,0-0.3,0.1-0.5,0.1
		c-0.3,0.3-0.6,0.5-0.9,1v0.6c-0.2,0.2-0.5,0.5-0.7,0.7c0,0.1,0,0.2,0,0.4c0.2,0.2,0.5,0.5,0.8,0.8c-0.2,0.1-0.4,0.1-0.5,0.2
		c-0.3,0.3-0.6,0.6-1,1c0,0,0,0.1,0,0.2c-0.2,0.4-0.6,0.6-0.9,0.9c-0.2,0.1-0.5,0-0.6,0.3c0,0.2,0,0.4,0.2,0.5c0,0,0.1,0,0.2,0
		c0.1,0,0.2,0,0.4,0c0.3,0,0.4,0.1,0.4,0.4v0.9c-0.1,0.1-0.2,0.2-0.3,0.3c-0.1,0.1-0.1,0.3-0.1,0.5c-0.1,0.2-0.3,0.3-0.5,0.5
		c-0.1-0.1-0.2-0.2-0.3-0.3c-0.2-0.2-0.5-0.1-0.6,0.1v1.1c-0.4,0.3-0.7,0.7-1.1,1c0,0,0,0.1,0,0.1c0.2,0.2,0.4,0.3,0.4,0.4
		c0.3,0.1,0.4,0.1,0.7,0.2c-0.3,0.2-0.4,0.3-0.7,0.5c-0.1-0.1-0.2-0.2-0.3-0.3c-0.2-0.1-0.5,0-0.6,0.2c0,0.2,0,0.4-0.2,0.5
		c-0.2,0.1-0.2,0.3-0.2,0.5c0,0.2,0,0.4,0,0.5c-0.1,0.1-0.2,0.2-0.3,0.3c0.2,0.3,0.5,0.5,0.7,0.7c0,0.3,0,0.3-0.1,0.5
		c-0.1,0-0.2,0-0.4,0c-0.2,0-0.4,0-0.6,0c-0.4,0-0.5,0.1-0.4,0.6c0.2,0.3,0.6,0.5,0.7,0.8c-0.1,0.4-0.1,0.4-0.4,0.4
		c-0.3,0-0.3,0-0.3,0.3c-0.1,0.5-0.3,0.6-0.7,0.2c-0.1-0.1-0.2-0.2-0.3-0.1c-0.2,0.1-0.1,0.3-0.1,0.5c0.1,0.1,0.2,0.1,0.3,0.2
		c0.4,0.1,0.4,0.1,0.4,0.4c0,0.3,0,0.6,0,0.7c-0.4,0.4-0.6,0.8-0.9,1.1c-0.4-0.1,0-0.6-0.4-0.7c-0.2,0.2-0.4,0.3-0.6,0.5
		c0.1,0.2,0.3,0.3,0.4,0.4v0.7c-0.1,0.2-0.3,0.3-0.4,0.4c0,0.5,0,0.9,0,1.3c0,0.1-0.1,0.2-0.2,0.3h-0.7c-0.2,0.2-0.4,0.3-0.5,0.5
		c0,0.1,0,0.2,0,0.4c0.1,0.1,0.2,0.3,0.4,0.4v0.7c0.1,0.1,0.3,0.3,0.4,0.4c0,0.2,0.1,0.4-0.2,0.5c-0.1,0-0.3,0-0.5,0
		c-0.3,0-0.3,0-0.4,0.4c0,0.1-0.1,0.2-0.2,0.3c-0.1-0.1-0.3-0.2-0.4-0.3c-0.3,0.4-0.3,0.4,0.2,0.9c-0.1,0.1-0.2,0.3-0.3,0.4
		c0.2,0.2,0.5,0.5,0.7,0.7c-0.3,0.3-0.6,0.1-0.9,0.2c-0.1,0.1-0.3,0.2-0.4,0.4h-0.4c-0.1,0.1-0.2,0.2-0.2,0.3c0,0.2-0.1,0.3-0.2,0.4
		c-0.3,0.1-0.6-0.1-0.9,0.2c0.2,0.2,0.3,0.3,0.5,0.5c0.1,0,0.1,0.1,0.2,0.1c0.4,0.1,0.4,0.1,0.5,0.6c0.1,0.1,0.2,0.3,0.3,0.4
		c-0.2,0.2-0.4,0.4-0.5,0.5h-1.1c-0.1,0.1-0.2,0.2-0.3,0.3c-0.1,0.1-0.2,0.2-0.3,0.3c0.1,0.1,0.2,0.3,0.4,0.4v0.4
		c0,0,0.1,0.1,0.1,0.1c0.1,0,0.2,0,0.3,0.1c0.7,0,0.7,0,0.6,0.8c0,0.1,0,0.1,0,0.2c-0.1,0-0.3,0.1-0.6,0.2c-0.1,0.1-0.2,0.2-0.3,0.3
		h-0.3c-0.1,0.1-0.3,0.2-0.4,0.4h-1.1c-0.3,0.2-0.1,0.7-0.5,0.9c0,0.1,0,0.1,0,0.2c0,0.1,0,0.2,0,0.4c0,0.2-0.1,0.4-0.3,0.4
		c-0.2,0-0.4,0-0.6,0c-0.1,0-0.2,0.1-0.3,0.2v0.4c-0.1,0.1-0.2,0.1-0.3,0.2c-0.1,0-0.2,0-0.3,0.1c-0.1,0.1-0.2,0.2-0.3,0.3
		c-0.1,0.1-0.1,0.2-0.2,0.3c0,0.1,0,0.2,0,0.3c-0.2,0.2-0.4,0.4-0.7,0.6c0,0.3-0.1,0.6-0.4,0.7c0,0.1,0,0.2,0,0.4
		c-0.1,0.2-0.3,0.2-0.5,0.2c-0.2,0.1-0.4,0.3-0.6,0.3c-0.4,0-0.6,0.3-0.8,0.6c0.2,0.2,0.3,0.4,0.5,0.5c0.5,0,0.5,0,0.6,0.5
		c-0.3,0.3-0.6,0.6-0.9,0.9c-0.1,0.1-0.2,0.1-0.3,0c-0.1,0-0.2-0.1-0.2-0.2c0-0.8,0-1.7,0-2.5c0.2-0.2,0.3-0.3,0.4-0.4
		c0-0.3,0.1-0.5,0.1-0.8c0.4-0.2,0.2-0.8,0.7-1c0.3-0.2,0.6-0.5,0.8-0.7v-0.4c-0.1-0.1-0.3-0.3-0.3-0.3c-0.2-0.4,0.1-0.7-0.2-0.9
		c-0.1,0-0.2,0-0.3,0c-0.3,0.3-0.6,0.6-1,0.9c-0.1,0.4-0.1,0.4-0.6,0.6c-0.4,0.3-0.7,0.7-1.1,1c-0.1-0.1-0.3-0.2-0.4-0.3
		c-0.4,0.2,0,0.7-0.3,1c-0.2,0.2-0.4,0.4-0.7,0.6v0.3c-0.3,0.4-0.7,0-1,0.3c-0.3,0.3-0.7,0.5-0.9,0.9c-0.1,0.3,0.1,0.5,0.3,0.6
		c0,0.1,0,0.2-0.2,0.2c-0.1,0-0.3,0-0.4,0c-0.1-0.1-0.3-0.2-0.3-0.3c-0.2,0.2-0.4,0.3-0.6,0.5c0.3,0.3,0.5,0.5,0.7,0.7
		c0.1,0.3,0.1,0.6,0.4,0.7c0.1,0.5-0.1,1.1,0.1,1.6c0.1,0.1,0.2,0.2,0.3,0.3v2.5c0.1,0.1,0.3,0.3,0.4,0.4v0.3
		c0.1,0.1,0.3,0.3,0.4,0.4v0.7c0.1,0.2,0.3,0.3,0.4,0.4c0.1,0.4-0.2,0.9,0.2,1.2h0.4c0.3,0.2,0.5,0.5,0.8,0.7c0.1,0,0.3,0,0.4,0
		c0.2,0.1,0.3,0.2,0.4,0.3h0.8c0.2-0.2,0.4-0.3,0.8-0.4c0.3-0.3,0.7-0.5,0.9-0.9c0-0.3,0-0.5,0-0.7c0.6-0.6,1.2-1.2,1.8-1.7
		c0,0,0.1-0.1,0.1-0.1c0-0.1,0-0.2,0.1-0.4c0.5-0.4,1-0.9,1.4-1.4c-0.1-0.1-0.2-0.3-0.4-0.4c0.2-0.2,0.4-0.4,0.5-0.5h0.4
		c0.3-0.3,0.6-0.6,0.9-0.9v-0.7c0.6-0.6,1.3-1.2,1.8-1.8c0-0.2,0-0.3,0-0.4c0.1-0.1,0.2-0.3,0.4-0.4v-0.3c0.1-0.3,0.6-0.1,0.8-0.4
		v-0.7c0.4-0.4,0.7-0.7,1.1-1c0-0.3,0.1-0.6,0.4-0.8c0-0.1,0-0.2,0-0.4c0.2-0.3,0.5-0.5,0.8-0.8V169c0.3-0.2,0.4-0.4,0.4-0.8
		c0.5-0.5,1-0.9,1.5-1.4v-1.1c0.5-0.5,1-0.9,1.5-1.4c0-0.3,0.1-0.6,0.4-0.8v-1.4c0.1-0.1,0.3-0.3,0.4-0.4v-0.5
		c0.2-0.2,0.5-0.4,0.8-0.6v-1.1c0.1-0.1,0.1-0.1,0.2-0.1c0.3-0.2,0.2-0.7,0.5-0.9c0,0,0.1-0.1,0-0.2c0-0.3,0.2-0.4,0.4-0.6v-1.1
		c0.1-0.1,0.3-0.3,0.4-0.4v-0.5c0.2-0.2,0.5-0.4,0.8-0.6v-0.8c0.2-0.2,0.4-0.3,0.4-0.6c0-0.2,0-0.3,0-0.5c0.3-0.2,0.5-0.5,0.7-0.7
		v-1.4c0.1-0.1,0.3-0.3,0.4-0.4v-0.4c0.2-0.3,0.6-0.5,0.7-0.7c0.1-0.4,0-0.8,0.1-1.2c0.4-0.3,0.7-0.7,1.1-1v-0.3
		c0.1-0.1,0.3-0.3,0.4-0.4v-0.3c-0.1-0.1-0.2-0.3-0.4-0.4c0.2-0.2,0.5-0.4,0.7-0.7c0-0.3,0.1-0.6,0.4-0.8V144
		c0.1-0.1,0.3-0.3,0.4-0.4v-0.3c0.1-0.1,0.3-0.3,0.4-0.4v-0.7c0.2-0.2,0.4-0.4,0.7-0.7c0.1-0.2,0-0.4,0.2-0.6
		c0.3-0.2,0.1-0.6,0.4-0.8c0.1,0,0.1-0.1,0.2-0.1v-0.7c0.1-0.1,0.2-0.3,0.4-0.4v-0.7c0.1-0.1,0.3-0.3,0.4-0.4v-0.3
		c0.1-0.1,0.3-0.3,0.4-0.4v-1.1c0.2-0.2,0.5-0.4,0.7-0.7c0-0.3,0.1-0.6,0.1-0.8c0.1-0.1,0.2-0.2,0.3-0.3v-0.7
		c0.4-0.4,0.8-0.7,1.2-1.1v-1.1c0.4-0.4,0.7-0.7,1.1-1c0-0.1,0-0.2,0-0.4c0.1-0.1,0.2-0.3,0.4-0.4V129c0.1-0.1,0.3-0.3,0.4-0.4
		c0-0.1,0-0.2,0-0.3c0.1-0.1,0.2-0.3,0.4-0.4v-0.7c0.1-0.1,0.1-0.1,0.2-0.1c0.3-0.2,0.2-0.7,0.5-0.9c0,0,0.1-0.1,0-0.2
		c0-0.3,0.2-0.4,0.4-0.6c0-0.1,0-0.2,0-0.4c0.2-0.3,0.5-0.5,0.7-0.8c0-0.1,0-0.2,0-0.4c0.1-0.1,0.2-0.3,0.4-0.4c0-0.2,0-0.4,0-0.6
		c0-0.1,0-0.1,0-0.1c0.1-0.2,0.2-0.3,0.3-0.5c-0.1-0.4,0.5-0.5,0.4-0.9c0.2-0.2,0.3-0.4,0.5-0.5c0.1-0.1,0.2-0.2,0.3-0.3v-0.7
		c0.3-0.3,0.5-0.6,0.7-0.8c-0.1-0.4,0.4-0.5,0.4-0.9c0-0.2,0.4-0.3,0.4-0.6c0-0.4,0.3-0.5,0.5-0.7c0.1-0.1,0.2-0.2,0.3-0.2v-0.4
		c0.1-0.1,0.3-0.3,0.4-0.4c0-0.1,0-0.3,0-0.4c0.3-0.2,0.4-0.4,0.4-0.7c0.1-0.2,0.2-0.3,0.2-0.3c0.2-0.5,0-0.9,0.2-1.4
		c0.4-0.3,0.9-0.8,1.4-1.3v-0.7c0.1-0.1,0.1-0.1,0.1-0.1c0.1-0.1,0.2-0.3,0.2-0.5c0-0.2,0.2-0.3,0.3-0.4c0.1-0.1,0.1-0.3,0.1-0.5
		c0.1-0.1,0.3-0.2,0.3-0.4v-0.3c0.2-0.2,0.5-0.4,0.8-0.6v-0.5c0.1-0.1,0.3-0.3,0.4-0.4c0-0.3,0-0.4,0.2-0.5c0.2-0.2,0.2-0.4,0.3-0.6
		c0.2-0.2,0.5-0.4,0.7-0.6c0-0.1,0-0.2,0-0.4c0.2-0.2,0.5-0.5,0.8-0.8v-0.3c0.3-0.3,0.6-0.6,0.9-0.9h0.4c0.1-0.1,0.3-0.2,0.4-0.4
		H289.3z"/>
	<path class="st0" d="M326.6,134.7c0-0.1,0-0.2,0-0.4c-0.4-0.4-0.8-0.8-1.1-1.1v-0.7c-0.5-0.5-1-1-1.5-1.4c-0.1-0.1-0.3-0.1-0.5-0.2
		c-0.2,0-0.3-0.2-0.5-0.3h-0.7c-0.1-0.1-0.3-0.2-0.4-0.4h-4.5c-0.1,0.1-0.3,0.2-0.4,0.4h-0.4c-0.3,0.3-0.6,0.6-0.9,0.9v1.1
		c0.1,0.1,0.2,0.3,0.4,0.4v1.4c0.1,0.1,0.3,0.3,0.4,0.4c-0.1,0.4,0.3,0.5,0.4,0.8v0.6c0.1,0.2,0.3,0.3,0.3,0.4c0,0.3,0,0.5,0,0.7
		c0.2,0.2,0.4,0.4,0.6,0.5c0.1,0,0.3,0,0.4,0c0.3,0.3,0.6,0.6,0.9,0.8c0,0.2,0,0.3,0,0.4c0.3,0.3,0.6,0.6,0.9,0.9h0.4
		c0.1,0.1,0.3,0.2,0.4,0.4c0.1,0,0.3,0,0.4,0c0.3,0.2,0.5,0.5,0.8,0.7c0.2,0,0.5,0,0.7,0c0.1-0.1,0.2-0.2,0.3-0.3
		c0.1,0.1,0.3,0.2,0.4,0.3c0.4-0.4,0.8-0.7,1.1-1.1c0.2,0,0.3,0,0.4-0.1c0.2-0.1,0.4-0.3,0.5-0.5v-0.8c0.1-0.1,0.3-0.3,0.4-0.4
		c-0.1-0.4,0.3-0.5,0.4-0.8v-0.6c0.1-0.1,0.2-0.2,0.3-0.3c0-0.3,0.1-0.6,0.1-0.8c0.1-0.1,0.2-0.2,0.3-0.3c0-0.1,0-0.2,0-0.4
		C326.9,135,326.8,134.9,326.6,134.7z"/>
	<path class="st0" d="M311.3,151.2h-0.7c-0.2,0.1-0.3,0.2-0.4,0.4h-0.7c-0.2,0.1-0.3,0.3-0.4,0.3c-1,0-1.9,0-2.8,0
		c-0.1,0-0.1,0-0.2-0.1c-0.1-0.1-0.2-0.2-0.3-0.3c-0.4-0.1-0.9,0-1.3,0c-0.1,0-0.2,0-0.3,0.1c-0.1,0.1-0.2,0.2-0.3,0.3
		c-0.1-0.1-0.3-0.2-0.4-0.3h-0.7c-0.1,0.1-0.3,0.2-0.4,0.4h-6c-0.1,0.1-0.3,0.3-0.4,0.4c-0.1,0-0.3,0-0.4,0
		c-0.2-0.1-0.3-0.2-0.4-0.3c-0.3-0.1-0.7,0.1-0.9-0.2v-0.3c0.2-0.4,0.6-0.5,0.7-0.9c0-0.1,0-0.2,0.1-0.3c0.4-0.3,0.7-0.7,1.1-1v-1.1
		c0.1-0.1,0.3-0.3,0.4-0.4v-0.3c0.1-0.1,0.3-0.3,0.4-0.4c0.1-0.2,0-0.4,0.2-0.5c0.2-0.1,0.2-0.4,0.3-0.6c0.2-0.1,0.3-0.3,0.3-0.5
		c0.3-0.2,0.6-0.5,0.8-0.7c0.1-0.2,0-0.5,0.3-0.6c0.3-0.2,0.1-0.6,0.4-0.8c0,0,0.1-0.1,0.1-0.1v-0.7c0.3-0.3,0.5-0.5,0.8-0.8v-0.3
		c0.1-0.2,0.3-0.3,0.4-0.4c0.1-0.2,0-0.4,0.2-0.5c0.2-0.1,0.2-0.4,0.3-0.6c0.4-0.2,0.3-0.6,0.3-1c0.1-0.3,0.5-0.4,0.4-0.8
		c0.1-0.1,0.2-0.3,0.4-0.4v-0.3c0.1-0.1,0.3-0.3,0.4-0.4v-2.2c0.1-0.1,0.3-0.3,0.4-0.4v-1.1c-0.1-0.2-0.3-0.3-0.4-0.4
		c0-0.5-0.1-1,0.1-1.5c0.5-0.5,1-0.9,1.4-1.4v-0.3c0.5-0.2,0.2-0.8,0.7-1c0-0.2,0.1-0.3,0.1-0.5c0.2-0.2,0.4-0.4,0.7-0.6
		c0-0.1,0-0.2,0-0.4c0.2-0.2,0.5-0.5,0.7-0.8c0-0.1,0-0.2,0-0.4c0.3-0.3,0.3-0.4,0.4-0.7c0.1-0.1,0.2-0.3,0.3-0.4
		c-0.1-0.1-0.2-0.2-0.3-0.3c0-0.2,0-0.4,0-0.7c0-0.3,0.1-0.6-0.1-0.9c-0.5-0.5-1.1-1-1.6-1.6h-0.3c-0.5-0.1-0.2-0.6-0.5-0.7h-0.7
		c-0.1-0.1-0.3-0.2-0.4-0.4h-1.1c-0.2-0.3-0.5-0.4-0.8-0.4c-0.2-0.3-0.5-0.4-0.8-0.3c-0.2,0-0.4,0-0.4-0.2c0-0.1,0-0.2,0-0.3
		c-0.1-0.1-0.2-0.3-0.4-0.4c0-0.1,0-0.3,0.1-0.4c0.3-0.3,0.6-0.6,0.9-0.9c0.2,0,0.3,0,0.4,0c0.5-0.5,1-0.9,1.5-1.4h0.4
		c0.2-0.1,0.2-0.3,0.2-0.5c0.2-0.4,0.6-0.8,1-1c0.1-0.1,0.4,0,0.5-0.2V114c0.9-0.9,1.9-1.8,2.8-2.7c0.1,0,0.2,0,0.3,0
		c0.3-0.3,0.6-0.6,1-0.9c0-0.3,0.1-0.5,0.4-0.7v-0.3c0.1-0.1,0.3-0.3,0.4-0.4v-1.4c-0.1-0.1-0.3-0.3-0.4-0.4v-0.7
		c-0.2-0.2-0.4-0.4-0.5-0.5h-0.7c-0.1-0.1-0.3-0.2-0.4-0.4h-0.7c-0.3-0.2-0.5-0.6-0.8-0.7c-0.3,0-0.5,0-0.7,0
		c-0.1-0.1-0.2-0.2-0.3-0.3c-0.4-0.1-0.7,0-1.1,0c-0.3,0-0.6,0-0.9,0c-0.4,0-0.7-0.1-1.1,0.1c-0.1,0.1-0.2,0.2-0.3,0.3h-1.8
		c-0.1,0.1-0.3,0.2-0.4,0.4h-1.9c-0.1,0.1-0.3,0.2-0.4,0.4h-1.5c-0.2,0.1-0.3,0.3-0.4,0.4h-0.7c-0.2,0.1-0.2,0.3-0.4,0.3
		c-0.1-0.1-0.2-0.2-0.3-0.3c-0.4-0.2-0.6,0.1-0.8,0.3c-0.1,0-0.2,0-0.4,0c-0.1,0.1-0.3,0.2-0.4,0.4h-1.1c-0.1,0.1-0.3,0.2-0.4,0.4
		h-1c-0.5,0.5-0.9,0.9-1.4,1.3v1.1c0.1,0.2,0.3,0.3,0.4,0.4v0.7c0.2,0.2,0.3,0.3,0.3,0.4c0,0.7,0,0.7,0.3,1c0,0.1,0,0.2,0,0.3
		c0.6,0.6,1.2,1.1,1.8,1.7h0.4c0.2,0.2,0.4,0.5,0.6,0.7c0.2,0,0.4,0,0.6,0.1c0.5,0.6,1.1,1.2,1.7,1.8c0.4,0.1,0.7-0.1,1,0.2v0.7
		c-0.1,0.1-0.2,0.2-0.4,0.4v2.5c0.1,0.1,0.2,0.3,0.4,0.4v1.1c0.3,0.2,0.4,0.4,0.4,0.7c0.2,0.2,0.4,0.4,0.5,0.5h0.4
		c0.1,0.2,0.1,0.4,0.2,0.6c0.1,0.2,0.3,0.3,0.5,0.5c0.5,0,1-0.1,1.5,0c0.2,0.2,0.5,0.4,0.7,0.7h1c0.5,0.5,0.9,0.9,1.4,1.4v0.6
		c-0.1,0.1-0.2,0.2-0.4,0.4v0.4c-0.1,0.1-0.3,0.3-0.4,0.4v1.4c-0.2,0.2-0.4,0.3-0.5,0.5c-0.1-0.1-0.3-0.2-0.4-0.3h-0.4
		c-0.1,0.1-0.3,0.2-0.4,0.3c-0.2-0.1-0.3-0.2-0.4-0.4c-0.4,0.1-0.7,0-1.1,0.1c-0.1,0.1-0.2,0.2-0.3,0.3c-0.1-0.1-0.2-0.2-0.4-0.3
		c-0.3,0-0.7,0-1,0c-0.1,0-0.2,0.1-0.2,0.2c0,0.1,0,0.2,0,0.3c-0.2,0.2-0.4,0.4-0.5,0.5h-0.8c-0.5,0.5-1,0.9-1.5,1.4
		c-0.1,0-0.2,0-0.4,0c-0.6,0.5-0.5,0.5-0.7,1.1c-0.4,0.4-0.9,0.9-1.4,1.4v0.7c-0.3,0.2-0.4,0.4-0.4,0.8c-0.1,0.1-0.2,0.2-0.3,0.3
		c-0.1,2.1-0.1,3.9,0,4.1c0.3,0.3,0.6,0.6,0.9,0.8c0.1,0,0.2,0,0.4,0.1c0.4,0.3,0.7,0.7,1.1,1c0.7-0.7,1.5-1.4,2.2-2.2h0.4
		c0.3-0.3,0.6-0.6,0.9-0.9c0-0.1,0-0.2,0-0.3c0.8-0.8,1.6-1.6,2.5-2.4c0.1,0,0.4,0.1,0.5-0.2v-0.3c0.2-0.2,0.4-0.3,0.6-0.5h0.5
		c0.2,0,0.4,0.1,0.4,0.3c0,0.4,0.1,0.7,0,1.1c0,0-0.1,0.1-0.1,0.1c-0.3,0.2-0.2,0.7-0.5,0.9c0,0,0,0.1,0,0.2c0,0.3-0.2,0.4-0.4,0.6
		v0.7c-0.1,0.1-0.3,0.3-0.4,0.4v0.3c-0.2,0.3-0.6,0.5-0.7,0.8c0,0.5,0.1,1,0,1.4c-0.1,0.1-0.2,0.2-0.3,0.3c-0.1,0.2,0,0.4-0.3,0.6
		c-0.5,0.4-0.9,0.8-1.3,1.2c0,0.2,0,0.3,0,0.4c-0.1,0.1-0.1,0.4-0.1,0.6c-0.1,0.1-0.2,0.2-0.3,0.3v0.4c-0.3,0.1-0.4,0.4-0.4,0.7
		c-0.5,0.5-1,1-1.5,1.4v0.4c-0.1,0.1-0.2,0.3-0.4,0.4v0.3c-0.1,0.2-0.4,0.3-0.4,0.6c0,0.3-0.4,0.4-0.4,0.8c0,0.2-0.2,0.3-0.3,0.4
		c-0.2,0.2-0.4,0.5-0.7,0.6h-0.7c-0.2,0.3-0.5,0.3-0.8,0.4c-0.2,0.2-0.4,0.4-0.7,0.7h-0.4c-0.1,0.1-0.3,0.3-0.5,0.5
		c-0.1,0.2,0,0.5,0.2,0.6c0.2,0,0.4,0,0.5,0.2c-0.2,0.2-0.5,0.5-0.7,0.7v0.7c0.1,0.2,0.2,0.3,0.4,0.4c-0.1,0.4,0.4,0.5,0.4,0.8
		c0,0.4,0.4,0.5,0.4,0.7c0,0.2,0,0.3,0,0.4c0,0.3,0.1,0.4,0.4,0.4h0.5c0.2,0.1,0.3,0.2,0.4,0.3c0.2-0.1,0.3-0.2,0.4-0.3
		c0.4,0,0.7,0,1,0c0.1,0,0.1,0,0.2-0.1c0.1-0.1,0.2-0.2,0.3-0.3c0.5-0.1,1.1,0.1,1.6-0.1c0.1-0.1,0.2-0.2,0.3-0.3h1.1
		c0.3-0.2,0.5-0.5,0.8-0.7c0.2,0.1,0.3,0.2,0.4,0.3c0.5,0,0.9,0,1.3,0c0.1,0,0.2,0.1,0.3,0.2v0.4c0.3,0.2,0.3,0.2,1.4,0.1
		c0.1-0.1,0.2-0.2,0.3-0.3h1.1c0.1,0.1,0.2,0.2,0.4,0.3h1.8c0.1,0.1,0.3,0.2,0.4,0.4h0.4c0.1-0.1,0.3-0.3,0.4-0.4h1.4
		c0.2-0.1,0.3-0.3,0.5-0.3c0.2,0,0.4,0,0.5-0.2c0.2-0.2,0.5-0.1,0.6-0.3c0.2-0.2,0.3-0.3,0.6-0.3c0.1,0,0.2-0.1,0.2-0.2
		c0-0.1,0-0.2,0-0.3c0.2-0.2,0.4-0.4,0.5-0.6h0.4c0.2-0.2,0.4-0.3,0.5-0.5c0-0.1,0-0.2,0-0.3c0.6-0.6,1.2-1.2,1.9-1.8
		c-0.1-0.4,0.1-0.6,0.4-0.8v-0.7c0.1-0.1,0.3-0.3,0.4-0.4c-0.2-0.2-0.4-0.3-0.5-0.5C311.8,150.7,311.6,151,311.3,151.2z M298.5,133
		c-0.4,0.2-0.4,0.6-0.4,0.9h-0.9c-0.3,0.2-0.1,0.6-0.2,1c0-0.1,0,0,0,0c-0.8,0.8-1.6,1.5-2.4,2.3c-0.2-0.2-0.4-0.4-0.6-0.5v-0.7
		c0.2-0.2,0.5-0.5,0.7-0.8c0-0.5,0-0.5,0.6-0.5c0.2-0.3,0.5-0.6,0.9-1c0,0,0-0.1,0-0.2c0.2-0.2,0.4-0.5,0.6-0.6c0.1,0,0.2,0,0.3-0.1
		c0.2-0.2,0.4-0.4,0.7-0.6c0.2-0.1,0.5-0.1,0.6,0.2V133z"/>
	<path class="st0" d="M312.8,149.4c-0.2,0.1-0.2,0.3-0.2,0.5c0,0.2-0.1,0.5,0.2,0.6c0.1-0.1,0.2-0.2,0.2-0.3c0,0,0.1-0.1,0.1-0.1
		c0.3-0.3,0.2-0.4,0-0.7H312.8z"/>
	<path class="st0" d="M30.5,133.8c0,0,0.1-0.1,0.1-0.1c0.2-0.2,0.6-0.2,0.8-0.4c0.2,0,0.5,0.1,0.7,0.1c0.1-0.1,0.2-0.1,0.2-0.2
		c0,0,0.1,0,0.1,0c0.1,0,0.2,0,0.3,0c0.1,0,0.2,0,0.3,0c0.2-0.1,0.1-0.2,0.2-0.4c0.2-0.1,0.4-0.3,0.6-0.4c0-0.1,0-0.2,0.1-0.3
		c0.1-0.1,0.2-0.2,0.3-0.3c0.1-0.2,0.1-0.4,0.2-0.6c0.1-0.1,0.2-0.1,0.3-0.2c-0.1-0.1-0.1-0.2-0.2-0.3c0.1-0.4,0.1-0.8,0.2-1.1
		c-0.1-0.1-0.1-0.2-0.2-0.4c0-0.1,0-0.2,0-0.3c-0.1-0.1-0.2-0.3-0.2-0.4c0-0.2-0.1-0.4-0.1-0.5c-0.1-0.1,0-0.3,0-0.4
		c-0.2-0.3-0.4-0.6-0.6-0.9c0-0.1,0-0.2,0.1-0.4c-0.1-0.1-0.3-0.3-0.4-0.4c0-0.1,0-0.2,0-0.3v-0.3c-0.1-0.1-0.2-0.2-0.3-0.4v-0.7
		c0.1-0.1,0.2-0.3,0.3-0.4c-0.2-0.2-0.3-0.4-0.5-0.5h-0.3c-0.2-0.1-0.1-0.3-0.2-0.5c0-0.1-0.2-0.3-0.3-0.4c0.1-0.1,0.2-0.2,0.3-0.3
		c0,0-0.1-0.1-0.1-0.1c-0.4-0.1-0.6,0-0.6,0.3v0.8c-0.2,0.3-0.5,0.5-0.7,0.8c0,0.3,0.1,0.7-0.3,0.9c0,0.3-0.1,0.5-0.4,0.7
		c0,0.1,0,0.2,0,0.4c-0.1,0.1-0.2,0.2-0.3,0.4v0.3c-0.1,0.1-0.2,0.3-0.3,0.4c0,0.1,0,0.2,0,0.3c-0.7,0.7-1.5,1.5-2.2,2.2
		c-0.1,0-0.2,0-0.3,0c-0.1,0.1-0.2,0.2-0.4,0.3H26c-0.1,0.1-0.3,0.2-0.4,0.4h-1c-0.3,0.2-0.5,0.5-0.8,0.7h-0.6
		c-0.1,0.1-0.2,0.2-0.3,0.3c-0.4,0.1-0.9,0-1.3,0c-0.1,0-0.2,0-0.3,0c-0.1,0-0.2-0.1-0.3-0.2c-0.1-0.1-0.2-0.1-0.3-0.2
		c-0.4-0.1-0.4-0.1-0.3-0.5c0.1-0.1,0.2-0.3,0.3-0.4c0-0.4-0.1-0.7,0.3-1c0.1,0,0-0.2,0.1-0.3c0.1-0.2,0.2-0.3,0.4-0.2
		c0.1,0,0.2,0,0.3-0.2v-0.7c0.1-0.1,0.2-0.2,0.4-0.4v-0.5c0.2-0.1,0.5-0.3,0.7-0.5v-0.7c0.2-0.2,0.4-0.4,0.6-0.6c0-0.1,0-0.2,0-0.4
		c0.3-0.3,0.7-0.7,1-1v-0.7c0.3-0.2,0.4-0.4,0.4-0.7c0.2-0.2,0.4-0.4,0.6-0.6c0-0.1,0-0.2,0-0.4c0.3-0.3,0.6-0.6,0.9-0.9
		c0.2-0.2,0.3-0.3,0.4-0.5c-0.1-0.4,0.4-0.5,0.3-0.9c0.1-0.1,0.2-0.3,0.3-0.5c0-0.5,0-1.1,0-1.6c0-0.2-0.2-0.3-0.4-0.2
		c-0.1,0-0.1,0-0.2,0c-0.2-0.2-0.4-0.4-0.6-0.6c-0.3,0-0.5-0.1-0.8-0.1c-0.1-0.1-0.2-0.2-0.3-0.3h-2.8c-0.1,0.1-0.2,0.2-0.4,0.3
		h-0.3c-0.1-0.1-0.2-0.2-0.4-0.3c-0.1,0.1-0.2,0.2-0.3,0.3c-0.1-0.1-0.3-0.2-0.4-0.3h-0.6c-0.2-0.2-0.4-0.4-0.6-0.6h-0.6
		c-0.2-0.2-0.5-0.4-0.6-0.6c0-0.3-0.1-0.7,0.3-0.9c0-0.3,0.1-0.5,0.4-0.7v-0.7c0.1-0.1,0.2-0.3,0.4-0.4v-0.7
		c0.2-0.2,0.3-0.3,0.5-0.5c0.1,0,0.2,0,0.3,0c0.2-0.2,0.4-0.3,0.6-0.6c0-0.3-0.1-0.7,0.1-1c0.2-0.2,0.4-0.4,0.6-0.6
		c0-0.4,0-0.4,0.4-0.5c0.1,0,0.1,0,0.2-0.1c0.4-0.4,0.7-0.7,1.1-1.1c0.1-0.2,0-0.4,0.2-0.6c0.1-0.1,0.2-0.2,0.2-0.3
		c0-0.4,0.3-0.4,0.5-0.4c0.2-0.2,0.3-0.3,0.5-0.5v-0.3c0.2-0.3,0.5-0.5,0.7-0.8v-0.6c0.2-0.2,0.3-0.4,0.5-0.5h0.7
		c0.3-0.3,0.6-0.6,0.9-0.8v-0.7c-0.2-0.3-0.5-0.5-0.7-0.8v-1c-0.4-0.1-0.2-0.6-0.5-0.8c-0.3-0.2-0.6-0.6-0.9-0.8v-0.4
		c-0.7-0.7-0.9-0.9-1.7-1.7c-0.3,0.1-0.5-0.1-0.7-0.3H22c-0.1-0.1-0.3-0.2-0.4-0.4h-1l-0.6-0.1l-0.4,0.2l-0.2,0.3l-0.1,0.2
		c-0.1,0.1-0.2,0.2-0.2,0.2c-0.1,0.3,0,0.7-0.1,1c0,0.4,0.1,0.8-0.1,1.2c-0.1,0.1-0.2,0.2-0.3,0.3v1c-0.1,0.1-0.2,0.3-0.4,0.4v1
		c-0.2,0.3-0.5,0.5-0.7,0.7v0.7c-0.1,0.1-0.6,0-0.7,0.2v0.7c-0.1,0.1-0.2,0.2-0.3,0.3c0,0.3-0.2,0.4-0.2,0.8
		c-0.2,0.2-0.4,0.3-0.4,0.4c-0.3,0.1,0.3,0.3,0.1,0.4c0.1,0.2-0.4,0.1-0.3,0.2v0.7c-0.3,0.3-0.6,0.6-0.9,0.9h-0.3
		c-0.3,0.4-0.3,0.4,0.1,0.8v1c-0.3,0.3-0.5,0.7-0.9,0.9h-0.6c-0.2,0.1-0.4,0.4-0.7,0.4c0,0-0.1,0.1-0.2,0.2c0.1,0.1,0.2,0.3,0.3,0.4
		c0,0.4,0.1,0.7-0.1,1.1c-0.2,0.1-0.3,0.3-0.5,0.4c-0.1,0-0.3,0-0.2,0c-0.4,0.3-0.7,0.6-0.9,0.8c-0.2,0.4,0.2,0.5,0.3,0.8
		c-0.2,0.2-0.2,0.2-0.2,0.4c0.2,0.2,0.4,0.4,0.6,0.6c-0.1,0.1-0.2,0.2-0.3,0.4c0.1,0.1,0.2,0.2,0.3,0.4v0.7c0.3,0.2,0.4,0.4,0.4,0.7
		c0.2,0.2,0.4,0.4,0.6,0.6v0.7c0.1,0.1,0.2,0.3,0.3,0.4c0,0.1,0,0.2,0,0.4c0.1,0.1,0.3,0.3,0.5,0.5c0.2,0,0.5,0.1,0.7,0.1
		c0.2,0.2,0.4,0.4,0.6,0.6c0.1-0.1,0.2-0.2,0.4-0.3H16c0.1-0.1,0.3-0.2,0.4-0.3c0.1,0.1,0.3,0.2,0.4,0.3c0.5,0,0.9-0.1,1.4,0
		c0.1,0.1,0.2,0.2,0.3,0.3c0.5,0.1,1-0.1,1.5,0.1c0.2,0.2,0.3,0.3,0.4,0.5c0,0.4,0,0.7,0,1c-0.1,0.1-0.2,0.2-0.2,0.2
		c-0.2,0.5,0,1-0.1,1.5c-0.2,0.2-0.4,0.4-0.6,0.6v0.7c-0.1,0.1-0.2,0.3-0.4,0.4v0.3c-0.1,0.1-0.2,0.3-0.4,0.4v0.7
		c-0.2,0.2-0.4,0.4-0.6,0.6c-0.1,0.5-0.1,0.5-0.6,0.9c-0.1,0-0.2,0-0.3,0c-0.2,0.1-0.3,0.3-0.5,0.5c0.1,0.1,0.2,0.3,0.3,0.4
		c-0.3,0.3-0.7,0.7-1,1c0,0.3,0,0.6,0,1c0,0.1-0.1,0.2-0.2,0.2c-0.1,0-0.2,0-0.2,0c-0.3,0.3-0.6,0.6-0.9,0.8v0.7
		c-0.1,0.1-0.2,0.3-0.4,0.4c0.1,0.3,0,0.7,0.1,1c0.1,0.1,0.2,0.3,0.3,0.4c0,0.4-0.1,0.7,0.1,1c0.1,0.1,0.2,0.2,0.3,0.3v0.9
		c0.3,0.3,0.5,0.5,0.7,0.7v0.5c0.2,0.2,0.3,0.3,0.5,0.5h1.7c0.1-0.1,0.2-0.2,0.4-0.3h0.3c0.1-0.1,0.3-0.2,0.4-0.4h1.3
		c0.1-0.1,0.3-0.2,0.4-0.3c0.1,0,0.2,0,0.3,0c0.1-0.1,0.3-0.2,0.4-0.3c0.5,0,1.1,0,1.6,0c0.1,0,0.1,0,0.1-0.1c0.2-0.4,0.8-0.2,1-0.6
		h1c0.3-0.2,0.5-0.5,0.7-0.7h2c0.1-0.1,0.3-0.2,0.4-0.3c0.1,0,0.2,0,0.3,0c0.1-0.1,0.3-0.2,0.4-0.3c0.5,0,1.1,0,1.6,0
		C30.4,133.9,30.4,133.8,30.5,133.8z"/>
	<path class="st0" d="M11.9,152.6c-0.1-0.1-0.2-0.2-0.3-0.3c0-0.2,0-0.4,0-0.6c-0.2-0.1-0.3-0.4-0.3-0.5c-0.3-0.3-0.5-0.6-0.7-0.7
		c-0.3-0.1-0.4-0.1-0.6-0.2c0-0.2,0-0.4,0-0.6c-0.1-0.1-0.2-0.2-0.3-0.3c0-0.3-0.7-0.4-0.7-0.7c-0.1,0-0.3-0.1-0.5-0.2
		c-0.2-0.2-0.6-0.5-0.9-0.8c-0.1,0-0.2,0-0.3,0C7,147.4,7,147.3,7,147.2c0-0.2-0.1-0.3-0.2-0.3c-0.1,0-0.3,0-0.4-0.1
		c-0.1-0.1-0.2-0.2-0.4-0.2c-0.1,0-0.3,0-0.4,0c-0.1-0.1-0.2-0.2-0.3-0.3c-0.3,0-0.7-0.1-1.1-0.1c-0.1,0-0.3,0.2-0.4,0.2
		c-0.1,0.1-0.4-0.1-0.5-0.1c-0.7,0-0.3,0.1-1,0.2c-0.1-0.1-0.2-0.2-0.3-0.3c-0.1,0-0.2,0-0.3,0c-0.1,0.1-0.2,0.2-0.3,0.3
		c-0.1,0-0.2,0-0.3,0c-0.3,0.3-0.5,0.5-0.8,0.8c0,0.1,0,0.2,0,0.3c-0.1,0.1-0.2,0.2-0.3,0.3c0,0.2,0,0.4,0,0.6
		c0.2,0.2,0.4,0.4,0.6,0.6c0.1,0.3,0,0.7,0.1,1c0.1,0.1,0.1,0.1,0.2,0.2c0,0.1,0,0.2,0,0.3c0.2,0.2,0.4,0.4,0.6,0.6
		c0,0.2,0,0.4,0,0.6c0.1,0.1,0.2,0.2,0.3,0.4c0,0.1,0,0.2,0,0.3c0.1,0.1,0.3,0.2,0.3,0.3c0,0.2,0.2,0.3,0.3,0.5
		c0.1,0.2,0.1,0.5,0.4,0.6c0.1,0,0,0.2,0,0.3c0.4,0.3,0.8,0.7,1.2,1.1c0,0,0.1,0,0.3,0c0.1,0.1,0.3,0.3,0.4,0.5c0,0,0,0,0,0.1
		c0.1,0.4,0.1,0.4,0.4,0.4c0.2,0,0.3,0,0.4,0c0.3,0.3,0.6,0.6,0.9,0.9c0.2,0,0.4,0,0.6,0c0.1,0.1,0.2,0.2,0.4,0.3c0.1,0,0.2,0,0.3,0
		c0.1-0.1,0.2-0.2,0.3-0.3c0.4,0,0.8,0,1.2,0c0.1-0.1,0.2-0.2,0.3-0.3c0.1,0,0.2,0,0.3,0c0.3-0.3,0.6-0.6,0.9-0.9c0.1,0,0.2,0,0.3,0
		c0.2-0.2,0.4-0.3,0.5-0.5c0-0.2,0-0.4,0-0.6c0.1-0.1,0.2-0.2,0.3-0.3c0-0.2,0-0.4,0-0.6c0.1-0.1,0.2-0.2,0.3-0.4c0-0.1,0-0.2,0-0.3
		c-0.1-0.1-0.2-0.2-0.3-0.3C11.9,152.8,11.9,152.6,11.9,152.6z"/>
	<path class="st0" d="M23.4,145.4c-0.1-0.1-0.2-0.2-0.3-0.3c0.1-0.3-0.9-0.4-0.9-0.8c0-0.1-0.1-0.2-0.2-0.2c-0.5,0-0.9-0.3-1.3-0.3
		c-0.2-0.1-0.3-0.2-0.4-0.3c-0.3,0-0.6,0.1-0.9,0c-0.2-0.4-0.7-0.1-0.9-0.5c-0.1,0.1-0.2,0.2-0.3,0.3c-0.1,0-0.2,0-0.3,0
		c-0.2,0.3-0.5,0.5-0.7,0.8c0,0.3,0,0.6,0,0.9c0.1,0.1,0.2,0.2,0.3,0.3c0,0.5,0.4,1.3,0.4,2c0.2,0.1,0.4,0.3,0.6,0.4
		c0,0.2,0,0.3,0.1,0.4c0.2,0.2,0.4,0.4,0.6,0.6c-0.1,0.3,0.1,0.4,0.3,0.6c0,0.2,0,0.4,0,0.6c0.1,0.1,0.2,0.2,0.3,0.3
		c0,0.1-0.1,0.3,0.1,0.4c0.2,0,0.5,0,0.7,0.1c0.1,0.1,0.2,0.2,0.3,0.2c0.4,0,0.8,0,1.2,0c0.1-0.1,0.2-0.2,0.3-0.3c0.1,0,0.2,0,0.3,0
		c0.1-0.1,0.2-0.2,0.3-0.3c0.1,0,0.2,0,0.3,0c0.2-0.2,0.1-0.6,0.4-0.8c0-0.1,0-0.2,0-0.3c0.1-0.1,0.2-0.2,0.3-0.3
		c0-0.9,0-1.8-0.1-2.8C23.9,145.8,23.6,145.6,23.4,145.4z"/>
	<path class="st0" d="M35,144.2c-0.1-0.4-0.2-0.8-0.3-1.2c-0.1-0.1-0.3-0.2-0.4-0.3c0-0.1-0.1-0.2-0.1-0.3c-0.1-0.1-0.3-0.2-0.3-0.3
		c-0.1-0.2-0.2-0.3-0.4-0.4c-0.1-0.1-0.1-0.3-0.2-0.4c-0.4-0.2-0.7-0.4-1-0.7c0-0.1,0-0.2-0.1-0.5c-0.2-0.1-0.5-0.2-0.6-0.2
		c-0.2-0.3-0.2-0.4-0.3-0.5c-0.1,0-0.2,0.1-0.3,0.1c-0.1-0.1-0.3-0.2-0.4-0.2c-0.1,0.1-0.2,0.2-0.3,0.4c-0.2,0-0.4,0.1-0.6,0.1
		c-0.1,0.2-0.2,0.4-0.3,0.5c0.1,0.4,0.2,0.8,0.3,1.4c-0.1,0.1-0.3,0.4-0.5,0.5c0.1,0.3,0.1,0.5,0.1,0.6c0.1,0.1,0.3,0.2,0.4,0.3
		c0,0.2,0.1,0.4,0.1,0.6c-0.1,0.1-0.1,0.2-0.2,0.3c0,0.4,0.1,0.7,0.3,1c0.1,0.1,0.2,0.1,0.3,0.2c0.1,0.3,0.1,0.6,0.2,0.9
		c0.1,0.1,0.3,0.2,0.4,0.3c0,0.1,0,0.2,0.1,0.3c0.7,0.4,1.3,0.8,2,1.2c0,0,0.1,0,0.1,0c0.3-0.1,0.6-0.1,0.9-0.2
		c0.1-0.1,0.1-0.2,0.2-0.3c0,0,0.1-0.1,0.1-0.1c0.1,0,0.2,0,0.3-0.1c0.1,0,0.2-0.1,0.3-0.1c0.1-0.1,0-0.3,0-0.4
		c0.1-0.2,0.3-0.4,0.4-0.6c0-0.1,0-0.2,0-0.3c0-0.1,0.1-0.3,0.2-0.4c0-0.2,0-0.4-0.1-0.7c0.1-0.1,0.1-0.2,0.2-0.3
		C35.3,144.4,35.1,144.3,35,144.2z"/>
	<path class="st0" d="M95.7,117.6c0-0.5,0-1-0.1-1.4c0,0-0.1-0.1-0.1-0.1c-0.4,0.2,0,0.7-0.2,0.9c-0.1,0.1-0.2,0.2-0.3,0.3
		c0,0.3-0.1,0.6-0.1,0.8c-0.1,0.1-0.2,0.2-0.3,0.3v0.7c0.1,0.1,0.2,0.2,0.3,0.4v0.8c-0.2,0.2-0.5,0.4-0.7,0.6v0.8
		c-0.1,0.1-0.1,0.1-0.1,0.1c-0.3,0.2-0.1,0.7-0.5,0.9c0,0,0,0.1,0,0.2c0,0.3-0.2,0.4-0.3,0.6c0,0.1,0,0.2,0,0.4
		c-0.1,0.1-0.2,0.3-0.4,0.4v1.8c-0.2,0.3-0.5,0.4-0.7,0.8c0.1,0.1,0.2,0.2,0.3,0.3c0,0.2-0.2,0.2-0.3,0.4v1
		c-0.1,0.1-0.2,0.3-0.4,0.4c-0.1,0.1-0.2,0.2-0.3,0.1c-0.1-0.1-0.1-0.2-0.1-0.3c0-0.2,0-0.4,0-0.5c0,0-0.1-0.1-0.1-0.1
		c-0.1,0-0.2,0-0.2,0.2c0,0.2,0,0.5,0,0.7c-0.1,0.2-0.3,0.3-0.3,0.4c-0.1,0.4,0.3,0.5,0.3,0.8c0,0.3,0.1,0.7-0.3,0.9
		c0,0,0,0.1,0,0.2c0,0.5-0.3,0.4-0.5,0.4c-0.2,0.2-0.4,0.3-0.5,0.5v0.4c0.2,0.2,0.4,0.4,0.6,0.6c0.1,0.1,0,0.2-0.1,0.3h-0.3
		c-0.1,0.1-0.3,0.2-0.4,0.3c-0.3-0.3-0.3-0.3-0.5-0.2v0.3c-0.1,0.1-0.2,0.3-0.4,0.4v0.3c-0.1,0.1-0.2,0.3-0.4,0.4c0,0.1,0,0.2,0,0.4
		c-0.2,0.3-0.5,0.5-0.7,0.8c0,0.3,0,0.5,0,0.7c-0.3,0.3-0.5,0.5-0.7,0.7v0.3c-0.1,0.1-0.2,0.3-0.4,0.4v0.4c-0.7,0.7-1.4,1.4-2.1,2.1
		v0.9c-0.4-0.1-0.6,0.1-0.9,0.4c-0.1,0-0.2,0-0.5,0c-0.1,0.1-0.2,0.3-0.4,0.5c0,0,0,0.1-0.1,0.2v0.2c0,0.1,0,0.1,0,0.2
		c0,0.1,0,0.2-0.1,0.3c-0.1,0.2-0.3,0.1-0.5,0.1c-0.1,0.1-0.3,0.2-0.4,0.4H81c-0.2,0.3-0.5,0.3-0.7,0.4c-0.2,0.2-0.4,0.4-0.6,0.6
		c-0.1,0-0.2,0-0.4,0c-0.1,0.1-0.2,0.2-0.4,0.4h-0.3c-0.1,0.1-0.3,0.2-0.4,0.4h-0.7c-0.1,0.1-0.2,0.2-0.3,0.3
		c-0.2,0.1-0.6,0.1-0.7,0.4c0,0.1-0.2,0.1-0.3,0.1c-0.2,0-0.3,0-0.5,0c-0.1,0.1-0.2,0.2-0.3,0.3h-1c-0.1,0.1-0.3,0.2-0.4,0.4
		c-0.1,0-0.2,0-0.3,0c-0.1,0.1-0.2,0.2-0.4,0.4h-1.8c-0.1,0.1-0.3,0.2-0.4,0.3h-0.7c-0.2-0.1-0.3-0.2-0.4-0.3c-0.4,0-0.7,0-1.5,0.1
		c0.3,0,0.2,0.2,0,0.2c-0.1-0.1-0.2-0.2-0.3-0.3c-0.1,0.1-0.2,0.2-0.4,0.3c-0.1-0.1-0.2-0.2-0.4-0.3h-0.7c-0.1,0.1-0.3,0.2-0.4,0.3
		c-0.1-0.1-0.2-0.2-0.2-0.3c-0.1-0.4-0.1-0.4-0.4-0.4c-0.2,0-0.3,0-0.5,0c-0.2-0.1-0.2-0.3-0.4-0.3c-0.2,0.2-0.4,0.4-0.6,0.6H64
		c-0.2-0.2-0.5-0.5-0.8-0.7h-1c-0.1-0.1-0.2-0.2-0.3-0.3c-0.1-0.1-0.3-0.1-0.5,0c-0.1,0.1-0.2,0.3-0.4,0.2c-0.2-0.2-0.4-0.4-0.6-0.6
		h-2.1c-0.1-0.1-0.3-0.2-0.4-0.4c-0.3,0.2-0.5,0.5-0.7,0.7c-0.4,0.1-0.5-0.3-0.8-0.3c-0.3,0-0.4-0.2-0.6-0.4h-1
		c-0.1-0.1-0.3-0.2-0.4-0.4h-0.7c-0.1-0.1-0.3-0.2-0.4-0.4h-0.7c-0.1-0.1-0.3-0.2-0.4-0.4h-0.5c-0.5-0.2-0.6-0.6-0.9-0.7
		c-0.2-0.1-0.5,0.1-0.7-0.1c-0.2-0.2-0.4-0.4-0.6-0.6h-0.3c-0.3-0.1-0.1-0.6-0.4-0.7c-0.2,0-0.4,0.1-0.5-0.2c0-0.2,0-0.4,0-0.6
		c0-0.3,0.1-0.6-0.1-0.8c-0.1-0.1-0.2-0.2-0.3-0.3v-3.9c0.1-0.1,0.2-0.2,0.3-0.4v-5.4c0.1-0.1,0.2-0.3,0.4-0.4v-1.4
		c0.2-0.2,0.3-0.3,0.5-0.5h0.3c0.3-0.3,0.5-0.5,0.8-0.7c0.3,0.1,0.4-0.1,0.6-0.3c0.2-0.2,0.6-0.1,0.7-0.4c0.3,0,0.5-0.1,0.7-0.4
		c0-0.1,0.2,0,0.4,0c0.4-0.4,0.9-0.9,1.3-1.3c-0.1,0-0.1,0-0.2,0.1c0.3-0.1,0.2-0.1,0.2-0.1c0,0,0,0,0,0c0.4-0.1,0.5-0.2,0.6-0.2
		v-0.3c0.1,0,0.2,0,0.3,0c0.3-0.3,0.5-0.6,0.8-0.9c0,0,0-0.1,0-0.1h0.2c0.2-0.2,0.3-0.3,0.5-0.5c0-0.1,0-0.1,0-0.2
		c0.2-0.3,0.5-0.6,0.7-0.9c-0.1-0.3,0.1-0.5,0.3-0.7c0-0.2-0.1-0.4-0.1-0.7c0.1-0.1,0.2-0.3,0.3-0.4c0-0.2-0.1-0.4-0.1-0.7
		c0.1-0.1,0.2-0.3,0.3-0.4c0,0,0-0.1,0-0.1c0-0.1,0-0.1,0-0.2c0.1-0.2,0.2-0.3,0.3-0.4c0-0.1,0-0.1,0-0.2c0,0,0.1-0.1,0.1-0.1
		c0-0.2,0-0.5,0-0.7c0.1-0.1,0.1-0.1,0.2-0.2c0-0.1,0-0.1,0-0.2c0.1-0.1,0.1-0.1,0.2-0.2c0-0.1,0-0.2,0-0.4c0.1-0.1,0.2-0.2,0.3-0.3
		c-0.1-0.1-0.1-0.1-0.2-0.2c0-0.3,0-0.6,0-0.9c0-0.1,0.1-0.1,0.2-0.2c0-0.1,0-0.2,0-0.4c0.1-0.1,0.1-0.1,0.2-0.2c0-0.2,0-0.4,0-0.5
		c0.1-0.1,0.1-0.1,0.2-0.2c0-0.1,0-0.2,0-0.3c0-0.1,0.1-0.1,0.1-0.1c0,0,0,0,0-0.1c0-0.4,0-0.8,0-1.1c0,0,0.1-0.1,0.1-0.1
		c0-0.3,0-0.5,0-0.7c0.4-0.2,0.1-0.8,0.5-1c0-0.3,0.1-0.5,0.3-0.7c0-0.3-0.1-0.7-0.1-1c0.1-0.1,0.2-0.3,0.3-0.4c0-0.3-0.1-0.7-0.1-1
		c0.1-0.1,0.3-0.3,0.3-0.4c0-0.3,0.1-0.4,0.2-0.6c0.1-0.2,0.1-0.4-0.2-0.6c-0.1,0-0.2,0-0.3,0c-0.2-0.2-0.4-0.3-0.5-0.5
		c0-0.3-0.1-0.6-0.1-1c0.1-0.1,0.2-0.2,0.3-0.4c-0.3-0.2-0.6-0.5-1-0.8c-0.2,0-0.4,0-0.6,0c-0.3-0.1-0.2-0.5-0.5-0.7
		c-0.2,0-0.4,0-0.7,0c-0.1-0.1-0.3-0.2-0.4-0.3c-0.4,0-0.9,0-1.3,0.1c-0.1-0.1-0.3-0.2-0.4-0.3c-0.1-0.1-0.3-0.2-0.4-0.3
		c-1.1,0.1-2.2,0.1-3.2,0.2c0,0-0.1,0-0.1,0.1c-0.1,0.1-0.1,0.2-0.2,0.3c-0.2,0-0.4,0-0.6,0c-0.1,0.1-0.2,0.2-0.4,0.4
		c-0.3,0-0.6,0-1,0c-0.1,0.1-0.2,0.2-0.3,0.4c-0.2,0-0.4,0-0.7,0c-0.1,0.1-0.2,0.2-0.3,0.3c-0.6,0-1.1,0.1-1.7,0.1
		c-0.1-0.1-0.3-0.2-0.4-0.3c-0.2,0.2-0.4,0.4-0.6,0.7c-0.2,0-0.4,0-0.6,0c-0.1,0.1-0.2,0.2-0.3,0.4c-0.1,0-0.2,0-0.3,0
		c-0.1,0.1-0.2,0.2-0.3,0.4c-0.4,0-0.9,0-1.3,0.1c-0.3,0.2-0.4,0.5-0.6,0.6c-0.4,0.1-0.8,0-1.1,0.2c-0.2,0.2-0.4,0.4-0.5,0.6
		c-0.3,0-0.5,0.2-0.7,0.4c-0.4,0-0.9,0-1.3,0.1c-0.1,0-0.1,0.2-0.2,0.2c0,0.2,0.1,0.4,0,0.6c-0.1,0.1-0.1,0.2-0.2,0.3
		c0,0.4,0,0.8,0.2,1.1c0.2,0.2,0.4,0.4,0.7,0.6c0,0.1,0,0.2,0,0.3c0.1,0.1,0.3,0.2,0.4,0.3c0,0.1,0,0.2,0.1,0.3
		c0.4,0.1,0.3,0.6,0.6,0.8c0.1,0,0.2,0,0.3,0c0.3,0.2,0.5,0.4,0.8,0.6c0.3-0.1,0.5,0.2,0.7,0.3c0.3,0,0.5,0,0.7,0
		c0.2,0.4,0.8,0.1,1,0.5c0.3,0,0.5,0.1,0.7,0.3c0.1-0.1,0.2-0.2,0.3-0.4c0.1,0,0.2,0,0.3,0c0.1-0.1,0.2-0.2,0.3-0.3
		c0.4-0.2,0.5,0.2,0.8,0.3c0.7,0,1.4-0.1,2.2-0.1c0,0,0.1,0,0.2,0c0.1,0.1,0.2,0.1,0.3,0.2c0.1-0.1,0.2-0.2,0.3-0.3c0.3,0,0.6,0,1,0
		c0.1,0.1,0.2,0.2,0.4,0.3c0.2,0,0.4,0,0.7,0c0.2,0.1,0.3,0.3,0.5,0.5c0,0.3,0.1,0.6,0.1,0.9c0.1,0.1,0.2,0.2,0.4,0.4
		c-0.1,0.1-0.2,0.2-0.3,0.4c0.1,0.1,0.2,0.2,0.4,0.3c0,0.1,0,0.2,0.1,0.3c0.1,0.1,0.2,0.2,0.4,0.4c0,0.4,0.1,0.7,0.1,1.1l-0.2,0.2
		l0.1,0.6l-0.2,0.4l-0.1,0.4c0,0.8-0.1,0.8-0.1,1.5c-0.1,0.1-0.2,0.2-0.2,0.3c0,0.1,0,0.1,0,0.2c-0.2,0.2-0.4,0.4-0.7,0.6
		c-0.2,0.2-0.2,0.4-0.2,0.4c-0.3,0.3-0.4,0.5-0.5,0.7c-0.2,0-0.3,0-0.5,0c-0.1,0.3-0.4,0.3-0.7,0.4c-0.1,0.1-0.2,0.2-0.3,0.3
		c-0.3,0.1-0.6,0-0.9,0c-0.3,0-0.7-0.1-1,0.1c-0.2,0.2-0.4,0.4-0.6,0.6c-0.1,0-0.2,0-0.4,0c-0.3,0.3-0.5,0.6-0.9,0.9
		c0,0.1,0,0.3,0,0.4c0,0.1,0,0.3-0.1,0.3c-0.1,0-0.2,0-0.3,0.1c-0.1,0-0.2,0.1-0.3,0.2v0.8c-0.2,0.2-0.5,0.4-0.7,0.6v3.6
		c-0.1,0.1-0.2,0.2-0.3,0.3c0,0-0.1,0.1-0.1,0.2c0,1,0,2,0,3c0,0.1,0,0.1,0.1,0.2c0.1,0.1,0.2,0.2,0.3,0.3c0.2,0.4-0.1,0.5-0.3,0.8
		v4.6c-0.1,0.1-0.2,0.3-0.4,0.4v0.7c-0.1,0.1-0.2,0.3-0.3,0.4c0.1,0.1,0.2,0.3,0.3,0.4c0,0.1,0,0.3,0,0.3c-0.1,0.1-0.2,0.3-0.3,0.4
		c0,0.3,0,0.5,0,0.7c-0.5,0.5-0.5,0.5,0,1v1.1c0.1,0.1,0.2,0.3,0.4,0.4v0.7c0.1,0.1,0.2,0.3,0.4,0.4c0,0.1,0,0.2,0,0.4
		c0.6,0.6,1.3,1.3,1.9,1.9c0.2,0.1,0.4,0,0.6,0.2c0.1,0.2,0.3,0.3,0.5,0.5c0.1-0.1,0.3-0.2,0.4-0.3h0.7c0.1,0.1,0.3,0.2,0.4,0.4h0.7
		c0.2,0.1,0.3,0.2,0.3,0.3c0.4,0.1,0.8,0,1.1,0.1c0.1,0.1,0.2,0.2,0.3,0.3c0.1,0,0.3,0,0.5,0c0.2,0,0.5-0.1,0.7,0.1
		c0.1,0.1,0.2,0.2,0.3,0.3h1.4c0.1,0.1,0.3,0.2,0.4,0.4h0.3c0.1,0.1,0.3,0.2,0.4,0.4h0.3c0.1-0.1,0.3-0.2,0.4-0.3
		c0.4-0.1,0.5,0.3,0.8,0.3h1.6c0.1,0,0.1,0,0.2,0c0.1,0.1,0.2,0.2,0.3,0.3c0.3,0,0.5,0.1,0.8,0.1c0.1,0.1,0.2,0.2,0.3,0.3
		c0.1-0.1,0.2-0.2,0.4-0.3h0.3c0.1,0.1,0.3,0.2,0.4,0.4H60c0.1,0.1,0.3,0.2,0.4,0.4h1.4c0.2,0.1,0.3,0.2,0.4,0.3c0.3,0,0.6,0,0.9,0
		c0.1,0,0.1,0,0.2,0c0.1,0.1,0.2,0.2,0.3,0.3c0.5,0.1,1-0.1,1.5,0.1c0.2,0.2,0.4,0.4,0.6,0.6h0.3c0.1,0.1,0.3,0.2,0.4,0.4h0.7
		c0.1,0.1,0.3,0.2,0.4,0.3c0.1-0.1,0.3-0.2,0.4-0.3c0.2,0.2,0.4,0.5,0.7,0.7h0.7c0.1,0.1,0.3,0.2,0.4,0.4h0.7
		c0.1,0.1,0.3,0.2,0.4,0.4h1.4c0.1,0.1,0.3,0.2,0.4,0.3h1.4c0.2-0.1,0.3-0.2,0.4-0.3c0.1,0.1,0.2,0.2,0.3,0.3
		c0.1-0.1,0.2-0.2,0.4-0.3h0.7c0.1-0.1,0.3-0.2,0.4-0.4h0.3c0.1-0.1,0.3-0.2,0.4-0.4h1c0.1-0.1,0.2-0.2,0.3-0.3
		c0.1-0.1,0.3,0,0.5-0.1c0.1-0.1,0.3-0.3,0.4-0.3c0.3,0,0.4-0.2,0.6-0.3c0.3-0.1,0.5-0.2,0.7-0.4c0.1-0.1,0.2,0,0.4,0
		c0.2-0.2,0.5-0.5,0.8-0.7H82c0.5-0.5,0.9-0.9,1.3-1.3c0-0.1,0-0.3,0-0.3c0.3-0.3,0.6-0.6,0.8-0.9c0.2,0,0.3,0,0.4,0
		c0.1-0.1,0.3-0.2,0.4-0.3c0.1,0.1,0.2,0.2,0.3,0.3c0,0,0.1,0,0.1,0c0.3-0.3,0.6-0.5,0.8-0.9c0-0.3-0.1-0.6,0.2-0.8h0.4
		c0.1-0.2,0.1-0.4,0.2-0.7c0.3-0.3,0.6-0.6,1-0.9V146c0.1-0.1,0.2-0.3,0.3-0.4c0-0.1,0-0.3,0-0.4c0.2-0.2,0.4-0.4,0.6-0.6
		c0-0.1,0-0.2,0.1-0.3c0-0.1,0.1-0.2,0.2-0.2c0.1,0,0.1,0.2,0.2,0.3c0.1,0.5,0.2,0.5,0.7,0.2v-0.7c0.1-0.1,0.2-0.3,0.3-0.4
		c-0.1-0.2-0.3-0.1-0.5-0.2c-0.2,0-0.3-0.2-0.2-0.4c0-0.1,0-0.1,0-0.2c0.1-0.1,0.3-0.3,0.3-0.4c0-0.2,0-0.3,0.2-0.5h0.4
		c0.1-0.2,0.1-0.4,0.2-0.6c0.2-0.2,0.4-0.4,0.6-0.6v-0.4c-0.1-0.1-0.2-0.3-0.3-0.4v-0.4c0.2-0.3,0.5-0.5,0.7-0.8
		c0-0.4-0.1-0.7,0.1-1.1c0.1-0.1,0.2-0.2,0.2-0.3c0.1-0.4,0-0.8,0.1-1.2c0.2-0.2,0.4-0.4,0.6-0.6c0-0.5,0-0.9,0-1.4
		c0,0,0.1-0.1,0.1-0.1c0.1,0,0.2,0,0.2,0.1c0,0,0,0.1,0,0.2c0,0.1,0,0.2,0.1,0.3c0.1,0,0.2-0.1,0.2-0.1v-0.7
		c-0.1-0.2-0.3-0.2-0.3-0.4c0.2-0.2,0.4-0.4,0.6-0.6v-1.1c-0.1-0.1-0.2-0.2-0.3-0.4v-0.7c-0.1-0.1-0.2-0.3-0.4-0.4
		c0.1-0.3-0.1-0.6,0.2-0.8h0.7c0.1,0.1,0.2,0.2,0.4,0.3c0.2-0.1,0.2-0.3,0.1-0.6c-0.2-0.2-0.4-0.4-0.6-0.7v-1.1
		c0.1-0.1,0.2-0.2,0.3-0.4v-0.7c0.1-0.1,0.2-0.3,0.4-0.4c0-0.1,0-0.2,0-0.3c-0.1-0.1-0.2-0.3-0.3-0.4c-0.1-0.4,0.3-0.5,0.3-0.8
		c0-0.3-0.1-0.7,0.4-1c0-0.3,0-0.7,0-1c0-0.4-0.1-0.8,0.1-1.2c0.1-0.1,0.2-0.2,0.3-0.3v-1.1c0.1-0.1,0.2-0.3,0.4-0.4
		c-0.1-0.1-0.2-0.3-0.3-0.4V118C95.5,117.9,95.6,117.8,95.7,117.6z"/>
	<path class="st0" d="M141.5,84.7c0.3,0,0.4-0.2,0.9-0.8c0.7,0.7,0.8,0.9,1.2,1.8c0.5,1.1,0.5,1.3,0.8,1.3c0.7,0,1-1.1,1-1.6
		c0-0.3-0.1-1.8-0.1-2c0-0.6,0-0.9,0-1.2c0.1-0.1,4.2-2.7,6.5-2.7c0.5,0,2,0.1,2,1.7c0,0.5-0.4,3.7-3.7,3.7c-1.2,0-1.9-0.5-2.4-0.8
		l-0.1,0.1c1,1.3,2.3,1.7,3.4,1.7c3.2,0,4.1-3.2,4.1-4.8c0-2.2-1.8-2.5-2.8-2.5c-0.9,0-2,0.3-2.9,0.6c-1.2,0.4-3.9,1.8-4,1.9
		c0-1.1,0-2.5,0.1-4.2c0.5-0.2,1.7-0.7,1.9-0.8c0.5-0.3,0.7-0.4,0.7-0.7c0-0.4-0.8-0.8-1.2-0.8c-0.1,0-0.4,0.2-0.6,0.4
		c-0.4,0.3-0.6,0.4-0.7,0.5c0-0.4,0.1-0.9,0.2-1.6c0.1-0.3,0.4-1.4,0.4-1.7c0-0.5-0.4-1.3-1.9-1.6v0.1c0.3,0.4,0.3,0.7,0.3,1.7
		c0,0.6-0.1,3.1-0.2,3.6c-0.6,0.3-2.2,0.8-3.8,0.9v0.1c0.4,0.3,0.9,0.6,1.9,0.6c0.7,0,1.3-0.2,1.9-0.5c0,0.7,0,3.7,0,4.3
		c-0.2,0.1-2.8,1.3-3.4,1.3c-0.1,0-0.4-0.1-0.5-0.1c-0.1,0-0.3,0.2-0.3,0.6C140.2,84.2,141.2,84.7,141.5,84.7z M144.4,82.7
		c0,1.8,0,2-0.2,2c-0.4,0-0.7-0.3-1.5-0.9C143,83.6,144.3,82.8,144.4,82.7z"/>
	<path class="st0" d="M151.7,74.7l0.1,0.1c0.5,0,0.8,0.1,1.1,0.3c0.5,0.4,0.7,0.5,1,0.5c0.4,0,0.6-0.3,0.6-0.6
		c0-0.6-0.5-1.5-1.3-1.8c-1-0.5-2.8-0.3-2.8-0.3v0.1c1.1,0.5,1.8,1,1.8,1.3C152.1,74.5,152,74.7,151.7,74.7z"/>
	<path class="st0" d="M170.6,74.4c0.2,0.3,0.3,0.4,0.5,0.4c0.8,0,1.1-0.6,1.1-1.1c0-1.2-1.4-2-2.8-2.1l0,0c0.9,0.5,1.1,1.4,1.1,1.6
		c0,0.3-0.1,0.3-0.5,0.3c-0.2,0-0.6,0-0.9,0l0,0.1C170.1,73.8,170.5,74.2,170.6,74.4z"/>
	<path class="st0" d="M175,75.2c-2,0-3.9,0.8-4.9,1.2c-0.4,0.2-1.9,0.9-2.2,1.1c-0.8-1.2-1.6-2.4-1.6-3.4c0-0.1,0-0.3,0.1-0.4v-0.1
		c-1.1,0.4-1.1,1.2-1.1,1.2c0,0.7,0.3,1.2,1.3,2.5c0.3,0.4,0.4,0.5,0.5,0.6c-0.3,0.2-1.8,0.9-2.1,1.1c-0.6,0.3-1.1,0.5-1.7,0.5
		c-0.1,0-0.2,0-0.4-0.1l0,0.1c0.2,0.9,1.2,1.2,1.8,1.2c0.4,0,0.5-0.1,1.3-0.7c0.5-0.4,1.3-0.9,1.7-1.2c2.1,3.3,2.6,4.5,3.4,6.7
		c0.4,1,0.4,1.2,0.8,1.2c0.7,0,0.7-1.2,0.7-1.4c0-1.6-1.8-4-4-6.9c1.6-1.1,4.5-2.5,6.4-2.5c1.1,0,1.9,0.2,1.9,1.5
		c0,0.7-0.5,2.5-2.9,2.5c-0.4,0-1,0-1.4-0.3l-0.1,0.1c0.7,0.7,1.6,1.2,2.7,1.2c1.5,0,3.3-1.3,3.3-3.3
		C178.2,76.5,177.4,75.2,175,75.2z"/>
	<path class="st0" d="M191.7,77c-0.3,0.2-1.8,1.1-2,1.2c-0.6-1-0.6-3.4-0.6-4c0-1.4,0-1.6-0.1-1.8c-0.3-0.4-1.2-0.9-2.2-0.9
		l-0.1,0.1c0.5,0.4,0.6,0.6,1,3.8c0.1,0.5,0.3,2.1,1.1,3.2c-0.3,0.2-3.5,2.1-3.5,4.2c0,2.3,2.6,3,5.6,3c0.3,0,2.4,0,3.6-0.3
		c0.9-0.2,0.9-0.6,0.9-0.7c0-0.9-1.4-1.1-1.7-1.1c-0.2,0-0.3,0-1.2,0.3c-0.3,0.1-1.2,0.3-2.9,0.3c-0.9,0-3.3,0-3.3-1.7
		c0-1.2,1.9-2.7,2.9-3.3c0.2,0.3,0.5,0.8,0.9,0.8c0.3,0,0.4-0.3,0.4-0.4c0-0.1-0.3-0.6-0.3-0.7c0.4-0.2,3.3-1.6,4.3-1.8
		c0.7-0.1,1-0.2,1-0.7c0-0.3-0.2-1.5-1.9-1.6l-0.1,0.1c0.1,0,0.2,0.1,0.2,0.3C193.7,75.8,193.4,76,191.7,77z"/>
	<path class="st0" d="M197.2,72.2c0.7,0.6,0.8,0.6,1,0.6c0.3,0,0.5-0.1,0.5-0.4c0-1-1.2-1.4-2.9-1.4h-0.2l0,0.1
		C195.8,71.2,196.1,71.4,197.2,72.2z"/>
	<path class="st0" d="M195.7,73.6c0.6,0.6,0.6,0.7,0.9,0.7c0.3,0,0.5-0.2,0.5-0.5c0-1-1.1-1.4-2.7-1.6l0,0.1
		C194.8,72.7,195.1,72.9,195.7,73.6z"/>
	<rect x="148.1" class="st0" width="5.9" height="39.1"/>
	<polygon class="st0" points="162.9,5.9 165.9,5.9 165.9,39.1 171.8,39.1 171.8,0 157,0 157,39.1 162.9,39.1 	"/>
	<polygon class="st0" points="180.7,5.9 183.7,5.9 183.7,39.1 189.6,39.1 189.6,0 174.8,0 174.8,39.1 180.7,39.1 	"/>
	<path class="st0" d="M148.1,49.9L148.1,49.9c0.3,0,0.5,0,0.8,0c0.3,0,0.5,0,0.8,0c0,0,0,0,0,0c0,0,0.1-0.1,0.1-0.1
		c0-0.1,0-0.1-0.1-0.2c0,0,0,0,0,0l-0.2,0c-0.2,0-0.3-0.1-0.3-0.7v-0.5c0-0.2,0-0.2,0.1-0.2c0.1,0,0.2,0,0.2,0.1l0.9,1
		c0.1,0.1,0.1,0.2,0.1,0.2c0,0-0.1,0-0.2,0l-0.2,0c0,0,0,0,0,0c0,0-0.1,0.1-0.1,0.2c0,0.1,0,0.1,0.1,0.2c0,0,0,0,0,0
		c0.2,0,0.5,0,0.9,0c0.3,0,0.6,0,0.8,0c0,0,0,0,0,0c0.1,0,0.1-0.1,0.1-0.1c0-0.1,0-0.1-0.1-0.2c0,0,0,0,0,0l-0.1,0
		c-0.2,0-0.3-0.1-0.4-0.2c-0.2-0.2-0.4-0.5-0.8-0.9c-0.3-0.3-0.4-0.5-0.6-0.7c0,0,0,0,0.1-0.1c0,0,0.1-0.1,0.1-0.1
		c0.2-0.2,0.4-0.4,0.6-0.6c0.2-0.2,0.4-0.3,0.5-0.3l0.3-0.1c0,0,0,0,0,0c0.1,0,0.1-0.1,0.1-0.2c0-0.1,0-0.1-0.1-0.1c0,0,0,0,0,0
		c-0.5,0.1-1.1,0.1-1.3,0.1h-0.2c0,0,0,0,0,0c-0.1,0-0.1,0.1-0.1,0.2c0,0.1,0,0.1,0.1,0.2l0.2,0c0.1,0,0.1,0,0.1,0
		c0,0,0,0.1-0.3,0.3l-0.3,0.4c-0.2,0.2-0.4,0.3-0.5,0.3c-0.1,0-0.1,0-0.1,0c0,0,0,0,0-0.1v-2.9c0-0.3,0-0.7,0-0.9l0-0.1c0,0,0,0,0,0
		c0-0.1-0.1-0.1-0.1-0.1c0,0,0,0,0,0c-0.3,0.2-0.7,0.3-0.9,0.3c0,0,0,0,0,0c0,0-0.1,0.1-0.1,0.1c0,0.1,0,0.1,0.1,0.1l0.1,0.1
		c0.2,0.1,0.2,0.2,0.2,0.6v3.8c0,0.6,0,0.6-0.3,0.7l-0.2,0c0,0,0,0,0,0c-0.1,0-0.1,0.1-0.1,0.2C148,49.8,148,49.8,148.1,49.9
		C148.1,49.9,148.1,49.9,148.1,49.9z"/>
	<path class="st0" d="M154.6,47.3c0-0.4,0-0.8,0-1c0,0,0,0,0,0c0-0.1-0.1-0.1-0.1-0.1c0,0,0,0,0,0c-0.2,0.1-0.7,0.3-0.9,0.4
		c0,0-0.1,0.1-0.1,0.1c0,0,0,0.1,0.1,0.2l0.1,0.1c0.2,0.1,0.2,0.1,0.2,0.5v1.5c0,0.6,0,0.6-0.3,0.7l-0.2,0c0,0,0,0,0,0
		c0,0-0.1,0.1-0.1,0.2c0,0.1,0,0.1,0.1,0.1c0,0,0,0,0,0h0c0.2,0,0.5,0,0.8,0c0.3,0,0.5,0,0.8,0c0,0,0,0,0,0c0,0,0.1-0.1,0.1-0.1
		c0-0.1,0-0.1-0.1-0.2c0,0,0,0,0,0l-0.2,0c-0.2,0-0.3-0.1-0.3-0.7V47.3z"/>
	<path class="st0" d="M153.7,45c0,0.3,0.2,0.5,0.5,0.5c0.3,0,0.5-0.2,0.5-0.5c0-0.3-0.2-0.5-0.5-0.5C153.9,44.5,153.7,44.7,153.7,45
		z"/>
	<path class="st0" d="M156.2,49.9L156.2,49.9c0.2,0,0.5,0,0.8,0c0.3,0,0.5,0,0.8,0c0,0,0,0,0,0c0,0,0.1-0.1,0.1-0.1
		c0-0.1,0-0.1-0.1-0.2c0,0,0,0,0,0l-0.2,0c-0.2,0-0.3-0.1-0.3-0.7v-1.3c0-0.2,0-0.3,0.1-0.5c0.1-0.1,0.3-0.3,0.7-0.3
		c0.5,0,0.7,0.3,0.7,0.8v1.3c0,0.6,0,0.6-0.3,0.7l-0.2,0c0,0,0,0,0,0c0,0-0.1,0.1-0.1,0.2c0,0.1,0,0.1,0.1,0.1c0,0,0,0,0,0
		c0.2,0,0.5,0,0.8,0c0.3,0,0.5,0,0.8,0c0,0,0,0,0,0c0,0,0.1-0.1,0.1-0.1c0-0.1,0-0.1-0.1-0.2c0,0,0,0,0,0l-0.2,0
		c-0.2,0-0.3-0.1-0.3-0.7v-1.5c0-0.7-0.4-1.1-1-1.1c-0.4,0-0.8,0.2-1.2,0.4c0,0,0,0,0,0c0-0.1,0-0.2,0-0.4c0,0,0,0,0,0
		c0-0.1-0.1-0.1-0.2-0.1c0,0,0,0,0,0c-0.2,0.1-0.6,0.3-0.8,0.4c0,0-0.1,0.1-0.1,0.1c0,0,0,0.1,0.1,0.2l0.1,0.1
		c0.2,0.1,0.2,0.1,0.2,0.5v1.5c0,0.6,0,0.6-0.3,0.7l-0.2,0c0,0,0,0,0,0c0,0-0.1,0.1-0.1,0.2C156.1,49.8,156.2,49.8,156.2,49.9
		C156.2,49.9,156.2,49.9,156.2,49.9z"/>
	<path class="st0" d="M160.8,48.2c0,1,0.8,1.8,1.8,1.8c1.1,0,1.8-0.8,1.8-1.9c0-1-0.8-1.8-1.8-1.8C161.6,46.3,160.8,47.1,160.8,48.2
		z M163.6,48.2c0,0.3-0.1,1.4-0.9,1.4c-0.7,0-1-0.8-1-1.5c0-0.8,0.4-1.4,0.9-1.4C163.4,46.7,163.6,47.6,163.6,48.2z"/>
	<path class="st0" d="M167.5,49.5C167.5,49.5,167.4,49.5,167.5,49.5c-0.1,0-0.1,0.1-0.1,0.2c0,0.1,0,0.1,0.1,0.2c0,0,0,0,0,0
		c0.2,0,0.5,0,0.9,0c0.3,0,0.6,0,0.8,0c0,0,0,0,0,0c0.1,0,0.1-0.1,0.1-0.1c0-0.1,0-0.1-0.1-0.2c0,0,0,0,0,0l-0.1,0
		c-0.2,0-0.3-0.1-0.4-0.2c-0.2-0.2-0.5-0.5-0.8-0.9c-0.3-0.3-0.4-0.5-0.6-0.7c0,0,0,0,0.1-0.1c0,0,0.1-0.1,0.1-0.1
		c0.2-0.2,0.4-0.4,0.6-0.6c0.2-0.2,0.4-0.3,0.5-0.3l0.3-0.1c0,0,0,0,0,0c0.1,0,0.1-0.1,0.1-0.2c0-0.1,0-0.1-0.1-0.1c0,0,0,0,0,0
		c-0.5,0.1-1.1,0.1-1.3,0.1h-0.2c0,0,0,0,0,0c-0.1,0-0.1,0.1-0.1,0.2c0,0.1,0,0.1,0.1,0.2l0.2,0c0.1,0,0.1,0,0.1,0
		c0,0,0,0.1-0.3,0.3l-0.3,0.4c-0.2,0.2-0.4,0.3-0.5,0.3c-0.1,0-0.1,0-0.1,0c0,0,0,0,0-0.1v-2.9c0-0.3,0-0.7,0-0.9l0-0.1c0,0,0,0,0,0
		c0-0.1-0.1-0.1-0.1-0.1c0,0,0,0,0,0c-0.3,0.2-0.7,0.3-0.9,0.3c0,0,0,0,0,0c0,0-0.1,0.1-0.1,0.1c0,0.1,0,0.1,0.1,0.1l0.1,0.1
		c0.2,0.1,0.2,0.2,0.2,0.6v3.8c0,0.6,0,0.6-0.3,0.7l-0.2,0c0,0,0,0,0,0c-0.1,0-0.1,0.1-0.1,0.2c0,0.1,0,0.1,0.1,0.2c0,0,0,0,0,0h0
		c0.3,0,0.5,0,0.8,0c0.3,0,0.5,0,0.8,0c0,0,0,0,0,0c0,0,0.1-0.1,0.1-0.1c0-0.1,0-0.1-0.1-0.2c0,0,0,0,0,0l-0.2,0
		c-0.2,0-0.3-0.1-0.3-0.7v-0.5c0-0.2,0-0.2,0.1-0.2c0.1,0,0.2,0,0.2,0.1l0.9,1c0.1,0.1,0.1,0.2,0.1,0.2c0,0-0.1,0-0.2,0L167.5,49.5z
		"/>
	<path class="st0" d="M172.5,49.2c-0.2,0.1-0.4,0.2-0.6,0.2c-0.6,0-0.7-0.4-0.7-0.9v-1.4c0-0.4,0-0.6,0-0.7c0,0,0,0,0,0
		c0-0.1-0.1-0.1-0.1-0.1c0,0,0,0,0,0c-0.1,0-0.4,0.1-0.9,0.1c0,0,0,0,0,0c0,0-0.1,0.1-0.1,0.1c0,0.1,0,0.1,0.1,0.2c0,0,0,0,0,0
		l0.1,0c0.2,0.1,0.2,0.1,0.2,0.7v1.4c0,0.8,0.3,1.1,1.1,1.1c0.5,0,0.9-0.3,1.2-0.4l0,0c0,0,0,0,0,0v0.3c0,0,0,0,0,0
		c0,0.1,0.1,0.1,0.2,0.1c0,0,0,0,0,0c0.2-0.1,0.6-0.2,1-0.3l0.1,0c0,0,0,0,0,0c0,0,0.1-0.1,0.1-0.1c0-0.1,0-0.2-0.1-0.2
		c0,0,0,0-0.1,0c-0.1,0-0.2,0-0.3,0c-0.2,0-0.2-0.2-0.2-0.9v-1.4c0-0.3,0-0.6,0-0.7c0,0,0,0,0,0c0-0.1-0.1-0.1-0.1-0.1c0,0,0,0,0,0
		c-0.2,0.1-0.6,0.1-1,0.1c0,0,0,0,0,0c-0.1,0-0.1,0.1-0.1,0.1c0,0.1,0,0.1,0.1,0.2l0.1,0c0.2,0.1,0.3,0.1,0.3,0.6v1.4
		C172.6,49,172.6,49.1,172.5,49.2z"/>
	<path class="st0" d="M178.9,49.5l-0.2,0c-0.2,0-0.3-0.1-0.3-0.7v-1.5c0-0.7-0.4-1.1-1-1.1c-0.4,0-0.8,0.2-1.2,0.4c0,0,0,0,0,0
		c0-0.1,0-0.2,0-0.4c0,0,0,0,0,0c0-0.1-0.1-0.1-0.2-0.1c0,0,0,0,0,0c-0.2,0.1-0.6,0.3-0.8,0.4c0,0-0.1,0.1-0.1,0.1
		c0,0,0,0.1,0.1,0.2l0.1,0.1c0.2,0.1,0.2,0.1,0.2,0.5v1.5c0,0.6,0,0.6-0.3,0.7l-0.2,0c0,0,0,0,0,0c0,0-0.1,0.1-0.1,0.2
		c0,0.1,0,0.1,0.1,0.1c0,0,0,0,0,0c0.2,0,0.5,0,0.8,0c0.3,0,0.5,0,0.8,0c0,0,0,0,0,0c0,0,0.1-0.1,0.1-0.1c0-0.1,0-0.1-0.1-0.2
		c0,0,0,0,0,0l-0.2,0c-0.2,0-0.3-0.1-0.3-0.7v-1.3c0-0.2,0-0.3,0.1-0.5c0.1-0.1,0.3-0.3,0.7-0.3c0.5,0,0.7,0.3,0.7,0.8v1.3
		c0,0.6,0,0.6-0.3,0.7l-0.2,0c0,0,0,0,0,0c0,0-0.1,0.1-0.1,0.2c0,0.1,0,0.1,0.1,0.1c0,0,0,0,0,0h0c0.2,0,0.5,0,0.8,0
		c0.3,0,0.5,0,0.8,0c0,0,0,0,0,0c0,0,0.1-0.1,0.1-0.1C179,49.6,178.9,49.6,178.9,49.5C178.9,49.5,178.9,49.5,178.9,49.5z"/>
	<path class="st0" d="M180.3,45c0,0.3,0.2,0.5,0.5,0.5c0.3,0,0.5-0.2,0.5-0.5c0-0.3-0.2-0.5-0.5-0.5C180.5,44.5,180.3,44.7,180.3,45
		z"/>
	<path class="st0" d="M181.7,49.5l-0.2,0c-0.2,0-0.3-0.1-0.3-0.7v-1.5c0-0.3,0-0.7,0-1c0,0,0,0,0,0c0-0.1-0.1-0.1-0.1-0.1
		c0,0,0,0,0,0c-0.2,0.1-0.7,0.3-0.9,0.4c0,0-0.1,0.1-0.1,0.1c0,0,0,0.1,0,0.2l0.1,0.1c0.2,0.1,0.2,0.1,0.2,0.5v1.5
		c0,0.6,0,0.6-0.3,0.7l-0.2,0c0,0,0,0,0,0c0,0-0.1,0.1-0.1,0.2c0,0.1,0,0.1,0.1,0.1c0,0,0,0,0,0h0c0.2,0,0.5,0,0.8,0
		c0.3,0,0.5,0,0.8,0c0,0,0,0,0,0c0,0,0.1-0.1,0.1-0.1C181.8,49.6,181.7,49.6,181.7,49.5C181.7,49.5,181.7,49.5,181.7,49.5z"/>
	<path class="st0" d="M184.9,48.6l0.5-1c0.3-0.6,0.4-0.8,0.7-0.9l0.1,0c0,0,0,0,0,0c0,0,0.1-0.1,0.1-0.2c0-0.1,0-0.1-0.1-0.1
		c0,0,0,0,0,0c-0.2,0-0.4,0-0.6,0c-0.2,0-0.5,0-0.7,0c0,0,0,0,0,0c-0.1,0-0.1,0.1-0.1,0.1c0,0.1,0,0.1,0.1,0.2c0,0,0,0,0,0l0.3,0
		c0.1,0,0.1,0,0.1,0.1c0,0.1-0.1,0.3-0.3,0.8l-0.3,0.7c-0.1,0.2-0.2,0.4-0.2,0.5c0-0.1-0.1-0.3-0.2-0.4l-0.3-0.9
		c-0.2-0.4-0.2-0.7-0.2-0.7c0,0,0,0,0.1,0l0.2,0c0,0,0,0,0,0c0.1,0,0.1-0.1,0.1-0.2c0-0.1,0-0.1-0.1-0.1c0,0,0,0,0,0
		c-0.6,0-1,0-1.5,0c0,0,0,0,0,0c0,0-0.1,0.1-0.1,0.1c0,0.1,0,0.1,0.1,0.2c0,0,0,0,0,0l0.2,0c0.2,0,0.3,0.2,0.4,0.6l0.7,1.9
		c0.1,0.3,0.1,0.4,0.1,0.6c0,0.1-0.1,0.3-0.1,0.3c-0.1,0.2-0.2,0.5-0.5,0.9c-0.1,0.1-0.1,0.1-0.2,0.1h-0.2c-0.2,0-0.4,0.2-0.4,0.4
		c0,0.3,0.2,0.4,0.4,0.4c0.3,0,0.5-0.1,0.6-0.4C183.9,50.6,184.6,49.1,184.9,48.6z"/>
	<path class="st0" d="M189.4,48.8l0-1.5c0-0.4-0.1-0.6-0.2-0.8c-0.2-0.2-0.4-0.3-0.7-0.3c-0.6,0-1.6,0.6-1.6,1.1
		c0,0.1,0.1,0.2,0.2,0.2c0.1,0,0.4-0.1,0.5-0.2c0.1-0.1,0.1-0.2,0.1-0.3c0-0.2,0.3-0.3,0.5-0.3c0.2,0,0.3,0,0.4,0.1
		c0.1,0.2,0.2,0.4,0.2,0.5l0,0.4c0,0.1,0,0.2-0.1,0.2l-1,0.4c-0.5,0.2-0.7,0.4-0.7,0.8c0,0.2,0.1,0.5,0.3,0.6
		c0.2,0.1,0.4,0.2,0.6,0.2c0.2,0,0.4-0.1,0.6-0.2l0,0c0.1,0,0.1-0.1,0.1-0.1c0.1,0,0.1-0.1,0.2-0.1c0,0,0,0,0.1,0.1
		c0.1,0.2,0.4,0.3,0.6,0.3c0.4,0,0.8-0.3,0.8-0.4c0-0.1-0.1-0.2-0.1-0.2c0,0-0.1,0-0.1,0l0,0c0,0-0.1,0-0.2,0c-0.1,0-0.1,0-0.2-0.1
		C189.5,49.3,189.4,49.1,189.4,48.8z M188.7,48.9L188.7,48.9c0,0.2,0,0.3-0.1,0.4c-0.1,0.1-0.3,0.2-0.5,0.2c-0.4,0-0.5-0.3-0.5-0.4
		c0-0.3,0.2-0.4,0.7-0.6c0.2-0.1,0.3-0.1,0.3-0.1c0,0,0,0,0,0c0,0,0,0,0,0L188.7,48.9z"/>
</g>
</svg>
