<svg width="17" height="19" viewBox="0 0 17 19" fill="white" xmlns="http://www.w3.org/2000/svg">
<path id="logo" d="M12.8399 3.32C12.1563 2.53962 11.7796 1.53743 11.7799 0.5H8.6899V12.9C8.66607 13.571 8.38277 14.2066 7.89967 14.6729C7.41656 15.1393 6.77135 15.3999 6.0999 15.4C4.6799 15.4 3.4999 14.24 3.4999 12.8C3.4999 11.08 5.1599 9.79 6.8699 10.32V7.16C3.4199 6.7 0.399902 9.38 0.399902 12.8C0.399902 16.13 3.1599 18.5 6.0899 18.5C9.2299 18.5 11.7799 15.95 11.7799 12.8V6.51C13.0329 7.40985 14.5373 7.89265 16.0799 7.89V4.8C16.0799 4.8 14.1999 4.89 12.8399 3.32Z" />
</svg>
