<svg width="21" height="21" viewBox="0 0 21 21" fill="white" xmlns="http://www.w3.org/2000/svg">
<path id="logo" d="M11.4275 0.500864C12.1572 0.498064 12.887 0.505398 13.6165 0.522864L13.8105 0.529864C14.0345 0.537864 14.2555 0.547864 14.5225 0.559864C15.5865 0.609864 16.3125 0.777864 16.9495 1.02486C17.6095 1.27886 18.1655 1.62286 18.7215 2.17886C19.2299 2.67847 19.6233 3.28281 19.8745 3.94986C20.1215 4.58686 20.2895 5.31386 20.3395 6.37786C20.3515 6.64386 20.3615 6.86586 20.3695 7.08986L20.3755 7.28386C20.3933 8.01306 20.4009 8.74246 20.3985 9.47186L20.3995 10.2179V11.5279C20.402 12.2576 20.3943 12.9873 20.3765 13.7169L20.3705 13.9109C20.3625 14.1349 20.3525 14.3559 20.3405 14.6229C20.2905 15.6869 20.1205 16.4129 19.8745 17.0499C19.6242 17.7176 19.2306 18.3225 18.7215 18.8219C18.2215 19.3302 17.6168 19.7236 16.9495 19.9749C16.3125 20.2219 15.5865 20.3899 14.5225 20.4399C14.2555 20.4519 14.0345 20.4619 13.8105 20.4699L13.6165 20.4759C12.887 20.4936 12.1572 20.5013 11.4275 20.4989L10.6815 20.4999H9.3725C8.64276 20.5023 7.91303 20.4947 7.1835 20.4769L6.9895 20.4709C6.75211 20.4623 6.51478 20.4523 6.2775 20.4409C5.2135 20.3909 4.4875 20.2209 3.8495 19.9749C3.18219 19.7242 2.57774 19.3307 2.0785 18.8219C1.56955 18.3221 1.17573 17.7174 0.924503 17.0499C0.677503 16.4129 0.509503 15.6869 0.459503 14.6229C0.448366 14.3856 0.438366 14.1482 0.429503 13.9109L0.424503 13.7169C0.406066 12.9873 0.397732 12.2576 0.399503 11.5279V9.47186C0.396712 8.74247 0.404046 8.01306 0.421503 7.28386L0.428503 7.08986C0.436503 6.86586 0.446503 6.64386 0.458503 6.37786C0.508503 5.31286 0.676503 4.58786 0.923503 3.94986C1.17488 3.28248 1.56947 2.67831 2.0795 2.17986C2.5784 1.67062 3.18246 1.27644 3.8495 1.02486C4.4875 0.777864 5.2125 0.609864 6.2775 0.559864L6.9895 0.529864L7.1835 0.524864C7.91269 0.506437 8.64209 0.498103 9.3715 0.499864L11.4275 0.500864ZM10.3995 5.50086C9.73701 5.49149 9.07926 5.61389 8.46448 5.86093C7.8497 6.10798 7.29015 6.47474 6.81835 6.93992C6.34655 7.4051 5.9719 7.9594 5.71619 8.57063C5.46048 9.18185 5.32879 9.8378 5.32879 10.5004C5.32879 11.1629 5.46048 11.8189 5.71619 12.4301C5.9719 13.0413 6.34655 13.5956 6.81835 14.0608C7.29015 14.526 7.8497 14.8928 8.46448 15.1398C9.07926 15.3868 9.73701 15.5092 10.3995 15.4999C11.7256 15.4999 12.9974 14.9731 13.935 14.0354C14.8727 13.0977 15.3995 11.8259 15.3995 10.4999C15.3995 9.17378 14.8727 7.90201 13.935 6.96433C12.9974 6.02665 11.7256 5.50086 10.3995 5.50086ZM10.3995 7.50086C10.798 7.49352 11.194 7.56566 11.5643 7.71307C11.9346 7.86048 12.2718 8.08021 12.5563 8.35941C12.8407 8.63861 13.0667 8.9717 13.2209 9.33921C13.3752 9.70671 13.4547 10.1013 13.4548 10.4999C13.4548 10.8984 13.3755 11.293 13.2213 11.6606C13.0672 12.0281 12.8413 12.3613 12.557 12.6406C12.2726 12.9199 11.9355 13.1397 11.5652 13.2873C11.195 13.4348 10.799 13.5071 10.4005 13.4999C9.60485 13.4999 8.84179 13.1838 8.27918 12.6212C7.71657 12.0586 7.4005 11.2955 7.4005 10.4999C7.4005 9.70422 7.71657 8.94115 8.27918 8.37854C8.84179 7.81593 9.60485 7.49986 10.4005 7.49986L10.3995 7.50086ZM15.6495 4.00086C15.3269 4.01378 15.0218 4.15101 14.7981 4.38384C14.5744 4.61666 14.4495 4.927 14.4495 5.24986C14.4495 5.57273 14.5744 5.88307 14.7981 6.11589C15.0218 6.34871 15.3269 6.48595 15.6495 6.49886C15.981 6.49886 16.299 6.36717 16.5334 6.13275C16.7678 5.89833 16.8995 5.58038 16.8995 5.24886C16.8995 4.91734 16.7678 4.5994 16.5334 4.36498C16.299 4.13056 15.981 3.99886 15.6495 3.99886V4.00086Z" />
</svg>
