<svg width="21" height="17" viewBox="0 0 21 17" fill="white" xmlns="http://www.w3.org/2000/svg">
<path id="logo" fill-rule="evenodd" clip-rule="evenodd" d="M10.3999 0.5C11.2549 0.5 12.1319 0.522 12.9819 0.558L13.9859 0.606L14.9469 0.663L15.8469 0.724L16.6689 0.788C17.561 0.856278 18.4003 1.23695 19.0394 1.86304C19.6785 2.48913 20.0763 3.32054 20.1629 4.211L20.2029 4.636L20.2779 5.546C20.3479 6.489 20.3999 7.517 20.3999 8.5C20.3999 9.483 20.3479 10.511 20.2779 11.454L20.2029 12.364C20.1899 12.51 20.1769 12.651 20.1629 12.789C20.0763 13.6796 19.6783 14.5112 19.039 15.1373C18.3998 15.7634 17.5601 16.1439 16.6679 16.212L15.8479 16.275L14.9479 16.337L13.9859 16.394L12.9819 16.442C12.1217 16.4794 11.2609 16.4987 10.3999 16.5C9.53893 16.4987 8.67807 16.4794 7.8179 16.442L6.8139 16.394L5.8529 16.337L4.9529 16.275L4.1309 16.212C3.23885 16.1437 2.39945 15.7631 1.76038 15.137C1.1213 14.5109 0.723477 13.6795 0.636902 12.789L0.596902 12.364L0.521902 11.454C0.44544 10.4711 0.404746 9.48582 0.399902 8.5C0.399902 7.517 0.451902 6.489 0.521902 5.546L0.596902 4.636C0.609902 4.49 0.622902 4.349 0.636902 4.211C0.723443 3.3207 1.12112 2.48942 1.75999 1.86334C2.39887 1.23727 3.23803 0.856503 4.1299 0.788L4.9509 0.724L5.8509 0.663L6.8129 0.606L7.8169 0.558C8.6774 0.520633 9.53859 0.501295 10.3999 0.5ZM8.3999 6.075V10.925C8.3999 11.387 8.8999 11.675 9.2999 11.445L13.4999 9.02C13.5913 8.96739 13.6672 8.89162 13.72 8.80033C13.7728 8.70904 13.8006 8.60545 13.8006 8.5C13.8006 8.39455 13.7728 8.29096 13.72 8.19967C13.6672 8.10838 13.5913 8.03261 13.4999 7.98L9.2999 5.556C9.20866 5.50332 9.10516 5.4756 8.99981 5.47562C8.89445 5.47563 8.79096 5.50339 8.69974 5.5561C8.60851 5.6088 8.53278 5.6846 8.48014 5.77587C8.42751 5.86713 8.39983 5.97065 8.3999 6.076V6.075Z" />
</svg>
