<svg width="1170" height="218" viewBox="0 0 1170 218" fill="none" xmlns="http://www.w3.org/2000/svg">
<g id="update">
<path d="M182.7 132.2C182.7 161.2 174.6 182.8 158.4 197C142.2 211 119.8 218 91.2 218C62.2 218 39.7 211 23.7 197C7.9 183 0 161.4 0 132.2V-1H47.1V132.2C47.1 138 47.6 143.7 48.6 149.3C49.6 154.9 51.7 159.9 54.9 164.3C58.1 168.5 62.5 172 68.1 174.8C73.9 177.4 81.6 178.7 91.2 178.7C108 178.7 119.6 175 126 167.6C132.4 160 135.6 148.2 135.6 132.2V-1H182.7V132.2Z" fill="white"/>
<path d="M270.363 99.8H306.963C312.363 99.8 317.563 99.4 322.563 98.6C327.563 97.8 331.963 96.3 335.763 94.1C339.563 91.7 342.563 88.4 344.763 84.2C347.163 80 348.363 74.5 348.363 67.7C348.363 60.9 347.163 55.4 344.763 51.2C342.563 47 339.563 43.8 335.763 41.6C331.963 39.2 327.563 37.6 322.563 36.8C317.563 36 312.363 35.6 306.963 35.6H270.363V99.8ZM223.263 -1H319.863C333.263 -1 344.663 1 354.063 5.00001C363.463 8.80001 371.063 13.9 376.863 20.3C382.863 26.7 387.163 34 389.763 42.2C392.563 50.4 393.963 58.9 393.963 67.7C393.963 76.3 392.563 84.8 389.763 93.2C387.163 101.4 382.863 108.7 376.863 115.1C371.063 121.5 363.463 126.7 354.063 130.7C344.663 134.5 333.263 136.4 319.863 136.4H270.363V213.2H223.263V-1Z" fill="white"/>
<path d="M470.461 173.6H512.461C519.261 173.6 525.861 172.5 532.261 170.3C538.661 168.1 544.361 164.5 549.361 159.5C554.361 154.3 558.361 147.6 561.361 139.4C564.361 131.2 565.861 121.2 565.861 109.4C565.861 98.6 564.761 88.9 562.561 80.3C560.561 71.5 557.161 64 552.361 57.8C547.561 51.6 541.161 46.9 533.161 43.7C525.361 40.3 515.661 38.6 504.061 38.6H470.461V173.6ZM423.361 -1H515.761C529.561 -1 542.361 1.2 554.161 5.6C566.161 10 576.461 16.6 585.061 25.4C593.861 34.2 600.661 45.2 605.461 58.4C610.461 71.6 612.961 87.1 612.961 104.9C612.961 120.5 610.961 134.9 606.961 148.1C602.961 161.3 596.861 172.7 588.661 182.3C580.661 191.9 570.561 199.5 558.361 205.1C546.361 210.5 532.161 213.2 515.761 213.2H423.361V-1Z" fill="white"/>
<path d="M699.724 130.4H755.224L728.224 51.8H727.624L699.724 130.4ZM704.224 -1H752.524L832.624 213.2H783.724L767.524 165.5H687.424L670.624 213.2H623.224L704.224 -1Z" fill="white"/>
<path d="M870.956 38.6H806.756V-1H982.256V38.6H918.056V213.2H870.956V38.6Z" fill="white"/>
<path d="M1006.95 -1H1167.15V38.6H1054.05V84.5H1157.85V121.1H1054.05V173.6H1169.55V213.2H1006.95V-1Z" fill="white"/>
</g>
</svg>
